<mxfile host="Electron" agent="Mozilla/5.0 (Windows NT 10.0; Win64; x64) AppleWebKit/537.36 (KHTML, like Gecko) draw.io/26.0.16 Chrome/132.0.6834.196 Electron/34.2.0 Safari/537.36" version="26.0.16" pages="2">
  <diagram id="YqfDGmyHX4js3fW5wueN" name="to-be">
    <mxGraphModel dx="1434" dy="844" grid="1" gridSize="10" guides="1" tooltips="1" connect="1" arrows="1" fold="1" page="1" pageScale="1" pageWidth="1169" pageHeight="827" math="0" shadow="0">
      <root>
        <mxCell id="0" />
        <mxCell id="1" parent="0" />
        <mxCell id="QWRjxhVPjkHXVvezQv8i-1" value="&lt;div style=&quot;font-size: 1px&quot;&gt;&lt;font style=&quot;font-size:22.58px;font-family:Arial;color:#000000;direction:ltr;letter-spacing:0px;line-height:120%;opacity:1&quot;&gt;Зона доступности 1&lt;br&gt;&lt;/font&gt;&lt;/div&gt;" style="verticalAlign=bottom;align=center;overflow=width;vsdxID=5;fillColor=#e3ebff;gradientColor=none;shape=stencil(vVNBDsIgEHwNRwxCjHqu+g9iaUtEaBa09fdSwdpi9dBDb8vOwOwsGcQyW/FaIEqsA3MRjcxdhdgBUSp1JUA6XyF2RCwrDIgSzE3n4VzzjtlVV3PvXmjDPdLdoOQRTrvtavNqnAKXw9mDELkBIhDJaxrJZIy/YRLfbjFvpcVgHHfS6JGu4lAK7GVwoXg5gmwjRP3VjoMpqQcm9tPKs0z0Y6crWcBHqt0PN8tJspXFfmNKdpaBH8tYwML/VPjiE6dCKhXSOMTT+PlWiC47PgE=);strokeColor=none;spacingTop=-3;spacingBottom=-3;spacingLeft=-3;spacingRight=-3;points=[];labelBackgroundColor=none;rounded=0;html=1;whiteSpace=wrap;container=0;" parent="1" vertex="1">
          <mxGeometry x="200" y="760" width="390.22" height="680" as="geometry" />
        </mxCell>
        <mxCell id="QWRjxhVPjkHXVvezQv8i-2" style="edgeStyle=orthogonalEdgeStyle;rounded=0;orthogonalLoop=1;jettySize=auto;html=1;" parent="1" source="QWRjxhVPjkHXVvezQv8i-8" edge="1">
          <mxGeometry relative="1" as="geometry">
            <mxPoint x="465" y="980" as="targetPoint" />
          </mxGeometry>
        </mxCell>
        <mxCell id="QWRjxhVPjkHXVvezQv8i-3" value="TCP" style="edgeLabel;html=1;align=center;verticalAlign=middle;resizable=0;points=[];container=0;" parent="QWRjxhVPjkHXVvezQv8i-2" vertex="1" connectable="0">
          <mxGeometry x="-0.0566" y="2" relative="1" as="geometry">
            <mxPoint as="offset" />
          </mxGeometry>
        </mxCell>
        <mxCell id="QWRjxhVPjkHXVvezQv8i-4" style="rounded=1;orthogonalLoop=1;jettySize=auto;html=1;entryX=0.659;entryY=-0.015;entryDx=0;entryDy=0;entryPerimeter=0;curved=0;" parent="1" source="QWRjxhVPjkHXVvezQv8i-13" target="QWRjxhVPjkHXVvezQv8i-18" edge="1">
          <mxGeometry relative="1" as="geometry">
            <Array as="points">
              <mxPoint x="626" y="720" />
              <mxPoint x="454" y="720" />
            </Array>
          </mxGeometry>
        </mxCell>
        <mxCell id="QWRjxhVPjkHXVvezQv8i-5" value="Active failover" style="edgeLabel;html=1;align=center;verticalAlign=middle;resizable=0;points=[];" parent="QWRjxhVPjkHXVvezQv8i-4" vertex="1" connectable="0">
          <mxGeometry x="0.1832" y="-1" relative="1" as="geometry">
            <mxPoint as="offset" />
          </mxGeometry>
        </mxCell>
        <mxCell id="QWRjxhVPjkHXVvezQv8i-6" value="" style="shape=image;verticalLabelPosition=bottom;verticalAlign=top;imageAspect=0;aspect=fixed;image=data:image/svg+xml,PHN2ZyB4bWxucz0iaHR0cDovL3d3dy53My5vcmcvMjAwMC9zdmciIHdpZHRoPSIzMiIgaGVpZ2h0PSIzMiIgdmlld0JveD0iMCAwIDMyIDMyIiBmaWxsPSJub25lIj4mI3hhOzxwYXRoIGQ9Ik0wIDE2QzAgNy4xNjM0NCA3LjE2MzQ0IDAgMTYgMFYwQzI0LjgzNjYgMCAzMiA3LjE2MzQ0IDMyIDE2VjE2QzMyIDI0LjgzNjYgMjQuODM2NiAzMiAxNiAzMlYzMkM3LjE2MzQ0IDMyIDAgMjQuODM2NiAwIDE2VjE2WiIgZmlsbD0iIzUyODJGRiIvPiYjeGE7PHBhdGggZD0iTTExLjk5NSAyNEw3LjAwMDk4IDE3LjczOEw4Ljc4MTk4IDkuOTI3TDE2IDYuNDUzTDIzLjIxOCA5LjkyOEwyNC45OTkgMTcuNzM5TDIwLjAwNSAyNEgxMS45OTVaTTIwIDEzLjE5NkwxNS45OTkgMTAuODk5TDEyIDEzLjE5NlYxOC4xTDE2IDIwLjQwMUwyMCAxOC4xVjEzLjE5NlpNMTguNzggMTMuODk2SDE4Ljc4N0wxNiAxNS40OTlMMTMuMjE0IDEzLjg5NUgxMy4yMTlMMTUuOTk5IDEyLjI5OUwxOC43OCAxMy44OTZaIiBmaWxsPSJ3aGl0ZSIvPiYjeGE7PC9zdmc+;container=0;" parent="1" vertex="1">
          <mxGeometry x="465" y="830" width="28.571428571428573" height="28.571428571428573" as="geometry" />
        </mxCell>
        <mxCell id="QWRjxhVPjkHXVvezQv8i-7" style="vsdxID=5;fillColor=none;gradientColor=none;shape=stencil(vVPLEoIgFP0aljgEVuPa6j+YRGUica6U9vdhUKk4LWzG3X0cOPdcOIilTclrgShpDOiLaGVmSsQOiFJZlQKksRFiR8TSXIMoQN+qzOU175F9dNX3/obOnSP9CUoeLktIFL8KJ4flcLZN8NhtRJiDwxsf7VwhQHjAhniCDvNONhi04UbqakSuOBQCWy6cK16MWk0rRB2U/XRKVgMlSRwl+1nyhWI+s0+Xs4KYgNvPtlBKuJvVniX4En+9yfxWVpDx2yc2+Bosl0o5fw77U0PakjMzOz4B);strokeColor=#ff5958;spacingTop=-3;spacingBottom=-3;spacingLeft=-3;spacingRight=-3;points=[];labelBackgroundColor=none;rounded=0;html=1;whiteSpace=wrap;container=0;" parent="1" vertex="1">
          <mxGeometry x="401" y="820" width="130" height="100" as="geometry" />
        </mxCell>
        <mxCell id="QWRjxhVPjkHXVvezQv8i-8" value="&lt;div style=&quot;font-size: 1px&quot;&gt;&lt;font style=&quot;font-size:22.58px;font-family:Arial;color:#000000;direction:ltr;letter-spacing:0px;line-height:120%;opacity:1&quot;&gt;InsureTech&lt;/font&gt;&lt;/div&gt;&lt;div style=&quot;font-size: 1px&quot;&gt;&lt;font style=&quot;font-size:22.58px;font-family:Arial;color:#000000;direction:ltr;letter-spacing:0px;line-height:120%;opacity:1&quot;&gt;namespace&lt;/font&gt;&lt;/div&gt;" style="verticalAlign=bottom;align=center;overflow=width;vsdxID=6;fillColor=none;gradientColor=none;strokeColor=none;spacingTop=-3;spacingBottom=-3;spacingLeft=-3;spacingRight=-3;points=[];labelBackgroundColor=none;rounded=0;html=1;whiteSpace=wrap;container=0;" parent="1" vertex="1">
          <mxGeometry x="400" y="860" width="130" height="54" as="geometry" />
        </mxCell>
        <mxCell id="QWRjxhVPjkHXVvezQv8i-9" style="vsdxID=5;fillColor=none;gradientColor=none;shape=stencil(vVPLEoIgFP0aljgEVuPa6j+YRGUica6U9vdhUKk4LWzG3X0cOPdcOIilTclrgShpDOiLaGVmSsQOiFJZlQKksRFiR8TSXIMoQN+qzOU175F9dNX3/obOnSP9CUoeLktIFL8KJ4flcLZN8NhtRJiDwxsf7VwhQHjAhniCDvNONhi04UbqakSuOBQCWy6cK16MWk0rRB2U/XRKVgMlSRwl+1nyhWI+s0+Xs4KYgNvPtlBKuJvVniX4En+9yfxWVpDx2yc2+Bosl0o5fw77U0PakjMzOz4B);strokeColor=#ff5958;spacingTop=-3;spacingBottom=-3;spacingLeft=-3;spacingRight=-3;points=[];labelBackgroundColor=none;rounded=0;html=1;whiteSpace=wrap;container=0;" parent="1" vertex="1">
          <mxGeometry x="400" y="1147.1100000000001" width="130" height="105.5" as="geometry" />
        </mxCell>
        <mxCell id="QWRjxhVPjkHXVvezQv8i-10" value="&lt;div style=&quot;font-size: 1px&quot;&gt;&lt;font style=&quot;font-size:22.58px;font-family:Arial;color:#000000;direction:ltr;letter-spacing:0px;line-height:120%;opacity:1&quot;&gt;PosrgreSQL&lt;br&gt;&lt;/font&gt;&lt;/div&gt;&lt;div style=&quot;font-size: 1px&quot;&gt;&lt;font style=&quot;font-size:22.58px;font-family:Arial;color:#000000;direction:ltr;letter-spacing:0px;line-height:120%;opacity:1&quot;&gt;(master)&lt;/font&gt;&lt;/div&gt;" style="verticalAlign=bottom;align=center;overflow=width;vsdxID=6;fillColor=none;gradientColor=none;strokeColor=none;spacingTop=-3;spacingBottom=-3;spacingLeft=-3;spacingRight=-3;points=[];labelBackgroundColor=none;rounded=0;html=1;whiteSpace=wrap;container=0;" parent="1" vertex="1">
          <mxGeometry x="400" y="1192.1100000000001" width="130" height="53.21" as="geometry" />
        </mxCell>
        <mxCell id="QWRjxhVPjkHXVvezQv8i-11" value="" style="shape=image;verticalLabelPosition=bottom;verticalAlign=top;imageAspect=0;aspect=fixed;image=data:image/svg+xml,PHN2ZyB4bWxucz0iaHR0cDovL3d3dy53My5vcmcvMjAwMC9zdmciIHdpZHRoPSIzMiIgaGVpZ2h0PSIzMiIgdmlld0JveD0iMCAwIDMyIDMyIiBmaWxsPSJub25lIj4mI3hhOzxwYXRoIGQ9Ik0wIDE2QzAgNy4xNjM0NCA3LjE2MzQ0IDAgMTYgMFYwQzI0LjgzNjYgMCAzMiA3LjE2MzQ0IDMyIDE2VjE2QzMyIDI0LjgzNjYgMjQuODM2NiAzMiAxNiAzMlYzMkM3LjE2MzQ0IDMyIDAgMjQuODM2NiAwIDE2VjE2WiIgZmlsbD0iIzUyODJGRiIvPiYjeGE7PHBhdGggZmlsbC1ydWxlPSJldmVub2RkIiBjbGlwLXJ1bGU9ImV2ZW5vZGQiIGQ9Ik0xMyA4SDE4QzIxLjMgOCAyNCAxMC43IDI0IDE0VjI0SDIwVjIwSDIyVjE5SDE4LjZDMTUuNSAxOSAxMyAxNi41IDEzIDEzLjRWOFpNMTkgMTdIMjFWMTVIMTlWMTdaTTEyIDkuMDk5OThWMTMuNEMxMiAxNi44IDE0LjYgMTkuNyAxOCAyMC4xVjIwLjZDMTggMjIgMTUuOCAyMy4xIDEzIDIzLjFDMTAuMiAyMy4xIDggMjIgOCAyMC42VjExLjZDOCAxMC4zIDkuNyA5LjI5OTk4IDEyIDkuMDk5OThaIiBmaWxsPSJ3aGl0ZSIvPiYjeGE7PC9zdmc+;container=0;" parent="1" vertex="1">
          <mxGeometry x="444.5" y="1151.1100000000001" width="36.26923076923077" height="36.26923076923077" as="geometry" />
        </mxCell>
        <mxCell id="QWRjxhVPjkHXVvezQv8i-12" value="" style="aspect=fixed;sketch=0;html=1;dashed=0;whitespace=wrap;verticalLabelPosition=bottom;verticalAlign=top;fillColor=#2875E2;strokeColor=#ffffff;points=[[0.005,0.63,0],[0.1,0.2,0],[0.9,0.2,0],[0.5,0,0],[0.995,0.63,0],[0.72,0.99,0],[0.5,1,0],[0.28,0.99,0]];shape=mxgraph.kubernetes.icon2;prIcon=group;container=0;" parent="1" vertex="1">
          <mxGeometry x="634" y="507.81" width="50" height="48" as="geometry" />
        </mxCell>
        <mxCell id="QWRjxhVPjkHXVvezQv8i-13" style="vsdxID=5;fillColor=none;gradientColor=none;shape=stencil(vVPLEoIgFP0aljgEVuPa6j+YRGUica6U9vdhUKk4LWzG3X0cOPdcOIilTclrgShpDOiLaGVmSsQOiFJZlQKksRFiR8TSXIMoQN+qzOU175F9dNX3/obOnSP9CUoeLktIFL8KJ4flcLZN8NhtRJiDwxsf7VwhQHjAhniCDvNONhi04UbqakSuOBQCWy6cK16MWk0rRB2U/XRKVgMlSRwl+1nyhWI+s0+Xs4KYgNvPtlBKuJvVniX4En+9yfxWVpDx2yc2+Bosl0o5fw77U0PakjMzOz4B);strokeColor=#ff5958;spacingTop=-3;spacingBottom=-3;spacingLeft=-3;spacingRight=-3;points=[];labelBackgroundColor=none;rounded=0;html=1;whiteSpace=wrap;container=0;" parent="1" vertex="1">
          <mxGeometry x="550" y="497.81" width="152" height="130" as="geometry" />
        </mxCell>
        <mxCell id="QWRjxhVPjkHXVvezQv8i-14" value="&lt;div style=&quot;font-size: 1px&quot;&gt;&lt;font style=&quot;font-size:22.58px;font-family:Arial;color:#000000;direction:ltr;letter-spacing:0px;line-height:120%;opacity:1&quot;&gt;Браузер&amp;nbsp;&lt;/font&gt;&lt;/div&gt;&lt;div style=&quot;font-size: 1px&quot;&gt;&lt;font style=&quot;font-size:22.58px;font-family:Arial;color:#000000;direction:ltr;letter-spacing:0px;line-height:120%;opacity:1&quot;&gt;пользователя&lt;/font&gt;&lt;/div&gt;" style="verticalAlign=bottom;align=center;overflow=width;vsdxID=6;fillColor=none;gradientColor=none;strokeColor=none;spacingTop=-3;spacingBottom=-3;spacingLeft=-3;spacingRight=-3;points=[];labelBackgroundColor=none;rounded=0;html=1;whiteSpace=wrap;container=0;" parent="1" vertex="1">
          <mxGeometry x="550" y="564.81" width="152" height="53" as="geometry" />
        </mxCell>
        <mxCell id="QWRjxhVPjkHXVvezQv8i-15" value="" style="group" parent="1" vertex="1" connectable="0">
          <mxGeometry x="230" y="800" width="350" height="133.71" as="geometry" />
        </mxCell>
        <mxCell id="QWRjxhVPjkHXVvezQv8i-16" value="" style="shape=image;verticalLabelPosition=bottom;verticalAlign=top;imageAspect=0;aspect=fixed;image=data:image/svg+xml,PHN2ZyB4bWxucz0iaHR0cDovL3d3dy53My5vcmcvMjAwMC9zdmciIHdpZHRoPSIzMiIgaGVpZ2h0PSIzMiIgdmlld0JveD0iMCAwIDMyIDMyIiBmaWxsPSJub25lIj4mI3hhOzxwYXRoIGQ9Ik0wIDE2QzAgNy4xNjM0NCA3LjE2MzQ0IDAgMTYgMFYwQzI0LjgzNjYgMCAzMiA3LjE2MzQ0IDMyIDE2VjE2QzMyIDI0LjgzNjYgMjQuODM2NiAzMiAxNiAzMlYzMkM3LjE2MzQ0IDMyIDAgMjQuODM2NiAwIDE2VjE2WiIgZmlsbD0iIzUyODJGRiIvPiYjeGE7PHBhdGggZD0iTTExLjk5NSAyNEw3LjAwMDk4IDE3LjczOEw4Ljc4MTk4IDkuOTI3TDE2IDYuNDUzTDIzLjIxOCA5LjkyOEwyNC45OTkgMTcuNzM5TDIwLjAwNSAyNEgxMS45OTVaTTIwIDEzLjE5NkwxNS45OTkgMTAuODk5TDEyIDEzLjE5NlYxOC4xTDE2IDIwLjQwMUwyMCAxOC4xVjEzLjE5NlpNMTguNzggMTMuODk2SDE4Ljc4N0wxNiAxNS40OTlMMTMuMjE0IDEzLjg5NUgxMy4yMTlMMTUuOTk5IDEyLjI5OUwxOC43OCAxMy44OTZaIiBmaWxsPSJ3aGl0ZSIvPiYjeGE7PC9zdmc+;container=0;" parent="QWRjxhVPjkHXVvezQv8i-15" vertex="1">
          <mxGeometry x="19.99515151515152" y="86.14999999999996" width="27.69545454545455" height="27.69545454545455" as="geometry" />
        </mxCell>
        <mxCell id="QWRjxhVPjkHXVvezQv8i-17" value="&lt;div style=&quot;font-size: 1px&quot;&gt;&lt;font style=&quot;font-size:22.58px;font-family:Arial;color:#000000;direction:ltr;letter-spacing:0px;line-height:120%;opacity:1&quot;&gt;Kubernetes&lt;br&gt;&lt;/font&gt;&lt;/div&gt;&lt;div style=&quot;font-size: 1px&quot;&gt;&lt;font style=&quot;font-size:22.58px;font-family:Arial;color:#000000;direction:ltr;letter-spacing:0px;line-height:120%;opacity:1&quot;&gt;cluster 1&lt;/font&gt;&lt;/div&gt;" style="verticalAlign=middle;align=center;overflow=width;vsdxID=7;fillColor=none;gradientColor=none;shape=stencil(nZBLDoAgDERP0z3SIyjew0SURgSD+Lu9kMZoXLhwN9O+tukAlrNpJg1SzDH4QW/URgNYgZTkjA4UkwJUgGXng+6DX1zLfmoymdXo17xh5zmRJ6Q42BWCfc2oJfdAr+Yv+AP9Cb7OJ3H/2JG1HNGz/84klThPVCc=);strokeColor=none;points=[];labelBackgroundColor=none;rounded=0;html=1;whiteSpace=wrap;container=0;" parent="QWRjxhVPjkHXVvezQv8i-15" vertex="1">
          <mxGeometry x="-13.303030303030303" y="3" width="116.36363636363637" height="86.13999999999999" as="geometry" />
        </mxCell>
        <mxCell id="QWRjxhVPjkHXVvezQv8i-18" style="vsdxID=6;fillColor=none;gradientColor=none;shape=stencil(vVNdD4IgFP01POIQms1nq//BEpVF4q6U9u/DoFJxPdjm2/04cO65cBDL2oo3AlHSGtAX0cncVIgdEKWyrgRIYyPEjohlhQZRgr7VucsbPiCH6Krvww29O0eGE5Q8XJaSaPcqnByWw9k2wWNZRFMHhzc+SlwhQHhATDxBj3kvWwzacCN1PSFXHEqBLRcuFC8nrbYTognKfjol65GSNIn28SL5SjGf2efL2UBMwO1nWykl3M1mzxJ8ib/eZHkrG8j47RMbfA1WSKWcP8f9uSFtyZmZHZ8=);strokeColor=#5282ff;spacingTop=-3;spacingBottom=-3;spacingLeft=-3;spacingRight=-3;points=[];labelBackgroundColor=none;rounded=0;html=1;whiteSpace=wrap;container=0;" parent="QWRjxhVPjkHXVvezQv8i-15" vertex="1">
          <mxGeometry x="-20" width="370" height="133.71" as="geometry" />
        </mxCell>
        <mxCell id="QWRjxhVPjkHXVvezQv8i-19" style="vsdxID=5;fillColor=none;gradientColor=none;strokeColor=none;spacingTop=-3;spacingBottom=-3;spacingLeft=-3;spacingRight=-3;points=[];labelBackgroundColor=none;rounded=0;html=1;whiteSpace=wrap;rotation=-90;" parent="1" vertex="1">
          <mxGeometry x="643" y="412" width="11" height="128" as="geometry" />
        </mxCell>
        <mxCell id="QWRjxhVPjkHXVvezQv8i-20" style="vsdxID=6;fillColor=#000000;gradientColor=none;fillOpacity=70;shape=stencil(pb3bkibLbaX5NLwN8zPcL8d6et5D1qJatNaQMoqaVr/9rC+SrCrtDP4BCKRIcVc6IlER7jg4gLV+1//bv/3zP/zr73/Xyr/95c9/+l+//99/+Me//PPv+v/9u9b+8Md//v2f//AX/a/f9f/+u/7f/ulPf/79//zzn/79j//49c//+g+s5H/9v3/6/3jCf3zJzYJIK//n6x9r+frn/+dr7b/84Y+/rP3PS7dd4/z9xX97knN5RI/Pa3/z99vXWv9p+X9a/D/+/c9fq+svy0uzM+ca869yf/1ZucpZpa/Zei+zlLbsa8F/tA/C7W/C9dSzVz02ljSe9let/qN/V7T/Tab98sbK/xXWt+9utVpZy04pe66IvsPO2LudVpuVUj3qzp1Sd1nZa28b08o5p0W0tbWGaZPVqaeUbg5t90ppe6ZNfUabu81zul/ZepXZjr7MHl1/0X3eX2296kwoW682+mrjaDPoY9ayI9r2vrc2Uq+76quU4dB29JS2ej2trbZbs66tF1FWf8uu41Xb0iEtfTqUtZZSdtfRi3Ud7c1vDOzaep1ysF/shn7O7K/aZlRtsl86XV2vtjQdsB0wB03mq6862i62imzfu6Y549VkvLA9eqWzjFJORNdhNvax2+zptb7v2HZNSym7ZH5GXWVI2XNCL1bvc+vjbx1Qna/6brlaznK164wjHyQ/VpvebJl+bftVZEi25OssW9bg/Xz1q46Etv1qvR79uVzukLYtpG1nqx+Eaz8OO9uvkTlh/Zr6PbOcqWWtFBsRZVexrQ+yFN/wr/eN0K/MppW0jkaTKeC/Q5u2X3sfmb3W92h6sebR9WSCg3HJ7vR9WqnbdsgnjKsunSuZktabwqB3Izuuljlg4+pzyU6eurpMQkxXGZCKjT17yhq8v9dxzczxGtfqy7RrFTkpPj2R4zXkOY9siUyBDIFcrkPZnTle49Ir1cecikeI8gLh97zkQuodVcjXlvJuCuZVE6pKWq9ER1nbbugtRTRVFHuqgjRFslvRoUPTnjlaU+6yjznJTHg1gR0wr7mW0oOlcykzoD3rUHZlzta82KxEMEPxnXZfRFnF21vnq2Hzfv49P+l6MmdrXaUpnzk2xx4jsgfWJXOlJKZsxVvlpwX5+6quq2W267rkXvXn6w6bfm46l65d9r/pSMqC2Dnv+3X9p4uA/4Kuc1cdDOUGp+yIdV3KMOVD5O7ktMz1Vi3jYde1lR/WsQhBImrKqM6lvF274JfQ9+/raVfJbFS7Kjca04Zcz/kZ3Dt0tUtm2fRD5ZScx/V+quzqGSdg11CcpDx/K8qPKqtT2EcfS1HW8sSDds3MVrVr7VYV1889h4VCLNPW60OJwSJF9ESDlksL7NKfKnAdNpXphd7r1vYz5RKNKHt5ksOdSwq2dt3R75t9ndFDLmtr9xUd/2ptyTafdyOwr5ExrfuSxymKPZUyrfMz8nDpOk/bs8u0zuV5qSsTB2ztOIUqa8sBRPzq1r5TQtj1rzZlrt6z7X2dzE492m6rrKr3qagjtFOPLN2SoZtdb/Vd0aPkM6Vor6aXUmWvSg1daB6s3JKhWruTur77gHNlbgglvXdRVqdAZc+fSZJLVcWpClcUlpXheacpn3rkU3dvNmRtyAECN5lHfnU3/fVma7V67i5qyTlWyVdFcEvpoILkmAOQbNPGUaJTpyJrT8oikZ4xVcgf66UvbuLD6o4ta3yWEhdHHlCT1QLJL/1w3PctLaaoKdStilu2cYW1Pbru5DZQ2NH4mEthS+gys1ZlEV2h2eoyef1noeGDuvWqqW1Qr4a5qkUOcpSfb8inbju1cqewynwPWrQ+lbxKfij71CFripcsZLgkO5VKnK00XfbAkxFKZKUKMfWyrvjqmByD7GXEd0l2Kzrrsl6y0cW1cet1UjuhXVKx6u3MMseM7QTKDcWUEWzZwOq5HpJITW2GdjX5oq3AWfs3dkso2T6Xvomiwk7S7TC37Rops9CuySXGbopmlJmEaojtUlrRT2fnVsdOaJcld4IdU4SgsNu4LQ7cvUl2b0WyytZ10qYnQpTIyUQJtV9lYcT0QUctMbNAxUJb/Qxl4A5r26+W2gVUKaY1xSbdaiyclawcoHK2YXtReHJshJ6KExFXlKiNp9+oKDz4YpfhAJVkrLo9N/ESsUyqIPk9qw5XqXq3Laqu/p617j3m6MVzGV/HVVKV7yHPrXRPuaJivxlKwySrDa+IUbZ6bVftAJHM9Ybku2KpozzcyPtDb3fIcTfT31MRbnfshCFnndN19bVLVV7VV/sZ/ft0tdbNyrG7XO+4OZTITtlbyR/S1EKYMEJ5jmTPHr2dWWdv++cu+qDuvErK3s6rTrPR+9avjuzaKes5+jb9tOAbHDHYvHrqkE0ZTRuyRIU2k9hOmJe+yBncQJOVewzuzN0hSl5WU3tPceNqJXSBJFlbdxvMnn257mYkslPnbMpqzjHqoSnKYrkOFZM6t1LIbcsRgK1korPurhZt26IdGPG769IPlrY7V/vbc+MpkZ46Yesas44u+zXaiGzZpSjTGja6L8c1stb/9a7xv6wobXyrK2sdNWK2JMhtrnyCYovlisCXIsucrspPtFd36zIGoXzBrjLLUabb97zP2Lu2lrv1rhRbqoxBnaPNyLmyqxcudbe26vQ5BImkrJbdTViKa/V2ld+UiE+way5k8ApKG47jdFkyLzfl5c2U+On/1UgYY/LzRoetDN5w7Fi7kq/1bJuKmcZWrBdLyLd8fOt3RzCFk/crZUnUVPS95dyl5T60x9VYOEuhZo3R+pApMdeeTVZqkD9TeVS5O/kiBXuJTp2tY13BjKOzu/74o/+yqnQ4lq20ryq3jpQWJLsVVDZjr9O95Qi59nVSPuFchQysU3nfQWsg2a2cs04FMbSFO97uuWrK156LStZoNmppI+QWDu3SCrhsS9ixZ0+u41Dyipu3KZ3u9y1bSFX5Aquy082mqyeqUuvJaavfpDW0utoMartH2Yot2UiOsPvktizTHuVu4ttDOVToWuaeFKkK12Wrq6eht+TuPRkUmWR849DcFLqcY0qEtg8F3qs62uUZDMlkX0yJlN2rkj3FMC2U2CJLt2GvW6GBq4J3T5Xk1DV6eHCbAaPFdAkXDdoGtsfyXMYwUZLasFUbVmHIPDJAbYVuk5HdXECO0pVmeiIuRlJSL7Ze3AVXRd46JSPUw3HPpJhxX68t79I1ZWSZSFF6YNp4s9IdEdOV5h/ls2W24coTmGJJvlrjloLLtbt/MGK66kV1ndR23IM0jiNW0xv3EDhtCi/crkXUbYppFbPd3fbTFSUyypIan2gMU22a9AlLQ7p2LVim0LJ7tkHLhbPI77NLLWvS7hi5nb0HYupCz3H28lSdGYLJpGBMwvSpmF8xSZuxZIGRmKr3KqNgVRvCY25bKhFDnJDLqIqWFepFZ4pmVdlbRtzGeyiTHaFhhqaNPZvR77Bjb7ZzdSB3oiizMOfosAc9d3XAEI42QWkym5Pr65C2+JQxFAjt5tiz/VqpYKZf9D2aLVrgVmzwi/kbubDTxty/OpWP6u6UY+j0eE7ifSLFWIhAaUt/yW5jTIeq46oppyD5ozOtBXpDO/Zmx9W007l4WArePbfezOyknMK4xtDPaPSazKxGfNi4ZlP4VZkBfL+UYWQnpynVQW06bQLr0Rdrq/V1909Oh+Eaub4pBn4aDRIKY3aNvFLGfbq2a1uzLocd0PpUAjYVU3TaNctZFhwApQJGPV1vlOkUT8Q1cy30jPwUWmS4Y2VwJ6St0oRdiWFo6XAUwO4poZy2Ckf1Le/KbY1F35PKLb3JpdTp6uphTiin7d6dX7anEX3HtD10yHDR1Zsv6lq5DtWvUaPVrRu9/7Egcf2t42DQr+CKuiSServrYjahHIUG5DaBCyTGjnTMtA92nX26du6SZc5pO4/JdNFAIhsfKd3ew0pyfZUdwaCC6+WmmmWYV+qkNYe5mvBeOJQmlcbZfQXl8LkSScWJptyvboYW51iRY2YXPTJryOSO01xgBpabBGDoSREpU5b6naGLT0S3UcLXT7n0cuxbim85bangyywcBQojdF3PzJM+7VzyvGW7xtiZdcppa3ZkwOrUF41ECcYsgX6oaLEfc77Z1Egoo1J1rCI9OdQBXSVIHGyE4J5r2p28nqN0p1+n31caUUnkvVK6s6LgvVNWcF15JUt3yDN/qPB0ga4U2rFb8UkBdujooHVHXZRJq+QusKpoUZZyjxKaDkf0jAZAko6YY8PuZMq472FUbq3wX7F9cK5Chx/IKMWh6klN3CO+5XrmPeZvsSIIBT/+nlORWy2eGiPDXak9cLTjKdnQk7FOzNlKFiQErjnObK4DdpIIN0dbXq9IbohLmZCu2ubKbMtyBwYnF4FLnI4Mhi4XWzYSGpxLoWVV+F5nc1iCXnINv5KvxZacELWBWBUE2T3GOlMhprb9fj9iEkkhm0ie6vbYbSvqD81XSFT7fdK8omShedJcRDIBouSnYug1z1JSPkIWQbI0n5RZlTJMT7OMJFJAYshTYuqzcjsXulGW7GaeqK06V62eiLYDYJdRl7m0CapgrVtmM5LbSLYym6HciPKoo50aiYxN6PXu6KhmSnYj3ZOdUqM261qnzl86Fj6qmgplkN/30IHsFxMWAWPbmWiz0/qwXm15bj4lkroClzyxSGEae80ZiWUQ5abjbIILV8OnRFIgB5I/HcQjhVBy97FD1hS713NPYXoGnVmfMl8UKpuO9bjvZkJlG8m2vpXZ4Mg81qDlJoeR39qzp1MaC+k5FvgGyuC6x4G1HNyV5AExrPJg9dSIHZCgEvDSR6F64lE0dRcjeeWkMj2VyeGQngCzrb1oC3N4rZa7hOnUMhmI6GXPEbpKliiwY13nUemwq5tHIimYI+QVK61SF1ixIV37krvbjBB5Pn/PjYZ2kASl5LB11gjdcyK6V6v0qwzHTYHWp1pRJW+MKR26Imrs++9y6LqWS3bAC7M+FQNQ/bQ1ASqh4y3yTil+1qMAlr0zPElMH7nZFOSZYL4HQ1ustCxZop05m74KNsSjbWqmSvKKrjZT6Ud2IFSjQda4zNjVM5/Sk4OAkl8Nb9qVINYYhByy50Y7AQV8+V5sCu6kjxu1TqFnbdq8wU17qvX7gkDBlSeFGUlnMOUMxjDAzdcsIWcw5QzA0tabHds1Iy6RnDMAaXHcqEVM1IR07fobNqU+vqx75lpm+4+hQ7keZbMhUyBZAP06kFeuyVVJpPq4OiVXYKKPguxQfD0BpGXYGgAZl6Kpq80OvGOlP6Q2m5Esa3GJr79bB9rNoehKJgLr0kabyujOOC2G0ClZxXgAuYBA5VE1tVMZcjTFn/qVFgqvl+IlJimVlB1zHKlkZRb5A1a31d0jnSUSXMCKVwIJB8yR1lsqEFzXrvrX1GbrPdRviigd3bT9DdcuTaGydeO2XwHrqqvSAhWxqJJVzFA7A+9zuJC6LVfgknzD+FsbY8U6CSRKI3gbRfp6DlVyllLysv3rmN4sA9Wh4MoupWYN9Cmws11+1VINZogrIZhm+JwefLGmQ6nQTDHvaa6M0HKQ0sgDt2zz/IL24tP1ML8yKnHgewGm72SlYF+1NP2wy7m2WKJNLbgrTVfOe4ZL1RSijeR1PvqWoYTlJBavSHav0Xox2QGH1drXSO3WLUeyqXBuA808qCsN0fogp+/hsAM7N9fRGfpUEDf0yywUWW2cyFYA2Gx1h23dyUx7X7wWmXMKqpFDRcX4BhJXBNEdX/8kI6tzVSUqBjeAhS7aQQala0BncTjGvvtJ3q9K3tY95DnniJjUo8Bq0W1gUys8iuYCK4ZKZUh3P6UCdRg5T0eZh+wbrUf2g0fno66WMqmHils/q4JZE1N0gxrSyuGTeBRNdQ0NZlENBI+/9oUGdEUWeHbQSpYD8lbrU1RTA9jStZc+IfW2ULKC7F76IJt7GQdPR8l17UueVprKfc7P2VefogOOF2UApToywFFyLdCSX32AJAw/TMCgSpDDuIqMR3EMF7A+46IGc68wcCnnWBHek3LBTVa5le+OsI/1KToZONiK3ozyOLMZSlYG8Kqn3DGug2eO5RkfNShdK6fWSw0R+ElOtqIaY0nVMbGj9SkbBRArbFLy3HWGMBMkqmjB9uTyxzFWovWpw8R4bbm9N+BPIT2tQ3xEZONSMwUBh7xxwTQPaKYhPc8YhtunMf9dUQrbGUUlvyn/b5gVYrNakq0gjtevBjFPD4BEWiZEQZ4Ug25BiwBUDSBih4GuuG243mtq7Bz5o6RvMVQWaV6S4Jw0KsxZHPmelqdaQJDn8qbqtZbI5cSgSN5O1c99ppSieE7RfbZ94fzW2DyGZM9asxWyaAej4Oi5fF/ytQAyaAofR+Tjd/jOOliM09PMPJL4tYMJ4SH3JNPdI+3BCEIZtKWuOagvR7KmLvkpG6MXukZoXgRBBbMb0EhrDgPVc+3hkgdBT3lpVSwVMVASZARVf83juZjU+tR8puTPDa584Ko4oVIqskZs2lb7Ab34QdWRm3MblONhQCbTW7F7HmQZnYczAkQoR+uqRHKHaly91jHPmp0XG7KqoPJuujGUmzrClJE8VoNWlbnu1vsRuJZE0HY5S+Zj+RTNHatxmZK1BQNcqRGLSg3fxtgDYArXhO5ITj4Pavd4/jli19II2pLfh+CiVE8lZczk0ZryVBv0FjBRIhtAgkajfdNPi3lqE2Mmz9WUszKazXapLWKuJAiVj+xV4+LHswdm8mBR9scJ6DTvGdmv1Pxl62Y5TZ7Vo2juYE35KwVIkF22ErStIBTvVlYD+8URAs5kCCj5cxoMEYr9I0kqs9nwvQOqdI5rs65kCEjfwARHEHCRFrtKWxcDQoXLjb1d3CZj5WZckT+QiK61+g+6Mp+ufcq0bm63PBHrSuZVkt+mkA6imtAeWMqrGrf+0rN5hkJGEkwZeWjQ5bJ0SCK2lb4Dg0C0QZ7tUTR3WbEYuoI9cMmbh7BTB3yXFPzOqts3ITYseWPxY3RcP+qRHQBV5gIAZVEx9Cia+vwS1y9rypNAfg7p2ZWMwSAsl+UaaBzJLoVBl8K5i6HVaoxWXrKz9QWQ6Vq+7r+RpOYcIEY3rpwxV5EIy+7h3TkUTK7iYZFFInVZbQomOcyDZvkYuoxkQQkuMJ/XXxrJP2qbot4ZNDoseI/ZthFV6XAoMLUMwJddLisJUD0gEt2UHW4MrpCusso3ZxMTmB5Fc5Uq5uPPrtyTxu4u7sF4eupM+ZmLRVAiqQZrya9aFhwrVPNCui6DOGICA+j6+qneOsmDjlihNtuRa5ab8XQCj7nabh49TyqwkjzNu4yHWomhZ49zFeZyCjgDDthkrU/htiG/peWs/dQZ8ayHfjwDXg7/4en9GsmmCuSXEkGmfFukW1WCFGP3AER9TE8cmGNnRXzue1BSdjWyVQ80cRVm12bNpWeKQ1jyRvg3dTTqCd4IHuaBGs0KTGZ4dE31f0v+JgNn7qDX2FY90CT30egCcPjUWa6SMf+z3Chd1MZbGbHCxbxhAlqlq/LmBXv3ABM88Zy6vWzbd1E3kmAhaODVwt7o2AIzCUY+7z6OCpqBrOQOXbNKdk6ug7lN9l0ISCSVDSK/Ia6tE/sTCgQlS8fSpO19btceSCWEyC+jEKGXE2FUmeCg740FacfhXVmfSQQmrSCgAiixPxFkk0kfSAd+4yiwcrzRJIaB5BuEWhterRl5o3DybsZqiMccp6rmgtUJ3Dq9/IOZk8geBfqgLTDk1nb0qml9ahpc8guED1vnC8si4K2QBULulLOOowN01lyzIvJfnep3t1pI0T1ugqt1Azl77H+SNhh5qzrDq9LAEtC1XTQ4Lgjvfp7FD4omIRYkL1Oqj6htaqGX2i5FjLIY7HFH5wLrU2e/XUr9d2sL3sKQnjC6z74YH3kPqWfLtdNLXimq/JNBVR6oWSBoWwcJiNfaXd605coWkr/R6XD+PcJZiaB+toH6bY7kX+tTMyrIK4KfdTDWH9LzDL3Mu1N9OD5+yj7doPZjjKKPH7n7k6Bi22HjxpF1KJn0orS7VB2IXtuJ3KhP+lxkeYHCH452FdanjlLHiyo27TA3Rj67BJVIEScw2Ooy+D3pSPvFtYRRse4rcpQAn+AQmt18E46sXyIpnC3k7SjhO8BljVCKKtnd91eH83GgL2p9yj39QKzgEihypsZVaAJTuMg4/bueI4d/LnnFezADyOCsHsujQPqHK3IPSt0eXXPJKa01vWMT5W5aLImitQYA/L20BVx1ConkUlTJH+X8kFf3SHYyrhvcGLzY+qMa+1HPlYr5JK98j0uKciLX/hNy7Xm3qc/lgOBlfXKvgvoAM6kCuEjMNy6lCZU7yuJpq2V9ygFMHWIK6vJVrUXeKGTekHz0CYWGa5fOHMUM8jrE9NZGEtOpo/wFDOqgStTq1HUv8jDy0VvZT8ShTnliGtzPVKrg+PAzh1speSUlY62pVDiUk0654TboqOs0f/g+fAr9SfLK9CCV2aP0mK4m1ybR9guf9UdFU40/yB9aqbcph4opCrwh/X/Kox1vdOV6E5BnDJKa/4wUpidUDn3Kt4Ez75qeRyRlS2kZ2rTEtRIa+UFQ23RWXJvjRNEhlNNTiRAo1FxLRLzogouK66HG/KxH0VwWJflNx2+hSbnHgtOlfLgA9iFv0V0vNVM+QXxOvVGI9yK4b5NWIwVRimhcc1SsTyp6GvQxW3HQjAGTIKvvARlw97R6TMv10iLPgAIXvaPEmCYntBZwV491lqPlS+tT+FnILwOLQCd5RTaAXZ1arywxHVgeRXvKStkFKTcdyhZp8kDuMCpy+PaOw2+5xgnJ38wQnWveSO0cwdVvJgsQQjyK5lJoGDfgWYBHJ3LJZ5CL7n3oaPbcmWt9KpCCrYP7XWVBIWRi/eyGXpyn2HB0ULM+FUVtSkm2O5e8ESQCBBf8aGXW6YBM0B+lenyR31UO8b5higQnG8peoEyXi2KD9alPvwEUUxykFzot9uln0Rnsh5kEhxXdudF+flbXHDdyZigu1c+s9Qo5R/fcQu9kAUrym294UyFHYqjNpZkCvbO4zfQomjv1N2UJxOvA5ETM6NGpvzsPjVa7d0VP8tQfnfo5x4L+ekQOkwRp7WZopk6HvT/JU3849dx9F/pIYldmh8oVQJmKTBwNaKxPff0b8KYp1KOhPBI+HR382qhgnO1A9WR98utD1TCLDNQc4Ze64LzeNmmY8uiac/iHwVJArgohW0jR3ahD7NmaAy6R9alQj56u05TkGUwYIUVpq1CyR/P6u5Fa5SqZWG9B/NKUpkNaHmQORpYBL7kp+bftGZhYJRfrI8911MIEwGIfOFiSlZc6tR/tIZ+uPZPvLVB9NklQbS3SLIngbnIavTB661E0VTVD/oDSzVB6pE1u3eQ0c9Nnf4arWC6R5DtVYgKf22B8PrpdFfWN2mFAdKR7rM8Y1gWWEL2OejPVAukJgstuRvdax7tVXVDgZBSVvDHiefYIdfVKEIsKrKtS6HdXtZKdZ6veaHdduVtvkSIUght8D9N/qnlK0RJJ8aohf5ibH7P3yFWfBOWF22gmk2yuqolEUj4Ath5+WV94q5CqEBa2m1bWAe3E+tSJqpcBeHugghwxljJkF8WTVooHfFTrU80yyNtoCqxmj6RTklMo1egFL9WBlMb61Jm6W93s1C3HGvr4oC3pzyGsNMc132q50h7yIIc2UqqQl2pMdMhZfCFneBTNJCmIy4yCyQdBZkjPcc/GmZ0xumdECpHUyW9A0ShIGYTGESMFstPe1DJqL67entVyhX3k19fc4YAwPjJ7IFksm9zUlp9yOKqWgx+UPBMOY36hEYSu+pEFjqgqJPPkf1p/UoaqgdQhb3OXQVpA0a6wQ8F/pQHR0TDB+pSlgqcJg9oa5FchRSvtUoBrT0fqv5JIVMgz0w0TcAQjV3KdpBFSl58Qix/1TF1RLICs2qwDzqwI8QSCZxSgKyBK8SiaKkggf6ycDopzyKSCgLWZAOt2J7gON9VzCYrE9UY5ViAPh1TdpS05qdLOcn38nXynh8S9jlVLKI2iGVD2wpa8qSM5Gbk2BOQn9Og6SifyPsfF34vxv2aOGQ7Wp2LTcenk6uBy2x9pl0CQLr4xqzVHdW+NXPsR8gDbr3Xodg0pOipXk1al7PZEUjBq5VSdeqVghjM3GlJ1LhmMcvesevRMzcMhv7ZM97QyIoXIBRSYwtJ9Q5V4MGdWksdL8opMrBVovCLMgwiCrrQgf3D40JGMSsAPY9J8TgWmEfM0FZXUYr3LXGzzvFLaFDOqznsols5omJFCqlYD95+JT0+0P3OAs8grrCRgGz0yDiVBrYdvtNBy7lE0d3NKo+MN3b3LiCAjI2iUshQ8dwfrqNanWAaQN4on2nGUQAP1XYnC3KZsT2fRBZCKRPKt6neBasAobOytGi1AQI6Z5+zP5NWJ5BfVT6ZvY6/0wAHO5N5p701SrE+9UDosZWg67dgn4vJprdRPwUM3R4fcWjkwDOTXrPDPt10jFmopqBmKTU5d3XPBp/WpIGoptqFfvJ35sxnXp2hf7YZQ2eaYKl8rR46OPETh8lBnhNzTugDC6wwa/PjhZ0VT1V3JKwbWxzvwTMc+PfeBSg4G/HQeRZNnyfTVORNl9RaypAv4HIYMuDlzRHsrmTktoBtLh1ks0r6/wJezqc8xFNK44ufUG6UFlOSu76LgOZSL0v0JE0m7myodeiavdiUPmoAiqDMjZX0JQi9Pnle6x+JrferGBDg7fcNTgN4PsSAiqs+w+6KVc7i+fm5iC3mTpr0M/doa3ABToWIxrRgOAG/Wp672TMFQrxQT5gyF0JD8UQ4YR1/EcfaTHafIr2UgRTPIHlJUSk54RZnccrRwI5Gy/HaDok+geuqK3O7BKGi7bUX707dTd/KOZwN9ogNVgeCPqHpD9VE1MVhpPIqmSKWQl4WahVGjEzv/kBm2Y2PC+e7wpztpqu5GVzCt9UZ7JNqH+XBAT6Bls/k+f85QbQxV12bbgHWEDBW0ibSdGv1SHk1nyqdukrZ184LNUK2EnymJavJV3TwTHJKw5Jkyxsop0US//xfIg+KGtRzJyU7aqc04K8Db0LRGnD/9tQqlF7DtjiH4lTpO52JCbPOf2OuUIMDXBGEekEatz8VSAB/CgbDp54gcpXNjkGKiaOnzKJqCkpE8DF3AAZ4ZaeFHcFF3rLKnDlABrc/leodcb56tXH38SIJ9itJVCwv9tuIK+E+yUHZggh139bhFqCUkuGip6Z12AI+e2dNkMoNDCfQOTe4guJnfkBv2FMlOblgXedOfV6BaQkWyc+kDkCsoPHEMRbA+45isXGDC9ArqZQm5UERlLBSA6f8cPdxanzlNiN/EJ1ycROBkEDzaLDTUmcM+aX2qio88FQ+I70A7DcR6Eu29TQ7UtPnu61mfMaVGp7E2GyRWYPTHvv5Q1rVmJ4l2ff2Z/PxkeHBs/mxt9ukJoP8e0KNv1ytdGUuK/CGprKeHxqEMfMvSwDpWXOrappYxpZJXhk8n/BgnUitB0KaCLirkjvDJSq6ih/yS0z43sW5Az3oBjj0oOx/Pl6+5iQjkgdXdwBRGeOQkCO4YbIetO+guLUnIanRD09fS6+qjhU69RGFkKHQeODDEDA7XnKp9SVP5GVhEQooOuHy21V8w5z4qmsINlPwE2XRAHh+JnhEcN0kWTYbVkeAhkfz8q+sotdFCDFLI2Qagg/6Y99BE61NXZsgv/IsStRbJnAzeWqUiHWjU5UE3RyJ59LVB96BTsIwQkIjBdUu8YDTveW5NkEh9fxq3CxwwvRJmRpSVKCNm0lOOw2H6W67+iDwfv1fa+GLxSbsaVAMKGrQPHJaq5VDZkD8dvlqpGmERNJBR9fkbDJSeQKolYz5IfYmj7ku+mPUHXNVuN+whZrSWDPnoFSd0a6esCJAIgsegjZK2Dug4SwKxIr+Hjj5j25HeKAla23SANHm597tdS7aXG+3ldyPHXaELKcotRj+DNj6XokkTdUanab9ZiOkSwb2oP9O269AzSXKMvDUC6DFDE1ASVHo4gAz95fLyo6KpLlPJ0+WgEFP+OzL+hOANdTP0Q4dz6rnqg+S77CjYtmtHOPjsJmMmNCWTdRinnrvcQ34qF5UplIOK2Ht64A8sYWes7tqiqSFd5OEMvklieuzLA7e+++YoevRMtR1I3irXutVaCb5QpaN27ht9BwCz1qf85w2hq7ypyr1EGmMQZOIZ9M3lyZt7Mm+WPCrSEcc9csTRjwsdjS9/PCnJSKbOkj8F+NytODh2ZQZyr5xZO9XnQuHCzqlKz+6em6v9iIEC9neXaW2BL+9RNOWZJD4qSHxz7sjQE4Jb9rd2yqPvV+VanyIzRX6tUQeFmdmD23QWY7qnF0/zHuuT25ResXuERZ8/uE0BwQUJuQ4HsCXrk9vU6uSXgU0c0tMm0PIypaW60tGRM6fjRiQH6jnGDIagjD6jecV3nHLWFDBkKKxqGztCtmBTtrQzrAHkmGOTJtnMkd9cJNYTAWIzhhFWU0pYbf/oUPioZs6OTgWkuwzZqFVXTFF9ga3NrV3qwApkfSoinTDR9rmgrYmET8wyFDiFwZf1jOhIIheSSh4iqLuSE4GxRhA6aCADS3P40JkDiUXeuvUKQl3w2686GrvblgNqn/Upgy952DLAzK97h3zTvMASV7aNr3BEezOHCi95nQlwFfppLeKZJEihmsnMn3wiHxVNHqfTGagfSu0j5p6ZC4XNG2xphxVdOWgb5OeydsoG7zGgJ5z3ywYV5+YgrNT6VNsO8gb84uD4Rl4oIxry9DJRHCePoqkRDeSPNmglrIzwK0gQsguuKk/zePqVvCBlxANcC66RWsSMSpD7SnkLO83hQlcOZt/A6sY06ZfW4B6V/W006sncezi1JZHC4EB+Kq2nhbVFZocRZNqJWaLuwN7U+hRIKPIG0A+3T5EZMmOYBMu2SZ1cxylXcpK84l/gF/sJ9RncaOLECKt6+klZnwr0TPGvwpLJ5dyIpCL3HAr1Rp0oz52z5WBCJF+BnwbQrIeOkwQZd2Ietziay7Q+5Zru2ZW5YSuJzOQhZ4axmGt5+rUsWbuXPJy0o59fmpl8inadJAhNmeH27NHkxAvyUJN3G/azVcSn6iyy9QA3dU8ykkRYR16GaTUm8VtITyX0tumF6b4tmgJck/yN7NvKsh1q2pFgP3uQaLtSEUuGzYzXAD1/mPyPRCUSvKHkFG57pnIsCQUv+dNpJ7zJtGKfHq7vsg8AuI5EJDmTg/yADRE4k1BAKkFtUPB5S/O4+p1sLmCmh4SpcZZCk6OIHuUh+jfAOx5VU/jVyFurFSaAGcGvlGAHDZoJwu4AXGJ9yj4xAwQezaCiHdml+wL7SImBJB0QVqxPGSjJH6ASwS4NdUFtBd1Uz2XuXS0wyckhySu2KMDWzxMZGEdw0IO+95i/tPl8VHWlbOm+4O84syjSC106S3DetwLb1/a8c1fO4PmDvdBpX46dJsgBuQfcNlx6nqQpBQoQ2FG57ZiiZ7fGJKZCMIeiJ3lbcrgtKbRaystENulhYLzAo0WPvkfRmjKkkl8LLvFCr15IUaWvE5iQVrcj0DvJIQLJm9z2oYs15O4P7KBKQ2VFi6e94CQtvuT3OjoRcqahSO8wezCYyqiexpKTNPiSP2tAlN57hOdPgtQXqyLZUz2e6SQN/rlWAVRZJ3hF+J0RHO1u7FTk7Dr0OXN/LvpfSJpmaA4PwXlfO/Z+V6g9quZmHWBxoIkUjqkS8UwS1KE32/14eIi1Pqnn6TeZ+D1BHdLzQKYD2pYDW3GXhJK7XAXvCfP8irS6I6gP3/e4kztHRCKJmnGgyA/i9KrUKZIvI6gdM/pY1VMN1fqWcaDITwaSz1k10vaG4D7KmBWODkeAr/WpSx3kl9JQwFEt4pcQPKvRec49hEfR1JUO8ovkrDMAFNulk0tA5gUdt2Q7yaGBPLAgfemnEXO/GWyjcrfP9kyxsz6pKBDYyut1ciP1GwkacN8MGJ9fUBo+qmqZmAT5PQYmZoUgVSW4K2PQChJadSmausRHfkPypi84VwgWZDNVN4bJo/Xm4PpgfSZ+Qh5Y+jNpX4u8U0hG5C6s39h8Dm+PREpVBvH0RjsZXoQ/RYLKs6B5Aeb2vdLI+kyoJ3kF9wuIvBriy0Sw64UORc7LwfXA+qSi2O2KiWqR4BnBAXJJG2V2x4Gqudqt5Af8s3dDaKRbB8Ex6HmDIcbhR7U+qeisDU6yYiPG7YnosDLaxmW4VE1hbEme0VRQy7pFBoURlMWXeaMFdXgMf82lJBueFzkpEFesRN+qAXBre9pqnsZHJDLB/q4314MCNyb+Y3t1z363PXKyPIqmSg8bZplq/UYbjlQcEZyYjFaG+cxUarJxN7ka5kV3XSHMdwQnmMHKvY6jF4b1SUWrbA2j4rNaqDUfUe3QMr+KeR5VU8Pikpc1hVxgzWMRv89A5a5Mmf5SB/qoaKpPU/K9cY+4rIR4sxCcslI3eYrH9Lcce8ZmABOCl6MEJRRJQdqjAFpJosIw1y5N9RdJXmqasksQZyMR/03yUxbzZp7yPeuTitKufsaeAKyFFF3gcFfwXx0zTqxPKkqznV5m08GInXqb3AzMgbvwvdOcd2rXhitXvxIiwpCqm8FG5bRHe8Cnas4/QWQEwwD0jj00QYIoMyf9jqZcRyrnofqlCLPdKCEjlJlKcJZd+1TY6ID830nOpH3Pp3JTt4tFAAsRHLvrUwzIYT2KpqgdJd+qjtS6cQlCejadw9UH5CuOo99zqHWSB0qXW+SxI20RCCoxIZut7+UcVqcyva4ECjZfWdMZYZ9GEOKiBru6xzn1HMWL5Gfp+lUDDxU58p0Cfq+VG4Lm+vCpeg7yQFRrh2oDRLxovxalvFpulGKPoqmeLeQP8J13A2zsjRqtG6Xw7T1MiUgkVbVDc6heDgMaMWWpjH9Bax6Xe0oSZiHPfFvVbquRkQcJAlpWbBjwVx5FT1JReewCzfUJpXkwddUJ0sov11gf9By5CTfkbTBW1Wk1Cila4QRT+K1UtnkUTc1mIL/26gtKv8gkAYKK8mGrJU7wKJrqL9s/qMRA8Ywp2gBgBkr7eLLRkSw/SR7qk9bv+eSQon0rRtjMx/k+fWqqGXkYRSiSttDVLtRngNdARORArdsjB7KD/FAyovQC3MKQotMokXYmMxzuaVwpk88ANYiKitNbZGYQwQW4qc6hB/5T61PufuAMb0Y+xc+xHco32IDAbQf3HOtTqQiEbgZbLK3rsQ+/MWfDoHB3RHpan4qcx3UK31yesEQmXRDsALzr87sivZGbdNlMejOVvMiYI45+gsg2gaKHovhd0ZkskEn+gOJHgfQHOKJP0Xu6Sel9W44vP3OsCcjr602ob2YEAEyCcGpaOZsbDI+iqW69fRPkAVWl9DyCqyXBLql6I584uNBZn3L0kpdxgt6lx8rNEjwK7jqXAo752z2T/pNZ9kpbBJiTMUXHBjT/NEbcPIrm/KfkB/NiAyKRmKJTOwZs4jW7S9HkmV9Kzvo4VI5iei5FobNwBh3IJaxP+aVJDQ+EwZsfPKQohokbgenBpt3JiXvJ7wKuOP2WoVqzBBkhoOQEfLYjs5s5qgzkb/qQuWZtMYPPeJNibi7KHEHeTKagkt913ia/hHYplIrK7WQxlIs6DOlK5qAwMW4qHEb/TUzRY6uRMg0HPoDWpzrekdcfz2G/OBifnrALr6OTb8Nx7IETyOkJIPHBRM1QlLfwva0OCBPM9UKT77MrUjy9r9Ij0JQIKmGiQtWaJ75fyTLjDWMw6c4OYZIiB50H38Ic1FisT0XNEFvKgQLU3kIlEQm2rT2qk+S6cU4yYiK/p06utloL3Y8BnjBqZwDzOHBzWZ+0TQp9SSVlZSJYnwjSMdtb/WXM8KOiKbAF5EH4bUT5QUVtKwFlfOu4ACwksZPmafMB9QvrDtp72KjrAUdmLo+zX6kZAsQVW1ALh7Q5pCkU37XtWqsn0NP6VPwEMITNw8FYEVcvOb1J5cuMnTjiPEtmy3ZnyyB+9tAUngRr3ftsGgsd392S2bLkjZoIDNgRLkwJgq0zKvhfjgkn1qeOveTlCSswvyHPJDkln9w3NtcNmV09deYhbdXehCXDQg16BmtFg2FjmqedzJKu3hiexmRTtQ3pORTJMN7UmoMFl/XJE3+P/8wbQjPWqCHRzpWVwUzqiO8t6ewB2tALtUk/aeS62S7A1CYMissTlVjS2YPUsZhNBLkkZp3W6fq/0kb3uKUkAy7yw6wVqz3UTCY5CcKgt6tjrFHrk3t0t92Wol/uR0N3ZECCTB37DQ+ET9OkqqcAKd0WKocUBTS3LoWzw1NjsuTsiOT3xg3u00ITg2CRgCWwtQWWQ9GdzOo3WX3fE1sausyToAJRBXlDdtgDmb2T6CXIM4ulQ0HvakhVwgSoHJbLQO0UWhXiCknW0i5dkYl7BGdvTUko9RSXnqnTBFQKgC5KnSw0KwphcruHzZZ5hsa0PnWabp7ldta5PVRIUcV4E2b2razLY/MlkTxPNJCCPqQcLxKSSpDueACsi29UeCfv8fd9j28UwceIvVXaCOFLrj8L058VTQV7+pl8PTAWe7bYPl069p332YcHEAaJ1NXOpqMMiuYjaxM7+woU2OGlu1K8/X1g9F/+8Mdbz68Vg0G0vwo9ynz/myFCLxQX9eVvbUa//NUeNGyfJNunl9K/qxn4CG+qPn53r7LfN9tHZV8395uyD6fJqerDAf6s6pvBeFP10UY5lX0wjB+VfTXEr8o+2X6nsg8O56Oyrw7uTdkHj+pV9bsT/6jqa9DwpupDlOJU9SEw+qxqUtOHuM+p6UOo+VHT19D2TdXHaNqp7EMI/1HZ15ThVdnvOYpL1ce06IOqjjTss6qPeZ9X1e+p5kdVX1PbN1Ufcmmnqo8J/Gdlk7o+3FA4df1+J/JR0dcrmDdNH+58nJo+XDN9VPX1WutV1e/3aE5VH67uPqr6elX4purD3aRX1acL0Y/Kvl7Bvin7cOfrVPb7LfNHTV8vtd80fbhFd2r6cHH/WdVcKPhYmXCq+r0W8lHT19LLq6bfaz1OTR/KSx9VfS1nvan6vXzm1PShYPdR09cC4ZumDxVJr6rfaqAfNHWUXD9r+ljjdWn6WFb+rGpS08e6uVPXh2L9R11fmwPelH3sR3Aq+9AE8VHZ16aLN2Ufujycqj40lnxUNRkEPHbOOFV9aNb5qGoyCHjsRvKq+r0B6qOqrw1Xb6o+dHg5Vf3eU/ZR02QI8Ngz59T0oU3vs6pJTR+6EJ2aPjQ+ftT0tdHyTdWHzk6nqt97ST9q+tq6+qbpQ6+sU9OH9tyPqiZvAR77j12qPrY8f1DV0WL9WdXHnm6nqg9t5B9VfW1bf1P1sVPeq+z39vyPyr6OA7wp+zB/4FT1YeTho6qvIxZvqj7MdDhVfRgj+axqUtOHKRmnpg+DOR81TdYDHiePnKo+DDt9VPV1uOpN1YdpLqeqDwNkH1V9HVh7VfX7hJxT1YehvI+qvg4Bvqn6MHXoVPVh0PGjqsnc+mmQ06npw+joR02TufXjbKxX1e/juB9UdYz/flb1cd7YperjiPNHVZPX648z3E5VH8bGP6r6Oqb+purDXLxT1YdR/M+qJjV9QBpwavoAbvBR09yhesRucGr6ABfxUdOkV33Ew3Cq+gDB8VHVpFd9xBhxqvoAa/JR1VcYlTdVH3BbnKo+QMV8VDV5Y/2IheNU9QF+56Oqr3A/r6p+xxdyqvoAafRR1WS++ojZ5FL1CSXqg6YOUKrPmj6iYDk1fQDe+qjqK9DXm6qP2GJOZR8hzT6q+wqi9qbuI26bU90HsLiPyr6C070p+4CG51T1AYDvo6qvgH9vqj4gDHpV/Q5q+FHV5FXwI2qjU9UHoMiPqr4CU76p+g0H06noA/DmR0WTLWGPyKJOVb9jmX7U9BU69U3TB6xWp6YP8LAfVX2Fo31TtXzHv3Wq+gC5+0FVB8TvZ1UfMYVdqv4dIOOPyr5CJ78p+4jW7FT3ASL6o7LJVPDvoGA7lX2A3v6obPKO9RFb3KnqA5z5R1WTTdePeO1OVR8g4j+q+gpJ/6bqAwa+U9UH2P2PqiaLl4+8Ak5VH6gMPqr6Sp3wpmr7ztXgVLV9p4f4qOorHcWbqg/8F05VH0k3Pir7SvPxpuwDr4hT2Qcqkw+qOqhTPqv6yNXiUvWRHuajqkmf9ch/41T1gXLno6pJj/V3WIWcyj6SGX1U95U+6U3dR8Ymp7oPNFEflX2lpXpT9oEHy6nqI/nWR2WTbbeP/GJOZR8ozT6q+kqh9qbqA2ebU9UHmriPqr7S0r2p+sCD51T1gXrvo6qvVH9vqj5wCzpVfaAz/KhqsuT2dxgbXco+0kR+UNZBS/lZ2UceTKeqj+SbH5VNXhA+8os6lX2gNP2o6iuF6puqj6ytTmUfqGI/KpvsE33kwnWq+kC/+1HVV7rfN1W/0ws7NX0gNP6o6SuB8pumD4zNTlUfSKI/qposZz2yYDtVfSDe/qhqy6r6wCzuVPWBzPyjqq/k6W+qPvK1O5V9IIn/pGxGUzvyIjRPKw8J3bgh2GnbNXkBRzcD65OK7nkYvupcSMc01bYh49l6q+9RgNbnUhceMMvmrXb6/SJRALLaq4VGcW0gj7K5xIUHjHYPNpcWGsFEskw6DHZbDgeg9bnqEA/gbrcwTBmawJLk0K45VdFDd4TXrE/FVjxApopu1vpbhMY3TYkdO3dK+7fc9M+a9lS0wgNq14lqU7suUh6SZLO1TVGZEoJ3q8r6VADAA0qXEZDB+QZ/+KYqQByty6ZWB2IA61MRgB6gPFDKVu2538JhvakK2IQ8aj3fICWfVS0pt2r7OtTe95C6MQMgyTFboU/YMy3I+pRb1QO2ldNq544lqOrueNVOM7RL1ZxVBSLn6Fhpr1qoSQTJpncqBwI0gkfTpAMA5Mamgn+mqWMgN8jWAnTMnMcxMK71SRewaRBog4vI8ltGuDdVh34mC3D2cMy1sD7nAjZD3+tUbYIW81agxtDMNGgxdhjWnfUBYL+cvftu1kNJgCSbKR8fw77jXj+rmutp0wPkxHWmZBvPDhlWSSpUnUsKl/aNpv5Z2Rwaix5Q9EqXjV5+dvw5lS16p0PO9TsF+LOqJWdaQUgBVImB0VBfK5JKq/YZpwxPGGDJIgYPmGPQSNe+IeG+qbrrAoWhWP8tccyzqrnBJh6g3HrUOw0MBVeSLHVqqy5zxYGW7BLjAW18lQZ7CD7MQA1ZbbXDwfJoOnPWCuiP0xpls95CYaBdslNGcgUWi0fV3EWQgeShtznaYsQ5ulkVj+lY9fNLCPFR2dxVkB6g/+h3rrlW6IINSXmsre1jjjImy5OKVoUd9GDvEt2qVcFVmwW0CYcHsGTzFQ8Yg9bk3b8x8L2pWoryHEnOPhxx4ErO4PAAhSsM4FWL7dR1baWB+snSGsf3X8liAA8oRNf7HsWKqXq33TIU2X5LDPysag4ywoCMqFP+inmRUAggyQnuZN2leXJWEB+SqjJIITWLfFXQWC2uZqxhParnYK1kNxMP0O/Sqep2fkQdTlVHHQeELMWCjhu2lawK84CuXwV6UKuR+qUkG8iRilnIIzyqtlwQAELCouWfjr/gwarKAkdRFFg8AetKTowYCAeKrM+kwh9KBBY3LNZOASDHtVeTNyxTphkcWODYQu5Kgtwh2FC263inM3nFPi8qgYrkTNY89Eol+ZVcKSb3FAOyiAE8gEGB0VfdobKlgQCgyAFjVfc3AqRnZVfOXU2weNrkSK2Yu2KGv9NbqJ85phtZn3NXU3b5BiqrFkxYmMRnfI/u4t9ySD6rOnLual5dp8KM2a/vdBNvynZuZ9fmLtGja65LlAeMrSPCUHUsZZFk2YohGeDx7YBctw0PkAWYrVWLVVklWTabnMZ2j6K5OTwecMN+VMUqofF2G9dR9KecXB9lOOJVrc85gHEpPt42787LmKa735N4be3j8AAjeW19T4wz+E+/XazpElltcMVW1jz31iMJzs4DutYcfmUIiUWS85QbOFTOw4Nzi0TOBegBxYAQVhr4W1KkN2XHWgCl027nmWyx7DS2MY1Nbb8TdwaVVb5CyZsu2OZRNeeuBt33ZVqjZy64B2QB2p70tB+Xpkm7qgf0uxO1LpshzzoU6ZZxw7hY377tWrLbtRQgdejuiiWCXbaVGySFEHt7RgWQyG1XhpWL9qqhcygW7JhX0E5R2eEIetK8dplX5at7dxnY0B6QpI4/qDyteHKWnrWueoDiQL2e0UMjWBKccqqryV55wMNYn4sDukLWow8/FXbEGhgkOem22WAkul5qMmRlkpf7PJCufss89aZqbyAdM43paLbT+mTEyihut00bUqyBpQOTrDBn9lkdSKdaX3N3FvdArczjOv2E5gMkqT8bdAbN6mm10Pqcu2rX2Yt7J5vfeEY/qypJDqLsBrBc76q25FUAw63WobyoLXZvLUml5dXuMr1LU8tZKsZTdYKJWoOOtV0KG2yWI0UdoKysz5kqxk3tTHkbZfMtpipIx3DJgHHhUTUHHqQHoGQ/YCuGLBXDoqPq+9sE0cMRALTsBaseIOevgH4pGwhl14x/QpMx9F0cmEyszwVWekBZpYAeU0KTV5JUvNo6jaxWPCgnSOQCqwa0ztq7QYEV3AQ0vy/GYod9I0x7UjY7hckDRlPEaX3NHUxdmavcgFzIGIzhUzdZwmKesmwA+uhniaor8zGZcdWGcNitmiQ/0QOA12TgC+K2mKpyWmeB0+xpuqrJeXweMOaoVvQfveBQ6lJBE9/aRXQJuvZAskNMD6itnG10e4bcQYXgY9rUtm2e7LVmewOYNyRw5WYoZrcYNOxQkcAp4vIHNTnozgOGUhDFoEQFMWXLufFOynL1stRsol0Bvwa/vvafHSkuVRn/A9br9tHvmpZsll2ureS19VW5jIxpSplWTo9Q22GuSnb+Qg8Ypc2hNxMbGJUk2IxbrxVMSY+qydIQ43fEdQC1Rb+/gggCrTocGM0szwWEDNFtuqflAmJBVmEWoo+qIPs0V+RSshGhHtABKhgj2n7NPJyV1pRT0tToerPJsYZyMSPAWGOPgZ8iORkvO2f8BHj9qGp2DxS5nDKb/i/WISbJ2vVvA+XVswfWSfYz8QBojIg/RyhokeSmIV4Ri4Lt93sB1qfuBfQA293u+f9QPxuC3WTsmOF1JNtan4Nm4gGcqt7BMI1pyjy0bABNMC5NcxUXHlDg22n7bmsOboBBWYArEA/YCetTB0sP6Eq05c4BWQq+1964GFbG45kX1PocRh8PkIVsypeVvkSslSQrlXpZEOVoLguQaxHSA74ARYt+bWgMG0n5LAAn9nZkWMlDxRzVXROA0Tv09SVZIMRWXHYc2AZan6MV4QEyNZUmwRWqC0jSFpSUTQ/wvFKtz50pyM5tHXpDusU6WpFlJhYQuekAaVzZuSYe0Ki2gtYf1BQQuaF9U/d2OdadbGpfN6m10XZ3j36HLCv81FwMwp/l2wW5OgYPGBirSR9t5HZ4MWmkmKzUPbm1fY8Ekcj5LD2gACw+DOaVmLIKybZZrewhj6q5eaFl1wFIbo+ivRebcUcW6OR+U2E4lLWs1WLuh3GBM2u32MyQZE12pBcgRMwRDGaZhvUAqNtvrOYa81qM8PTKJCepoUfVHI4YD2hWaU0sIwQwvpjEkWfWa5UdqB6zlZ3F0QOYb5SbPWPEdyyJxJTGdZvLFljWcN0zNY1ku/QQ27Ak6wa2WynBdIDLsj4XZ8Eaq+TuLviF+oXWPR6zaunEaJ5ukVxXw1qKtAyuoKG0IJgUrAuYxj7NuuPKdWWHXHhAoYx6Cji4MU3lYsEXr2V1z6QrEkldqWozlIWZjem6iCTnqac6WnBWlm2UBygr0Ge8gXdjqiorVKptXLc4PMHKZoVLWSHNFBMyltC5kmRtlOCPDqUjgc0OjvCAyozTARcw+FbrmtyzrLYdw4Osz/lXCC4XhwPemFAKA1OlRMCRqMdhWGf2CksPoF2o61efmA+APxK6cYUCjjE3lude6lSUdBQR1lYtdjEkSWix9WLP8VxhzWRnGw+AaEQ/YFAh5gOYx6iVuUwaTjyWVRLZNzuMAcIKjVNQ2dEAzAJG2VF3WTPJM8ED+PwG52yIb2jdhIPwq5/xM9j5qGrLvlXl2YsJYvn0kGm9+f9WGyB0eILseZXsW5W5AbBAHnJbbL9CzCd/ZZPxc4fLyk46LCYd4GEorcTMAOR4AAjU5iLI1vpc2xgPYHhk37lAbHxoQVe3FQVOK54eN9ZnX+uEHbOAYBoKBSGRWxOAn72bS9McLQ4PqJOmQUi5gxH2ULwDxu8i5HVELVqfC7B+MLLdVIcxVSEsnXsA0OIIBUayy5UHkAtSfbcdirAZBthzF1J0h2kd2ZshaMvWPVxTQ4iSCMqzzkpC6Cm7ZUnHeEChyV3x3InV3Wjkr8A7tX48WWtP5lf9WkDCAhCvxOWEeocXLF4yHp2OseY4Vj1beqMjXzFAgTw0BCeF5GAH9LLndNwM9iTTCA+QHa+VpsEQSNeC7MrgR+xluHZArktgQVkFjydThCGiESQVVOlo6cd/++FnVXOgJzygUc2Ekj1EOLcak/LNZl9cJ72r2rLxSrtukhkF13KQQVUhxBjw4rTZSnGEgtlWdx5QJ4AAG5TwmLaL6YEBJvkqxUHmh0jOEdzcSLuChd5h4Qgdr3bdNKkDpA4Hkc+C3SipLYWXzWXbkP2JJQXtAo1qdoaQPCa25eYeJa+wBcKRU2PskwsWoVpbO3eNwaNp8nK4MRVOTcKGhVjokezNFKLfUC3vqtbr5OwWdDzWOiiRNcSJIUn99bCxszvaBlmeM1t0gG+ZggaWUcjDQo0za7tZgQHRc2zWmoSW4wFF6Yd+YZ+xy8EqEwLEdF/mmdBifVJTGRxZdKIsgKJC+1U/PPMs+vg83GPrxx/917VtMgBLcdYq1YIGlr7sKZ/QoNVxaZujzOQBbSu5l/taFnJe9UbTnyC3elAQWJ87XvRWm8FvJO8VymEkWWnIlgepDsYZrU+WtvUAiIOgx2k9tAHgOWnwZQ5rBAaO41WSaQxsJWMyrM1FX/B4FVAbplQ2umQ8yuYGi/WAsSlp6lOOEIY3kgpd1lk4WseGLdmbVz1AcUBlwYwlh+WSd12Ay8gjdJc/kEguMKRt2egebPKXO5jNSrg0SHfJg5dz2+amNOa5yLwh87BaIu4WSfJLRT/yX++bVut3ysrygHaImZXuhVqIJAmv2x6nAFjsUTXX6KIHLEb1wMWJdZMjSRWmrA2yomcPSCRXN+YBpbahmOnEMkVJgodQFazZcfB9a33uUoMH6EDPA31m6Kpg0h2sbA1jUI/3xeYQvfUAZl8gdgLwOKZtpTKm7SpX4tqxOXo3HlCoFhTgg0OHixZfUi7TfzsuDLU+B5LNA2Rapa18UAh3VJK2O5D+pXlaCVmf2wD7goGonrnpgI2pKr81B5zGnnEtrU8aAT1AXksLAOSLuC1JDmoFU6HPtPe6sdYnjcDdabtASLZYkVuSMgJ7HXDVHCMFM4vprwfUpQMFZMwMlbeQrJ3tqtfqAJ3T+qQF0AMU2DeasoaFLIBBlgJPwnLxps4sTD4PUHK3Fbjsn+/GqaoZzVyze4aKZrbjdYJdDzkXxCchdEQklRrC7nk8XKQziz2vBwzaR6FPLqGKIZI6j3vtbo424mnJEUge8IXgQzQX/PwN6C96OX/a44+q5vIBPaCCHFzJmEJXhJPOU6MKZ2UUGpA82pZUWjjXdTbUXmDIhlrJ542wPtrYigVn95QMJLJTmSEPqJTU74pKKBakixQaO+WE5ughm8keUsmvUUwbjwpSKGJZ19yADpalLdCPoysHkZzPohmUFjuASGM2i7bQOsDYrttxTaj1OXafCYo4bM3wswTfK/NvWtWKBxRF63NXhDwAlJEuyzWZLAo5WPo66ei02jwtGazPma15gedqY2zaQCKqTvn21hVgKUDzxK0zOWCsB8jpANCtbxlqekaSASjubX/SA35UNVcs4AGlKW0B3qaO2B2hhCfIH9xoDY95nUkaAh7QKMScyRheTFU5121KfZdnnoD12e2K01Gq1WrwndYDs0t3oHqzOOddaZfUz5h72DVYgUEYwkXrIAM7gqyRpFDnAQUKErBHQ3U4Se7R+9RPZ/NcDI4kYj4P4M6UIGmFmjIm3Y7GpJ4VDwsF63M7dVwgXitROr2GYPIkebOQKdrZjpoWy3N2dVzwCCz4r0afwd1K+2KHGgQ+mua6bBtJ/Dk9gMNsY4MnHApbwC+ecnaAzshieULtkWwk4gHAeup09Rjn86QJ0e5uWTq131XtObzMeSMJQyzZ6wmN8EvS5DlqPRQuhyt47dmEu+tEF/3LbIKbGouzJKyNbqWRVLi0zdXh9ID7JmpT1rBgHxHCrXIFOmWlHW62Xz3nEvQAoG5ukpEQUtqkRbDODv7+cfBpz54Nt/t1E7jLudcQGrUEywJijQt7R8UwmWqBfVtrp12hxILXBjI4cBW/4Ot9ULMl23L0AFPwStvjaLGbbElyILdtRdmOQ5WFotUDFNLL7wDFUoOleIQrgPug1nluCFsSKVEP0M90hO8Z/OAW4G6Yvnbz1N5aEh6HB1RFdAXcqZiDbdyCKYuQA7HuiAjbVXI+6+6vW4Ck2AkN68x6HS4v5qq2HONarM9FhFXR8oG/HWDGFXQBVaEzF8QG249L22RBi4a5Bb6Bou3YzTudclMJDBdL87huCGvWvVbaXJQvb4MCPKbtgD+JrV490WvN+tZ6tbPnAOpk9dDVK91uMIbfExSOPDbb7cYDqhJ8ZVxzh3qJJ5iiMFLIiPw8lh9ULUnkZB7QmBPW0TohwJFJ95oVgPdpPvKounN2AGTP3kA3mTM0ES9J+J4IsHiAK9kqyam9CUSnjUph4pwT9LHlAq6mERFAA+zJt0o2naUPTerKAikMCZ0vSRK8dFCCHc15Wp9MZIsO6KBJhW7LGvQI5Z7h3QB5lNE80xASyVWOBz1k/ErliGe2UOEI2T5gVjJFBu9vd5xk1YgHFJqy2m6xjSBJID4P1qSe40lnJbJStpYHKMfb9JhbiAp0gDK5+9lWXPxqrE9qivWhxGVlxFDfx7kvjMtNrFPfrQHrU8ZWD6CA3G2AzlBjtwQDsMei5FAZgqcyz/qUsdUDCojPZZR2Qk1vY1/0eTMmL4WXJ+hCJGVpB0CMzEPgdEM+F0kgw/WXnY7qoZZbKjwcdGcBTDunkoXQFqA7qyxuNgnXPKrmmjP0gLFpWdkGymhshAvhSldf3X04MkWtzwWzA2hDbVuQumL4xEgqLqjUDrajl2Ts5PD5uHEJD7XOr/bH4Dag339R8TRH+WBYEjWHB4Dv0tu5B/pC7suUaA6TcbavaUmXvrnKDA+oGAPAG0uspUSyS8mC9sJay1H01vocwQYPaF1J6obROljxkLCcXm/t4FCKZ9hAIrk+SB7QlUwv6Ct2iQWKg1aoyUigUgff3s05MbuUNOo3ziXjHrk9kmSxykC6dpLjkoP1uegAKL3WaWmvwBSGGiAGbU02pQXsB8PRDolEVl/jYG/tvhlqMpPkgmVlFqJhl6q5vFEPYMxJqo4CGXfINyz5QFPWqYimOxIx1meVpYo9IVOOoegM+pLqUbpAIal5VM31GQ+g5io9ZvPGBY+5sXWVI6s3ZKoPc7cO27WSfIFjwvFSblS1Fr1AGDQZKYfr4HB4dkK2yWiAAbdvNHKFiiHjJcnyhaMAH5LL685kAWQA5cZkuo7YCXVyI8kf03i+HUzXWj+yqlK7lPvS/+4tuG8lrD9U+raLh4JrzCRQyQBabVYwvhmSCG/aqrO5tv66xWNrsyzyA4S0JUWVVN9EKqHwYABk3eSwYRxzRF80/SS1NaPhEI71OoM7AcSzSqQJZYxj347sERvUGAutfGOFSCSRrMAbKI87Dl5GrU8eMRp55G/7DtJdIlgZD16TDmTPNa1EkicMLnL7gv7gejm6C6qO2FyQNC+frR3ZQ9Z1yHRAdlvtbz/zKdtvpPjST4Hb03Wb2LNnjIacSW6zlKaEAhpJlr1wDTT5e1RNHrCuAzbKrkS2LWS5OvA6cDis4brt6NkDdlNfM7i/joXaYpAsYwAdsruDk29kkbYGjNSMe/cehIdFstStn9Pc7bCwWULp0RQgrtlKt7ZD3MeS3IeeXhBAqqsEgkhWW1sNwJI2LdQbIckFd0NtexWPidX6rKpzngKFZKyvV4LjKybYzTM8x/qW1LRPpgphJhgh40qvyxoNUiarDnPVkqC7Ayyps7lhpQ09eD8LjpRCgsX1LPVQ14ZN3nHAKTyUoMqgjxCR6AAQiqKUNlH1FJZq9nqDphUltbUFx7wG3L6F1rp9ugMlmvVJReddJZ57zKimkAcqGoDxzDOQhERS195WvZvmawi4Sj+UjQMRv24HbtXIUt7ygKogqc+oZaXbRK90A8pk01X8KkmcNR4Ab6l8lvVYVbFcXz3WoJo7vn9JAi7yAL2bpeizlhAinCRXp9bLtZin+FWS0ATj7hfhkmCWWkM1BNCKtFnv7rjucK4lW/mCY/WmLa7lhIamkKxLn55KFNNBLm1zpFx6QKER4qwByEBM26I/nF3nqjcXVFE/10mZLD1gM/Ddyqk7BFUkSYD2zpK/Gg4sBdanYiw9gHlNpZf6nCHYB0nOzcEEfHkPT/CKSCp46TeKD4U65n0jpkCSXfaDgiQ0Dh5Vc40b/dzQfmW33Uao/1SSkCKYLEGz8h62aH2uB5kHNLoHt5x6qNGo7+sokKggSnbH3ZvW55C1eECFMaA2WyFAhU4PRq1lgKlQ3kOsvpMUJ3rAPLyddsDziqk6m0SoPkIp6zFZO9nc3+GTXHctcY4T3AO9yuOtRb5endrmbgf0AFkruXRcQig1RBJaDNk6HczuKHr2nbwf6LA00uNY2yohJHZJfvXMz+O62mZ9zr6aDskEzfYouwvO/nc4E4l97SbCdaQGSCTVldlpfcgXQNEVqnJ0+iA2oyxVuVfxXBr3bB8ED6h3NNpn7FpTkgq5uzY8MHbb93JrzoCB68KFz+yzzBGryiDcAJvW2+WoOlKavpKD4HrA3n3o94JvG1GWvgb9S4FQ1Sv2GIWV7OjTAxj60bleZAsxZem8L0PJQncM1LE+ZxQWqGnwV515QpjBkuymBFxhBTQUHlVzlpbmhEYXMbMwMUXrlK+GTOo0V0rTVzbqAvpk6MUwXh/KFftkFpOWeUZxHQHiTHai6wFM0AC3NPcMqmpytLT18lf1qLpSiWKno2Ad4LRpJw718SFb5Pmm9AVdzBPJzOS0hx7QpXDjWvWEEE0l2UCvUEKzPKSdrM9lNPNi9gE2mTWiXYcSLgvgPf1lldx4TOxIjlTxAAgN4QVZJdYW1W9kkD1tQoW2PO42y4WmB6yz7vHIReNZaOfCbaZwjSuHXounRCuRXKN3h6WMUsCmYTam7Ch17xswlLjCYWzH1XPHDMyOAXB5P63HyMclW/cNOHmY0XSZBer7SX31IbHy2rq/AlK4FP6Bu9H7qK5YsWfzcli8Tm84s1FDgWK/lDTI7NL34UC46z2JbaUHgBRTm4KE0UORV6chZhHVnjWc7zVXse8gYTR5hr52DOu2Q4212T2LK36Pqkn3AMPVpmO/22zBSaUOmAWuF86x4UrLW9Y96AGV22SaO0Ocrp0a/MGKnP6j2PtRU8vt2HYppNUZgTkstgmgjxqtym7B7O1RNTfH3gGZ6Nxb2emxcKZdEtiDyYTmeqnJ+9kGrmKzVunhazFNFbFrow+ligAkOpxtFiaCB1BbXJXhutAWqNfRkQQMRb5WUZvDFNQkH0oH7AGbDg0tsVfIIUi4gOlIn8H0oDRLItdo0mE4MgUGQ/7LVjCyBbpB4cygvgQ3vSMhq0lS+s4PlaWupVNtMxbO1DsUqvoxbageZXMoDDwAU0nfGQCWQWW/MDi49Z/dVWQq18kFtuXCjYEENmG4iBmHQgGv9D5hGSiu41aSSGL9ZvRhJPl07YlYokPJm5TsLJmI4QES6iWJ18kDKlOTsw4avkOtsxLufZcBZcn+JcH/qG/LmbMb5mCAI6KIKpqmQ5Vjit4azD4urjeJ5CoO7egIDB06JgBC26EBWmBlNWrlWO53bRFJKmv6r692tOgMm4RB8lccL/vrwGnR+pnK0vWAcRhg0uG+bxYi9RyEFXK2sZmLPsVR0pFIT0VkekCjfZ8Cba3B0csGgMDd/w8yonmsAyJJfUuzSkt0LZGD1m52lwkWzteFz3sQKZHcxageYHCNErCsEOIkknK/bPkNWMJ7lCOJXKN6g3ilQAF6yNNiduGe6i/wAsNJ4SnnIJLbCfuiAUIBWZ83Ll/oqFFi3vrpGpBsOndDrmCmBwAWdZiS6KGbBSTruFk05tqOvWDJDiU9ADZ6pT9Gp/wJYRE3qEmOdauTPhyPtrn3atxuLtIBmYRfYiqnspPmJtBy2xiunWvXyCrcaY2aytqhbYi+XWgkx5zQak1HgCOJ3Exug/ujgJY3b8znUMTbfgy92/RMsbSVvLjhARXij7H/CwHDujYY0U2bvhCOOVzwSt7f6AEKsU+rZ93H+4T2L+VexZ31Ju51zYi0bMVXDxh0cJS6K/RDsf27rg6usSJQkNM8+3cl8T55gIKbG0G3cvUYfMHgkIGxpIDOuyNys3iNmfI259x/bUoNubZJm4OC+7Kn6QV7YvSZjNEp43aKjYXfG7vQaUyJdyh3Cji3nnqPRHKN2HqA4hXlh/LEk0am0A6WMFwrh8uc4rmMlkTPnTgGvjuwmPO+SQqlxBKuoIAr1AH02FOgkkgOFZ4HFNB55JfrCm3fcR2luFDNyao5oofsvLYeoLC1A+jSY8MukgTWEHYIG0TMjhc7ci1tkpeR34egITTr0Ji+VkA3mXmj4cr1ZnMzBHpAYwTazl6bfpSQJ4YFgYmXpVS4uWbJEMkdM8qqROdQKISOGCVVWhsbt3rtp8H+oGzPJpddyWWf63whjMUKagjXNgyyu+FjaJZI7hpdD5iKVwd3IztEciXJocCoMD872QseZXOtmDzghrEGRgQs2uDbbVBa0Gmog+opAUkkR8rTbrz/fWRx2w7xcLR2ASWrrTuhZ/PcSSOSUrZdEAcpJzAD1DEWkTVaAhQXKZVus7rebkv2jTWg+Jk4L33ImgUjsqZoA2iXsqYWuULIlr0daRcgpssIcWJXI41YA67n0jy9rq0lkQv1AG0B0NS467dgwlaVLppyPciEWnX5NYnk3ESFtdUUtXaGR4PRWL0YNTs3XhS3FS6Fc7MmeoBSCcDjy6TMENsPEiYfLrSmm4u/s9XkwHzjh3YjH7RxWkzbhpdheGObq54ikeTFXlW0fAa95Z10OKqw8iWY4Hvfv+Z6HxQu2Q3MiK6yrQLfwlhB81u0gWW2IXF0WN6S3bvlmkdJZa+0jQT7hhAuW0d0zsaMjaP43rIA7XrA3VZXWl01ds0L4PqmAARlaXGVU0qy+q4HaBfMA81hDZElI1lo3QbjHaS+d0NWT3Lj6gHauFthb6kWApCWpHYtjKL6n+a5NpVEbudWJmBl58H9MUoUkVsRhAFwvUdSd/XpmzO6egCl8z4NBMWIE67n7hkZDaSr5kF9kETO5uoBZc+9631JdmJ1S4TZQH0wv+dCE687u3X3xfxss8JsYY/Zscp06gYxecm1zZ8e5qPCuUZYPQB8boIrSNFj2o4DD1gZdRUPcmzNFgMrxUC6XPpQyBCMISvFQG4pDpRAroSiZuG69QD9GT602uyxppxqSthsVqXuW+LHgV2DSEpdI2EzApUzQ+PqkjQavzf73sE/Uy2ZqukBMvLczZpeTYtFY5XanhJh/bSe5rMM2alPHgD9zN32MXdw79oF6rUx49Om46RZ8p5BD9CfntpX3wrPY7lEZYZzguHfegH6/V3flRw90APsKOdRvmV7BZtNES6SgtdwOOC3ahZWusJ5T5jSrcfGZiQ5ZlU6ih929G1Whi+TqsrQkgSvxvhnqCos4QqUlT5M33/74WdtcxMzeoAC8rlXLaDiR1Sdl+LNAb0GxGQexFuJ7JwNA6aZs6Xgpq8gwbqEoQsslLYAwXaUhCWSoxyoP2YjgVY8sYKahAfwmIt7htY8NwwSyU18VSpqo+MjFGcHK2oSrkqBtfU3ODwebUvurA15fCWGZ9bZW9RFjGuD5zkBZaOnwWHHRhLqrsJk3hUwHNMXDQ7aShhy8FLvirBvP2THFfWAsWgsVFRlPeTTgCWe82CzKQk7bncl0nLHbfyto2GWm1kt5CmYPuxAIehvC1ezYwOPZMtx7TKip95zELL5QYW7zCmQ/uRsp7necE825egBMqKwgCkp4DYntCWYIdyHgr1i9OVUOLd/u2xon7Jp+pXkXCED3CkW3AOsQPS4rnKyCL6VghfFsV9h2Z3K0oCu8KG3UX3nrSXpiiok1TSKKBjkejnmjxszH7vs04b5rvUQydnfBt2eNuCsNca0JsnZ6b+gwf9mvvJomxtjreDjAnIMcuwO9g9JuC3Igzs9Odsz8iGR3K1pZWAPWh0oVbidazGFuRwGPB+COFf6niVn1gO2dp8MRBuH0frQlgC3djKhVRl8cpmHms3imbmTZ+O8MdkYi89AoVXcQQezdVfBVSI9tyXgPYZO2OYqM+Te6nWzWlSQaUZx7odkOsTgXJ82lGUwNBqqZ9cC1anSaWXGE2hHR0ZUkl1alarThABkbJoqYhu4gKZU5CAV7DdHOlSumdsM5Rp7nXGUbs4QfJMk9TNlxUsZ3DZPYw4iuc0AYitf0yrWKGh+4endZdFYBkm9T+FcfywArBuW8clOjl2lHyYbaHYZrQDs9n7YThK5hToSrQmV7CsSOFA/gjD3DBDZPVYsSX17rgGHh/69O0YhcikNICoESNpIoGs5KhQnOZZw4OGbd9tmD2H+Hm0/BTdMkMNa4nBnOwk9dzPJHhqkO4WyUPi4tf3IQu4ev/dUbSeJmoElbdAwbjmySFizaRMpvSmtnAwvvtuBbNGHmg/ItNUIHE8IlhR6VsXjjdoLHTHvVww7eXG+LzD59CtlCM6KXZcCEToZP1C63l2zi5bEaGCGqysdlKaHGexIQGNwMYJaR9ORyyNkGU/tGudmX1+jrBUrBhtGb8v17WHmsgaW7OanZDOMMdbC0OQJMTbDPtqLzB49Jk51c9523YOzS2l6bfWXaM+j7ZK3BeKREsG77VpJT8sgVd9nUtY/MZLedXF1razX5BE8U0kriXKwrvtHW3a2MmEZe6vsgLngWAHN8D3+Xkn0pnsIqnSoWcnPg6+2NKilbY49PN0AMzm9Om9wPij0GrPeodRxKs2ogHuUwS2Iw+HOZJ8Fs0wLvPLTyo2yHlNXST2zoIcBS48bm8k8F1hJOze5vcLaE0LGmldVAragEFX+6NoJqV3LENINTSDz04MNWKBDrrpAWaeL2tEUP5Lo2pRMtOFodjwAHEUChLtiws7FmhB9O0g3klhe42L6eBcM0AyWIAb3fXfv4Op1ea7sRhKkZcAXdzMvNTjnQzfO49JfUn5Fkds21wVjT7LvgLcI+lyTGaNXzEIAmqDxDkwf/+3Co8wN4PdrFYg5Odk4hxjc5zXvaxl4cRgAsHeL25ONjlQ7ViEi6cTiMeByJa0VcnJ5YOACHActO9nTFb/BanMGM70n2AFN8DZkyKBtHsXVD59MHcAzLHQB7E6z7Yl1FXNTN+6+wVl8s6pZyJ6744tAain819sNjZ/ImyqPrGSQxXUT2pKl33Y3ztQBavYqQSyGqxwKJYQ3WIbteLsZXet1yl3+x/3S8hq6Zb52pW+r7wUZYfnBPvThYjGJlFav1e6BntpWv9tvQvrOdocaUDV2VxkqOWnAzxSd6NVWegBOrCrJlJf+urC8AaPj6QpJsnRBY8dOqJtYlXbbgL7A9tksE4Rx5jHfL0NL0o4V2bE1QMetkwgwxNnH2EtR1rNpJi3Hcx+aLToUGTKaSLFHkBSEcJaLDNndjFxuM1g8jIglacrKRayq463kBdSoGeoyZ3BlFcDQuQ+RIXQQY5bfqPsvf/jjre1f04UfLfPl/3xbH1ys//Gv//CXf/76h3/6w7/8y7/95c9/+l+///Xn//SnP//+f/75T//+x3/88Uf/9s//8K+/1z/9/w==);strokeColor=none;spacingTop=-3;spacingBottom=-3;spacingLeft=-3;spacingRight=-3;points=[];labelBackgroundColor=none;rounded=0;html=1;whiteSpace=wrap;rotation=-90;" parent="QWRjxhVPjkHXVvezQv8i-19" vertex="1">
          <mxGeometry x="120.37" y="78.00282135623677" width="6" height="128" as="geometry" />
        </mxCell>
        <mxCell id="QWRjxhVPjkHXVvezQv8i-21" value="&lt;div style=&quot;font-size: 1px&quot;&gt;&lt;font style=&quot;font-size:22.58px;font-family:Arial;color:#000000;direction:ltr;letter-spacing:0px;line-height:120%;opacity:1&quot;&gt;GSLB&lt;/font&gt;&lt;/div&gt;" style="verticalAlign=middle;align=center;overflow=width;vsdxID=5;fillColor=#e3ebff;gradientColor=none;shape=stencil(vVNBDsIgEHwNRwxCjHqu+g9iaUtEaBa09fdSwdpi9dBDb8vOwOwsGcQyW/FaIEqsA3MRjcxdhdgBUSp1JUA6XyF2RCwrDIgSzE3n4VzzjtlVV3PvXmjDPdLdoOQRTrvtavNqnAKXw9mDELkBIhDJaxrJZIy/YRLfbjFvpcVgHHfS6JGu4lAK7GVwoXg5gmwjRP3VjoMpqQcm9tPKs0z0Y6crWcBHqt0PN8tJspXFfmNKdpaBH8tYwML/VPjiE6dCKhXSOMTT+PlWiC47PgE=);strokeColor=none;spacingTop=-3;spacingBottom=-3;spacingLeft=-3;spacingRight=-3;points=[];labelBackgroundColor=none;rounded=0;html=1;whiteSpace=wrap;" parent="1" vertex="1">
          <mxGeometry x="833.3699999999999" y="533.81" width="133" height="40" as="geometry" />
        </mxCell>
        <mxCell id="QWRjxhVPjkHXVvezQv8i-22" value="" style="shape=image;verticalLabelPosition=bottom;verticalAlign=top;imageAspect=0;aspect=fixed;image=data:image/svg+xml,PHN2ZyB4bWxucz0iaHR0cDovL3d3dy53My5vcmcvMjAwMC9zdmciIGZpbGw9Im5vbmUiIHZpZXdCb3g9IjAgMCAzMiAzMiIgaGVpZ2h0PSIzMiIgd2lkdGg9IjMyIj4mI3hhOzxyZWN0IGZpbGw9IiM1MjgyRkYiIHJ4PSIxNiIgaGVpZ2h0PSIzMiIgd2lkdGg9IjMyIi8+JiN4YTs8cGF0aCBmaWxsPSJ3aGl0ZSIgZD0iTTggMjAuMDAyVjExSDEwLjE1QzExLjE3NSAxMSAxMS45MDcgMTEuMjI4IDEyLjM0MyAxMS42ODVDMTIuNzgxIDEyLjE0MyAxMyAxMi45MDcgMTMgMTMuOTc4VjE2LjQ5OEMxMy4wMDQgMTcuODUyIDEyLjgxMiAxOC43NzMgMTIuNDI1IDE5LjI2NEMxMi4wNCAxOS43NTQgMTEuMzExIDIwLjAwMSAxMC4yNCAyMC4wMDFMOCAyMC4wMDJaTTE0IDIwLjAwMlYxMUgxNkwxNy42OTIgMTcuNTk3VjExSDE5VjIwLjAwMUgxN0wxNS4zMSAxMy4zMzlWMjAuMDAxTDE0IDIwLjAwMlpNMjAuNDU1IDE5LjQxNUMyMC4xNTIgMTkuMDI0IDIwIDE4LjM4NiAyMCAxNy41MDRWMTcuMTYySDIxLjI4OFYxNy40MjJDMjEuMjgxIDE3Ljg0NCAyMS4zMzggMTguMTYgMjEuNDU4IDE4LjM3QzIxLjU3NiAxOC41ODEgMjEuNzU4IDE4LjY4NiAyMi4wMDEgMTguNjg2QzIyLjEwNzMgMTguNjkxNyAyMi4yMTMgMTguNjY4MSAyMi4zMDY4IDE4LjYxNzhDMjIuNDAwNiAxOC41Njc2IDIyLjQ3ODkgMTguNDkyNiAyMi41MzMgMTguNDAxQzIyLjY1MSAxOC4yMTEgMjIuNzA4IDE3LjkyNSAyMi43MDggMTcuNTQxQzIyLjcwOCAxNy4yNTYgMjIuNjM4IDE3LjAxMSAyMi40OTMgMTYuODAzQzIyLjM1MiAxNi41OTcgMjIuMTA0IDE2LjM3OCAyMS43NDggMTYuMTQ3QzIxLjEyOCAxNS43NDYgMjAuNjkzIDE1LjM1MyAyMC40NDcgMTQuOTYzQzIwLjE5OSAxNC41OCAyMC4wNzUgMTQuMTAzIDIwLjA3NSAxMy41MzNDMjAuMDc1IDEyLjY4NyAyMC4yNDEgMTIuMDUzIDIwLjU3MyAxMS42MzJDMjAuOTA3IDExLjIxMSAyMS40MDcgMTEgMjIuMDc1IDExQzIyLjc2MSAxMSAyMy4yNDUgMTEuMTk2IDIzLjUyOCAxMS41ODhDMjMuNzk1IDExLjk2IDIzLjkyNCAxMi41NTggMjMuOTIxIDEzLjM4NEwyMy45MjMgMTMuNTc2VjEzLjgzNkgyMi42MzVWMTMuNTc2QzIyLjY0MSAxMy4xMTQgMjIuNTk5IDEyLjc4OCAyMi41MDggMTIuNTk3QzIyLjQxOCAxMi40MDggMjIuMjYgMTIuMzEzIDIyLjAzNSAxMi4zMTNDMjEuOTM1NCAxMi4zMDc0IDIxLjgzNjEgMTIuMzI4OCAyMS43NDc3IDEyLjM3NTJDMjEuNjU5MyAxMi40MjE1IDIxLjU4NTEgMTIuNDkwOSAyMS41MzMgMTIuNTc2QzIxLjQyMSAxMi43NTIgMjEuMzY3IDEzLjAxNSAyMS4zNjcgMTMuMzY2QzIxLjM2NyAxMy42MzggMjEuNDMyIDEzLjg3MSAyMS41NjUgMTQuMDY2QzIxLjY5MyAxNC4yNiAyMS45MjMgMTQuNDYyIDIyLjI1MiAxNC42NzJDMjIuODk5IDE1LjA5NCAyMy4zNTIgMTUuNTA1IDIzLjYxMSAxNS45MDVDMjMuODcxIDE2LjMwNiAyNCAxNi43OTcgMjQgMTcuMzhDMjQgMTguMjU0IDIzLjgzMyAxOC45MSAyMy41MDEgMTkuMzQ1QzIzLjE2OCAxOS43ODEgMjIuNjY4IDE5Ljk5OSAyMiAxOS45OTlDMjEuMjcyIDE5Ljk5OSAyMC43NTYgMTkuODA0IDIwLjQ1NSAxOS40MTVaTTExLjEgMTguMjk1QzExLjI3NiAxOC4wNTggMTEuMzY1IDE3LjYwMiAxMS4zNjUgMTYuOTI2VjEzLjk1NEMxMS4zNjUgMTMuMzQ0IDExLjI2NyAxMi45MjUgMTEuMDY4IDEyLjY5NkMxMC44NzEgMTIuNDY2IDEwLjUwOCAxMi4zNTIgOS45OCAxMi4zNTJIOS42MzZWMTguNjQ4SDEwLjA2NkMxMC41NzcgMTguNjQ4IDEwLjkyMyAxOC41MyAxMS4xIDE4LjI5NlYxOC4yOTVaIi8+JiN4YTs8L3N2Zz4=;" parent="1" vertex="1">
          <mxGeometry x="835.3699999999999" y="538.81" width="32" height="32" as="geometry" />
        </mxCell>
        <mxCell id="QWRjxhVPjkHXVvezQv8i-23" value="" style="shape=image;verticalLabelPosition=bottom;verticalAlign=top;imageAspect=0;aspect=fixed;image=data:image/svg+xml,PHN2ZyB4bWxucz0iaHR0cDovL3d3dy53My5vcmcvMjAwMC9zdmciIHdpZHRoPSIzMiIgaGVpZ2h0PSIzMiIgdmlld0JveD0iMCAwIDMyIDMyIiBmaWxsPSJub25lIj4mI3hhOzxwYXRoIGQ9Ik0wIDE2QzAgNy4xNjM0NCA3LjE2MzQ0IDAgMTYgMFYwQzI0LjgzNjYgMCAzMiA3LjE2MzQ0IDMyIDE2VjE2QzMyIDI0LjgzNjYgMjQuODM2NiAzMiAxNiAzMlYzMkM3LjE2MzQ0IDMyIDAgMjQuODM2NiAwIDE2VjE2WiIgZmlsbD0iIzUyODJGRiIvPiYjeGE7PHBhdGggZD0iTTE3IDE3SDE5LjNDMTkuNyAxNy42IDIwLjMgMTggMjEgMThDMjIuMSAxOCAyMyAxNy4xIDIzIDE2QzIzIDE0LjkgMjIuMSAxNCAyMSAxNEMyMC4zIDE0IDE5LjYgMTQuNCAxOS4zIDE1SDE3VjExSDE5LjNDMTkuNyAxMS42IDIwLjMgMTIgMjEgMTJDMjIuMSAxMiAyMyAxMS4xIDIzIDEwQzIzIDguOSAyMi4xIDggMjEgOEMyMC4zIDggMTkuNiA4LjQgMTkuMyA5SDE3QzE1LjkgOSAxNSA5LjkgMTUgMTFWMTUuM0wxMCAxMlYxNUg3VjE3SDEwVjIwTDE1IDE2LjdWMjFDMTUgMjIuMSAxNS45IDIzIDE3IDIzSDE5LjNDMTkuNyAyMy42IDIwLjMgMjQgMjEgMjRDMjIuMSAyNCAyMyAyMy4xIDIzIDIyQzIzIDIwLjkgMjIuMSAyMCAyMSAyMEMyMC4zIDIwIDE5LjYgMjAuNCAxOS4zIDIxSDE3VjE3WiIgZmlsbD0id2hpdGUiLz4mI3hhOzwvc3ZnPg==;" parent="1" vertex="1">
          <mxGeometry x="931.3699999999999" y="538.81" width="32" height="32" as="geometry" />
        </mxCell>
        <mxCell id="QWRjxhVPjkHXVvezQv8i-24" value="" style="vsdxID=5;fillColor=none;gradientColor=none;shape=stencil(vVPLEoIgFP0aljgEVuPa6j+YRGUica6U9vdhUKk4LWzG3X0cOPdcOIilTclrgShpDOiLaGVmSsQOiFJZlQKksRFiR8TSXIMoQN+qzOU175F9dNX3/obOnSP9CUoeLktIFL8KJ4flcLZN8NhtRJiDwxsf7VwhQHjAhniCDvNONhi04UbqakSuOBQCWy6cK16MWk0rRB2U/XRKVgMlSRwl+1nyhWI+s0+Xs4KYgNvPtlBKuJvVniX4En+9yfxWVpDx2yc2+Bosl0o5fw77U0PakjMzOz4B);strokeColor=#ff5958;spacingTop=-3;spacingBottom=-3;spacingLeft=-3;spacingRight=-3;points=[];labelBackgroundColor=none;rounded=0;html=1;whiteSpace=wrap;container=0;" parent="1" vertex="1">
          <mxGeometry x="403" y="985" width="117" height="86" as="geometry" />
        </mxCell>
        <mxCell id="QWRjxhVPjkHXVvezQv8i-25" value="" style="shape=image;verticalLabelPosition=bottom;verticalAlign=top;imageAspect=0;aspect=fixed;image=data:image/svg+xml,PHN2ZyB4bWxucz0iaHR0cDovL3d3dy53My5vcmcvMjAwMC9zdmciIHdpZHRoPSIzMiIgaGVpZ2h0PSIzMiIgdmlld0JveD0iMCAwIDMyIDMyIiBmaWxsPSJub25lIj4mI3hhOzxwYXRoIGQ9Ik0wIDE2QzAgNy4xNjM0NCA3LjE2MzQ0IDAgMTYgMFYwQzI0LjgzNjYgMCAzMiA3LjE2MzQ0IDMyIDE2VjE2QzMyIDI0LjgzNjYgMjQuODM2NiAzMiAxNiAzMlYzMkM3LjE2MzQ0IDMyIDAgMjQuODM2NiAwIDE2VjE2WiIgZmlsbD0iIzUyODJGRiIvPiYjeGE7PHBhdGggZD0iTTE3IDE3SDE5LjNDMTkuNyAxNy42IDIwLjMgMTggMjEgMThDMjIuMSAxOCAyMyAxNy4xIDIzIDE2QzIzIDE0LjkgMjIuMSAxNCAyMSAxNEMyMC4zIDE0IDE5LjYgMTQuNCAxOS4zIDE1SDE3VjExSDE5LjNDMTkuNyAxMS42IDIwLjMgMTIgMjEgMTJDMjIuMSAxMiAyMyAxMS4xIDIzIDEwQzIzIDguOSAyMi4xIDggMjEgOEMyMC4zIDggMTkuNiA4LjQgMTkuMyA5SDE3QzE1LjkgOSAxNSA5LjkgMTUgMTFWMTUuM0wxMCAxMlYxNUg3VjE3SDEwVjIwTDE1IDE2LjdWMjFDMTUgMjIuMSAxNS45IDIzIDE3IDIzSDE5LjNDMTkuNyAyMy42IDIwLjMgMjQgMjEgMjRDMjIuMSAyNCAyMyAyMy4xIDIzIDIyQzIzIDIwLjkgMjIuMSAyMCAyMSAyMEMyMC4zIDIwIDE5LjYgMjAuNCAxOS4zIDIxSDE3VjE3WiIgZmlsbD0id2hpdGUiLz4mI3hhOzwvc3ZnPg==;" parent="1" vertex="1">
          <mxGeometry x="449" y="990" width="32" height="32" as="geometry" />
        </mxCell>
        <mxCell id="QWRjxhVPjkHXVvezQv8i-26" value="&lt;div&gt;&lt;p style=&quot;text-align: left; margin: 0px; text-indent: 0px; vertical-align: middle; direction: ltr;&quot;&gt;&lt;font style=&quot;font-family: Arial; color: rgb(0, 0, 0); direction: ltr; letter-spacing: 0px; line-height: 120%; opacity: 1;&quot;&gt;&lt;font style=&quot;font-size: 18px;&quot;&gt;HAProxy&lt;/font&gt;&lt;br&gt;&lt;/font&gt;&lt;/p&gt;&lt;/div&gt;" style="verticalAlign=middle;align=left;overflow=width;vsdxID=6;fillColor=none;gradientColor=none;fillOpacity=85;shape=stencil(pX3bsiPHsd3X8LWjrlmZj45j+z8UFnWoOLKooChb/nuvVXuAbmQ2uhqbehDJGRQ6UZ2Xlfef6n/885c//ePnn0r65++//fpfP//fv/75919+qv/9p1L++vdffv7tr7/j336q/+On+h9/+fW3n//zt1//9fc/f/33P/7ET/Lf/vev/4ff8O+vc2nTykMl/b8ffzD/639+ffZvf/374bO6jfztz1bdynj/+bFV/UOfb1sv7z9etix/5OMLasItfvr5i5u8/uzr28xpG+X1d+pm7787fh5/0vvFgbxp+4MH2pZfDvyvf/329Rvyjw+ULZmptlFzaQ8u2v9yVJNkKm10S+nHl/+7PP++mmb8r7dRHhdXnsSIyqjaTK39eMP/rodv/vH5+vxtdri99N/OqK1bkmIpg9hh3VGbwAZilkYuUrIjtW5NutYMmqTiJ9srtbZZSTm3YvieYebprZu1V3p5YkUuGL9rH1Yk5YT7c/f77qEPmvuWU7OhqVSr3V0vWKFYw/neUzdHbt+6uuvN2+gremVLvaQEeq33EZjBcIPDtEjF/Zk6amVryVrNFe9HsqO2gRl0jIGL0FqeN/EkWDbpjmC5ccGyKa6wgs/KeLL+4y9tAyNYbpbxc0ZK/nrHlsBGZCTwTEqpvNJcMt5e6wb2LmZt5/56OP9KMzTdkuR3T/3x91C2qYpmqVmlxDtW/E7wjNYk8nwHT5Jt69aLmuHwD537cseO3gqFoes7rq2LQgng3dZXaiv0Sx2CVyoQ9XbGwtahPfgOwDqv1NaOXzP4atoQSfGC+9YcU9Sx5bXQgQtBUM2tFne7NBUGVZXByVK8Omtby0nAMPgCUOtvF4fVRscX4wX80MNHDaGe2Bdz8E6htZY0NWk9ib/c0+ftCg2Kzow/R9IIlHYRbQJBxPfHm4X6beFmbXm1ZYPCUUulayviqB1baQ2iVvE2zVMLIw9ZAiOZtn7QhA+CqTzI2k0UghsJzpv52wV3OHqDNXye+Z59/qOfd3ghe3BBYPQCXMKF4wikGeLVMpSC0xQK2astNzAH7HdKNdx5ylQzyit39w3aqT7wFjVRH3tuLpvnD/zJUlWArQbUgXTIe+lBt1FbaC5ZR6/goRRtNCSzNhlGwoOySLXaMKmQzCh8Y/zk2ePHhVyqippJ5oAJaQ5OnD9wVxUDOno0ge5KFlUFcRftMjR9eWrxXa9lT20JzByIhU2XBFmvA3ZfA5jAK5VCy4oXKuINR4f1x9E0tFpzwgeTowqQ16jCoYy8bcZZeSUXjJvHmt6TRz54F8QCLYATKtRw3vmvHH4sfqSUVLS3oC9gRfFOuvQMrUHIEk1H9gBItrK847ZBF0NPjaSQuMDAtBC4+UEVhn+mwMFgqA6B/NLKHrHVTajIWwHrPwzp0XwURzA+vzYfgCZCJTAmSnEq4vyRu37Q2qHGMn5rrgESE702Yv+k0PfFPMYEy3oIDy2+xD/QSgU2AiYWsMA7HDDPWiBVHQB+eCxxqgzLk6HMCCZyF2iXYD3UkepU77n5WKlrp991S80faPl4IFwGj9CFImI5wa+4ipEEN1WSRP2u+PYBFQWGpSLy+JXwaQAcw6Y2wMX9fH1+f3ZynZca06D3INCEjql56cA7AL0Z/hf+PrqLeEe9KbhtFPzTuYsLBwxg3GPBGw5YAY+C921kKOlUgjwvHLAC8erQttZr6eJuN0MF1qLQFBMrmlPyOKvmb3eTlQmdsZKaVCvYOOUo0YKXprjK2nuBGrLiSIYGA0fQKwfLeJoNHgAQnGjP1AjJX3Lb4wf7H6XlLZ8+c/dn4ALjl4xGww4hDQQLZHoMAlYwledimLUKDIPv0ZEfHHcg+MmEB0u68nNpvqpCawJtFHU3XKnjOzxVvGKIZTBNeLEDLyhD09BORNMPJ1ogB/Ai8HscUMHh7LiCuHnNxvCPYJ/x4ro5vxxYv9aMZ8EflJyi1EHhDmAC/lQYJ0fslUtzInM3XBpIOeRJ4XvBcGcPUi5dGrAnpRBKCyBmRFYYm/QKqYOfAG/SaTNQ5iw+EFxeWlDcXu8KJxUKwIc8wEuQQpDSpFrUvieqe/fDoW/AQTZUvd08mIkDG3vfyxmjtW1xxsgAbT80RjiCnzogEVK0BdUDSbYJaKFMhX8/wusDHAMeg7AXHw08R6e7JXrosQ8AMRgNnktveH/JhvdGTwH4bohgEDt1O/RAeVrGW77GmVTc8DUohp1uTwZLFO/pX/kaOAk4ZFUA4VJ2nMbf2aSAdU2sOBSMkxYdjbpC7lBSlbiiJrryI7pxsOMGZF8LFLpGm9kHwMiAdzTSziUvzgZel+YGhV4DKuF5J8eMqi1V+rvH7syCW4f6gFYHUwQwNX8zkABYSSx4G4ClNUmGQutiI16yh1HAwctLxlvttMYDGLw5fmC4lGoSOgl3JBGYkJkS9WhTRje9DaI3AVEk2MqZ/+YvOfLwPLKWuHO5yYvHliuJvRsijkqC97yMaZ9qpYO/QX8PuroZ/bmo0s5V4kGRAN3A7sqA+Jl5N/Sghe/r+rXqftX1NW9PEf1xQLdcjgdenwAlUKo/MF4O+GuszBONbFBBxcQrhLwxJ1NbAmoiuzpQWpl7YMQC4pPpzXvD3phHGuAsKJ3Hlz/uEIeLD1vL44/ev3caHMgQFEGG9xojq6CGMWsgFa9vcZIhIcZOhWHZYB0uMZNFam9gJvBhHgZhToDBn2AmqNOWVQFDIJVOooiXJBukFX6COXEq8pD3F7y0pJRXD3rhBIJezwdlo/s3+DjJxUdHSt8sw61vEKjmWAD3Rl0IEYOzJRb9v/4IT7+48EuNdfbIx99lnAdutkzPcERXCkC+MWqNC+45pgOIOOFCtWaw61m8vsLxGB6RFR7FqQ4fCq8T5rG6kORXggIQAVIGto5QX4DQGA3AB4J6LdNtKVLV8JN8NId8FDOGsvRMIEi5Q/LHKCNo10RPSqffMuj7eXIVOAK2oNXWnzD5bjwAcuaswY14wBRtSLQxsZd2LrsZD6BOaVbghcGVbT1GXPD3sAbWcwP/5xATgCrL3uyWx++4oBov4ovaXMczkr/b3AE3E6quKp0Nc0JH3Qy93XtW2ihHcCcY+8qUJT7B696yZSd14HrxSsJZl7Qb6qdFO4D509eiicaj19ayE9M8Nv4xwGbvRVOAx3wpiRi44f+H09UMlwCnjlFxMXDXwg9MwUDnG1qQfITLaUXhUycfoiFcrczpFctwLYNegZs7mCBhiMfjeb5OrVDozOdANwW0aY9alyNyG8uwEt7ahDnAv0kc17995i6nEAmF4wLArzFEQ+QGpw56UDvAbAyFjZBAmEnlFc1jq0JACMqgv2MoDLoHLkoGbCfzB7uYB5AqlDcwf4puSNoGc7110I/RE3Xo8wcwN3V5ze+eekjZJUY/pXbA5OdTy+EXZ6sNwKOfBMI0V1is0fe89vGKY8Ju6TSRHMWLmyFbOc/XMawHLi/5THvjjRNnGG/Qx8EunWjbnPa+5UNTcmC9lNFET+uVC015VXhZoBaXdxKzg2EVJTCFPXek4mzzQKmuuZcZVt4KUygjndwtFH+CdgCj9HywxzvFVkHvaJrovwQQmljPNNO3ADht91x2U5PcDTun4Exzrx0J53mUTV4PLCrUWJiQ/+ABvKt2cUB2yf3mgUU9IZjF1RV8fGBFUrzWjw8srnV9wL1p255FJk99eB1P5BEBA8P4Zmm+mmyR3MLhRmQOlxDMHWHLZWarpRBlX2a2GjEIpFVBc45A9jKx1eBJwGfpkNQ6mgPeCyDbytacQb8BZBvLGQF48OOfquMmiG2AJwNIgAZKT4o2L7NaOOzdsDtZrdY3+CWARCxX9AB2kdHCWYUzSb9FNQDYRUZrHnZq8EZG6/yZNzNaODyIpifj5lh48z6dhZPtpOxmZcYb8xzwawbx70kg/DKdhTdKxKIs3ZTqo8tXuSwykjfi61xWI7uULgVIRtQ5uKtcFg4TVMGhAUIKofCruMyJmN2IyzTGSfFdMLG+2vgyKtOY7TCGt2t/xpdupbFackTeyGFBV1a8YNwJZKz593+RwzrX0DdyWEdrcDuuecOEvNoc3GINFRjXNodHoPdYENx6+zCBhcN4L0ovE7BLntx3K4fVUqgQv5HDAoNVFucYoB5s4f7IO2ksHCb8hq8Bh8NXgF6h7zNhuAG/KX1j8OdneLY+SnmFvxuTOrCgYKpchif1KoWFk+YT5jdSWI0RZUguU22pOAV+mb/CyW5wOotB7IGuPROs8lc4Hw3OMn319qk301fz9xbwrMG7YRTI155dZbB4x7FYbpnB4kuFcw5bKHBVfCXXIoM1eakAxbGSPXlqF+mrE/69k746lZebqau3gnoze3WiHu5kr96qpJsJrHN9eDN7ddS/t7X8DaXttPzw6a6F79LgEn7UFhUPMKJ6UdndQ+X44gm97lG5bx5Y+JC9+AKQjw9kgDO5vCWpnzwhvriPD6xe3PrAKy/hxfVXXz5t6eo1lL1+7PzzXiBxojZjCgyQ0Cc8GMtnWT1A+Iw4O3uNsyyzhRcENCkeXABOArxZrn0UCY4XftlwdhAGd4UMcaq1ypAXzWA3D2KFVgFKvLKLLFqVDqUFOwcwnqT4qnHmD6sw+iRS9/jWk+DkOwjkhoa2bZYVABPAQmRP7PkDy/NsZSwt1dR8wIC/E+aR9VrqFXO81aVXAEnpBJBVWVb9SiVsKRyywayDKR1oD4UUrwQm3lpmO12w1OAhpqYaK2/gpvtrxfHqbPUry56p5EOu7B6X8wRznoX9RepNOy6z02PPDDDAeHsnzZilbAlW1LJPyEAEAODgqRqgTIk/zwJ6eilMeMc1cFGANfCNTy91fx9FAU86/orA1MdZwaaJ3WIDL3LQl/NS2QcsK2wvoCtuwwERnK6O3mf50oVUJqZi4eFaU8U/zYP+Nw99kJy3lLRBiwjE0uf8N7wwSHsuuA72PHqKsw+8P1vBLtUIEAQ7C4XNfl7pQR5ZFE6Pium5FsjtUHtsW7QWstIwGKlZZuBsFv+2QK6vBluy+9oIuK78l8+O/OhEPbcYe1X3Nz/fH2DkPDC7PQvNv/d5sxfvKDbb1/aHPr+gJ/2BD1/f5OLDsdfuFV9ZekHboeiqbtldTF4oSTZEw5zDGVAVX8FnsOe0Dglu6KjV15WxpFPpjBW27rzKhMmWKCxwiBkQdRqS/TMOlNt4uYvzMrjMMCDMB4CHdKcjjUVLbNxMig9q6J2HvjJ4ITDKVNyOWtvs+D8XgLXQtwkpX9Cq9LBt0EJYVh/dfvO88jjLZmJgmSLSsw/F6zZYdJlEARXcxY7QSoAXUVZOsGyzeRcf7i37eh0wAfxB2PEG0yTiSIX7Zx100ltk+YMzPWBYuAk2Erznnn0ETjZ3rdrX/f3vnvi497xNBqDdGI/W1p1aZhoBn0BUftZ3/PjLgcuTzHZSeJM13KsDgqM9lOIVDySOa+iVkSEvXANaCQiDdWasg/IcAKPKhpJEDnIu72CGs/QO8J7Mt4nZps7WjLzOFWR60cA0wDop+YT/+fP2ZIu0JrDWyuBeaHLEzwRm7Ww3hEm3kwa8IvFmbzRxK5yTQljfx6HtLz/fZWVBkfKxwxlzqkmwABRBLypOcWmizoMRL+xL9zX+NVRUgGXbjQ7HkwfmnefrgBbtANxZI6kDeqQpW3zd1aowrlor2AtA3Fft1tCfi8+P67jH2DuQT4/EnzYYcVJhdCZ39T8NmLaDfAis7dNTdiVXgfzgH7fINQYDoZyCMqOF1TGNBmmkklrxDGSqCat/E4uwvEbuGxE9/DL8EEnuNdArg4x0+l/D98kYy7OkZZAqLDwKtsPxNz+/7OFNHCXAZBbcl6CRzx94y9D1TZgUFYGe78Ozdw6VctbWdVk0y/DADWwALeeQNTEEBDQNYG+mT6P20DoH2gCTOz1nDGwYm7nhqD2Ds8d+WJ9zTjEYGfthF5DqFYMN3z+r5TEi4xyC5V3/vjnw0XwEqCMgALxL/m3OoVc7swxvlmvV4YutBpCCjMJYL9t1wvV5qACludRkNAWDTY6lCjs7vd6FMjPgBNaVyvAvm7+F8xoSAGF1sIZaX2HUO5PnJQpRtBEr62s0AQz5cFpD7x4onD9wt7+d3XTCKE1z7j9+JBsZobVw68XlITRE9XGtwdk7QQqcTAMRGUQD4VrxrcYupi49eQgGFh2NOQpgRSWcCAaNUiTUG+JHWI3QU+7Y9dRIrETCuTFtk1eRWDhJ+VAm/80DWh9x4HdCJ1sF+CIss9mm6dDZ/IIMxAL/B659kDuZaaNBvdWbi34pK+tw4RnKO4njD5z0Q8O0PMzuheBdDYnCF2Rjjh48W8PUjLF9QQ9OPhoeQnAAVwccZmF7dsyBk344wnhWwV6QCjUyGGttLadSXkkdcyYGu/1hE4JHCdYCj7LIRrKvpYe8ZqaJGvVd8bNTNFQKjnpjjoMy7mMw+5y34IoOBqN2c04YS7v8rbLIA45baqyPjLNTCHvxMtowOCHeS8uHXE59fj4tQa/OKvnEqTTmq04gImMAopAiE494DR5l58y4Dj3g8AuFqwHA0YRXn1Zl1Xv0J4KnHpq/3FChlQDHA9dBF7aXaTiw6gzmD+xsncg+wDpPw3eE012eQ+MO7xrOEYAjbGx50nkwBhS8WdKTPKDSUDQ+ZJ3xYHuC0N8aTIZ7uyVMh7DgOUFOatBMrDUFKdBKAE1OMw1WfVVl0hr+b2w+fzDqk1i7MS+JE5wGXVxjKDfUCMMhB8iCd0DvJgxfHIDHAu/RCrjTyRDUWp/Zjp7qsy/soJx86xf07no4DsNMQqjac02OC/AFVpmWgcf6TL8cSG2cREUBMh/uUk5VyXgvg3XkkdTk8AucvryMdg1W6mhWoPbhKSWO7wR+LYlvG+AbAephgu+rDsPhFwUXAEcwCkLfOXCBH2IIiBx8ABdgfY1rLsKxx0fcOzB8Ot6RdD6hEL8RZo1ZOA+qWTI2p6lIjGfIbA82plKGz2vh5gx/2WeJvXe4ZU891+fH63J4HscNGTAzay6KN+wkplov4MYSIppwAyFYStDXxMFpnOz8H1jy4DXs3UG+AJaf92ppBbJWby3gvo8PrMzG+sArFC3dDxlWe2ldC4wtvg1M7THj6g3n4chQAK0GY1M9poA3nMhYDIwnfYCjQ+tjI8DhsNXaawAV8N77LIqejevP4GZ9/jinZexZenDRjtK32hmehDUZvsUYL4ytmgzUwMcIw0c59gZqRucQUGcXFyF1pphfiV2H1DmkAABwusLqG4wXIXVm+GC/8Usl20lEHU4eAHDnyCLfApt9lJoh9RsDZFh2nefkuONwg0NYhDUUdPyZaXfUsrhP2aAsJSghxtQbOyHV8AXeo+NQumBr1i2wpw/c3QthzSCnm6rXl2W2CEGRDqgi85aGraqcM0RbFS42harIO+4F060cV1g7ixc+wXElz3l9lW/c8wC8BZ3zVnEHfs5ECZHUcSOhX2YfOfMNSRlg8BwwmOFlS1qXIaEvjRn/xKAZY6Q+/nAV/4+CdSf+PwdYsQcawEdPXIv38X/qj0qFpV/d3B5s0C9RDlKCfmndQU5mlr0jVB8o9IJaOO91tMF5XeZbMRjXYdeCMM1fQ3i0cEizwi9rg4DNEQt1b2zEgDOkYSoCjLGj1R71TG+BUd9eM9t0uC+tR9/al78JJj+plRwscBPCV0hU8Uqug2tYDYx3qb5QErIFo8J+DXgHPhNXnIobj77/S5ahGRPCeuFkRZ81+jIsUKpFY5N/Y5Noq3Bz2Bkb3eeraCBZ3NN7Ix7I6TgwHawg5jzhKJBXAUFIs3LiY4FTBomNbM4sjrEPVVsOvcMlpg/HSy/c59OWwHuZFT8NOuY5GuSg6WAggV8ZMWTyxXtWmWVo8ISFX+4HLuXQbsQk1/J63z1zB92Fc4mmljkZDzX1g3JIt6+ttwzkCUQu7DiR4cWyxJz3eugotTNcQPqt+9SLQzIIDmlhHXVhzOBEN5fKBD08hY+SQSyQdDrkTjZoSgvtc+Oo8TjU7DohREEFVgCEA77x0xQJKdknx9BRsRbUQvBcrd1gXLBLhk9ic8ZsZAW8H+jXylrGGqvZqDMZ6QQvAVL4+2WXIs0iM+PdF3sf8X3d2c7bk6CjV06B8yJCRe/CT6n1Wa/2zc8v6qfSLrHfPLCqoLJN2h87sCDp5FI/PnB9qzcOuHbhuo3XOIWugozzCLULs1++PQO2vxJ0wC1kl+0r17OBiJCVmwQK12z40B0zDvANMwNUXgfisM+FMly+EFMOnzeBH1kZv/SgjxqZQ3ZgIZKv/+Xsqi4zc8+qoEjsFULl+gNvvm9A1Ko4NkOwHK70CURlj6TAkOL/cLfecJeNXVulQr3OGVOO2FDLO25kxFuaQ+A5bY0F0o7WwXpR4UQroJDk1R+7ZRrnhTCC5wGqcuKHwFkdPUxLaM+2gpcw4+pez5/3YFnATdbQ8JG99EBpA8zOA0a9WFTUzbQyADkrAwKtzxE5u9E+dkW8axJVbsCBDI3Ro9Vmq1xmwGvsJfLlefR9L75x5AmLP9SGz4I9O2x3SnUJjtkDLISD7MLyMSBS0hqQhQDudN/LDPGgfYNnD6ea0Nhb7OvAyol0rSMrHB9RWXDGUemjBXqvIivQIkyz1wHvuXjkdlWrWNsm/mZvFCviWBKWKcL5f8ZEj8WKAziJAxl2DnmSeqqd97BKZnB3NsDVoLQOtmAXrjC6LdjxlQFxFqf72SVri9M5vIxNnJnddU58LwLdOMi+RRYJ0aEMzYAQ4MGLVOjMnn1Oo/Z99sZBgNd8llhBRQvWqnPcibph4gwE46d4amH+WLfUv5wER+ol6D6RiDugm3IotTeAJShyL8OXiHu2kHEYUWckype24Wey65brqYjLg7YR7yHUdRsr29LxLIXugwx7AWajIDuXMwt3fBC3sk2GQYHSWGdkXpHDBNAfhrPYIMt+GBwPB7GoN/T4+TP3nCHXjVmCKm++SmC24LOFlUWOvgNtsOqHKZrWgF28xsHlxuKcZasLXyfsnzLQPbw2nxVPNuc50EOLupztUYBK1Wc3B6eQsJadSziCeJ1gpLbebXQuJfnqgeVKMg/BjVjV9V4T8FKXLPBO/ezxDbCqGmuxR/M28lTp7cENzt2oXC7Wa6TWF4rc0ONrtezagV8/vXBMWvMbD8OBs1k0c20SW6x8yeV5QccDtHE9XmIxg+Kd9qD2ByskO6d0Azf428Ph6qPL5ZGbvYCYwhyBZBYkjBNHA3qWI3WyhOmabWyca8pBNCPUrbDFjE3tLPQezl63cVZXvkwu4FiHQ5Qae15CxX5nrwwAPSD9c2/IgVL+isa5ssmnbFiO3geriea43tBXP0LqGOy/rAc6f+TB2awV3p3C2EgOxDL1n6b71h2xSuSeGefkQJZ4r36QnN5YqtWmz8N8V+5eLynsW+fuPNWw3ofvn80+EPIGCBm4VTkHqnNGcufSxsCtfqGWtscEg0taWWkLlrLBeJufr0oDh3dIimWvmdsJruzUZJuupBIJnkl7ONRtr4U5cIFXTTcKCHBMGzQBh3GG1A2MN6MGfJe9SGRZQBBr9ImShymAjsAMmYpkL+w/kBqq2m8M2uUxWKAKKeDOiVdSrREXZdYCsVo3MoKwJgrgnktLXmklGjNO/IIJgycS77V4qDpuTAYh9zDH0pjXlOT1Fn0bYAJuegPfPsK6BzXLJqPZMTVOXDi4Sz2xv0FG9t1xUO5+PKqLtp31R7+anEV47kMDtfi0M37VD2bX15zeif1zoy3CgRP7B+s+OGwb/loN6IFfkLk6UllZ4yMsfWt4rZnzSKov7mYRWeYUXoNdCTOHItbB59eKum+aWYfFZrBQacxMhLC0rEnKPsQCk2McfjI4pLc4UjlDSIXje+rIYfwrWdC7rDf259LGJ1bsjem9OGIzh62ydAzIO/TM4yRFEP5z20cr7ZErdjHgVktL4u9VwkAAlh7eITU+cA+zsYErwytKWcOY2sZNepUQUg5LwA554NHY1QQZ9rP8+U68FyHrIVmd5QDGLQ65eJMCZKFFgGhb58CEwAO4N2417JLFU0ogyFFOZIIwL66FxnMXVD9TJEF8F4H4z+V9fWClUczj74io+/WB0+mOg1P0WQLqVD3rrsBMnV1T2ddqEFEXNulwInKTMAyDDn9inIDQx6o3pRI8aGvL9CVOdVZCcVTiPoVlD4IZgwvsJqrZ993hqEwJhvlp1Wk/K5tS4XB+Njg1AqoQscs3EAqPNa4Y0OQLr9l+ZVxTUVkL4I0+lz3jdTBM2kIofM5RFs4ELNwiHbWfb8RhJOOGqwLDQUDFOevllVhlu8Csu2CyINAKpQiDwoHJ7HONpaMs20jUgfVswqcPo4xlNI3WqKUfGM0vtcb5ol9uYIloiqE2FjN0jj6pIcasnBwOL6hXcpm/2bYX69fD5z/UKu7M+sBK5tcH3Jwl8VXFqzEYI8y1+PTAApZFkj4+sCJpfcDpXtu3LN17QvqwijcecB7lycCr0q4PhOEvXILJfQbWcAXO85in65wKCRTmB9U09ilDxqjCQh0NOw5SZhNZjXN1ovXVtsZfvXPbg8Axy2yZD+kjZe4V1gg+LwNojtrOvmFLbA0IJeHs78imHJOnYUZND349VLOtnKTT5+1mCM/JjOHVEgKO/JmDY7AYxK0+FwP9JKxExbXX4WM7PSogk/W4aRxjMxcDHzn2f+usl+fw/CLq47hgn17nOKLeamhTvvbmwK3dBXdueHNB6lYO3adieuOAU5dBTBcKmQMIx/WBk8F0o8+5aQk2SsNQ8Esc1llVxLW+ytRBrHPKTAnAHYdPEOa81b1a5VDntPLrcMzYEUaL33MscmLbOpfZNHWQvs/drX0kDoTgymtPLTufyuwE4EYSZ4B52lP7rKW+5P/zh+7JQvYusWwLGPhEDXKeRm10RNtZlmgwNcPCP/HZjB432+tYV1FQ6hjebW32hwU1qHPvIMBaL+Lb4MBJpnOdWzU/BAFHidIyl6/7ShqON3R3Oz9+Ka0nFkyuzfbHsrQ+4KT10Ld5Sx9I8lVwHx+w8lIOHQ60vebj3hMOk+S/eWChNUFSyX/swNDH9Lx3t/RRD1R8bx8fWMGt9YFXVpJQxSD5pXvx5JKeRflvDoShTtwYnlIbrFD3G4yFhduQZY7XluxUKU5W6HOWb1VfhgZ+YOooSaqt+3YpqSGGLfLo9HivlHAM1keHQst1H3MSNiqCHJM5BNtRWnEJHCnAvaG+UkYYGheu7eAGMwd4BObA6U9+fgV4cOvGGqTBDJCP5J0/sDxPdm5E6oBurJbyk0jxMwH4EvddZN8HyXftiZX1NjIKCqcxwObBT3bOLF/krJnrmYsVHbGcaJ8yEA2I8W43eQdfyRRZztmzQKyYc5x6ouwl7znQu9zNDQxdu5KBHaYR5k+V2x33rSLH18CZ2eyske5fAuA1kBCDDfsIisNL8BYXn9c7HMMthjJLxT1zczz7xOxZRh3e4uKHEMpzlwSXEzhi2yZDwfadVSgu/SkRIUtb72MRtgN+rShjFCQQe/LAgyQytTdw65lNSxKobXOLHMGQBzPkqJOrXcV/heWNYpXyWLqL2PFdCjsOuMKu9rB6gEpHW2Ve4rC4dr94FsXCucwltMlLrFu7weJrje+mJO2T/J6SlS+gAAtEzB8oLzHmMGiMGxQ7kw/cIx4GDwn7O+GhcfbF3pq9p98bGUFZNpi7HzbGNzp3w3BMiq+qHbGQgEBmFUfk0B/Dw+BqcoxDYE62yqSR2ixZdmKP21QgcVgJgt9g0uZUo8LlcT4ti4M+PSUn8f5AK8BqpybhGmE/ng5fMBhf5HyY5mfLMG/R2JoylxRHUhXaes5X6S0UPeBs0kBsmD0UiGX5JzNisGxnxJ4+cq8Ygd6CpCSm2rwYCQefGzcXcrNCINdrKHnsm7igtWyMa7NnWbKvzYQRHXByG/COVT/CgVU1ULJtrjzYpyY+aVVYf+6g5hvLoWidNe2v1I60LnObFf94yUxlhOmq/Er8BFrZZL72ZdBsdP4k5suKpxavDH+I3ygsqPCTNXPYKTFuBHNIT+M2UOJFX7U+uG+osa9h4A69dBVO7wKWBEGj10AsdHlPymHzaslfbI1jhsoNPqgbJ4MIeI+dp+Fmk80N3kweOMWPk5YYXJyNArHL4v3gHlx6mO92MrgnkMrilhl6MRm+QveysGxwBRrXwRIBhwpC2moObCAY7w4x4qRfCzD6OvpCrU4kzcht1xrmuw3utiLPsozDMwGFL09gpaX7qC4HejNwAMRZs9cDI2Y/7ujY0wfueaVBOZ/r2n19Lg2fcF1oygxev5LKLovCmVljprhLoNU39t4o0qb4VSaje+JQx1dS3/QLHpqUpnXWfOjNv9FkQebxQdJ1lwXrUhMDVwBN1e8MW7RZUEdwSyDjVT10GV73WIwWyhXWPRYsV8yNGUvx5c6LDgsIj3KBO0wWtw0FUpl8nluTcmreGxsloFUb6yQEq0A52WNwWk/25LJ0gvMK+6yS8aaLviPwWGVnt9+cYLg5BsoBiaAmfHnpyLHwKT+89EtiORON+RLui3SyZVD3nK/DDfc+rj847LcXqnsNTECxLhQB4LThN27wpNdZFpeKB1JPH7hbAsY4OC63hzJ93g0BLF6HteALEuAqN+Cxla2HW1XvAtxolwc1PQlHLQMueUtAn6NxZCuYLhSskNNT53jFIX51JByJNL2uNNiRHOQqUJofKPFSDYhx1BNMU/ZY4PyBR5vFcAOuVr3LypZCzl3i2DJfUzhi1YakG6iF9dNz5TEbo73Lyt3YPUN3CpS5f/2y4b7TrEcNNWuMYwwuvwFrDJ9/GmHKunPOzkZ8Lv254P+5wKv2xZJDHqkcfAIvu/jcCSe/cVM7MUNkLyZA4bsbp86ouwpN7BJVbiuo0JgnToeXWl3PSJoFUJzD3IVV3GE6K98NbHvWOZQj2BkAOJi8VOYARj8e/ap+i3YmAqM11qhfa+EF9i+4SOcP3CU3c0cKYBNsiR+RI9yB0gEJWGzoL7Y8okvHm11ORh+cjGFM48ydDY4LuLS8EKsDNPjaIDoAHCRaWBPndyTMoszKYVEVdsgLRBw5rzf6Ds8fuFsZrsGhN1ZCESd/pMxIVMG1hvADTRywfyKMw8/0OL7EMdd1k+XFzuR7T5b7YbDiDuIA8IwBJXtu7jjwwCAjDzEJvTU0/TiRGjRizr6M8wQXzQMrWhvgD8gBwBlhPP6bJ+7i09hfPObG65jzZRc29/Am9ngHVeDHnLBiYXmxBD/gyDQLvx3H4lWWOa0cznmvftj5ucrbE6jcBqzK5uXmnWQJA2T0xEMKSnyllJ0WN79EfpFK0vbhIqF4YJHd0ierf/vAonp1Kpk/dkDtpePxZLo3G+U7V20r2NEXNcw1OgIF0Dnr36m5OTOCS6mEsNEz+JzaxeHFnBHpISqPOpVsfT23DMeK2NxbXVrxDA5XHc5UJdSWHWocjG9WjkAdchg7eXAAoeGUteyzedvxuEVFpzeiAEDdhd6vcomRJ9e4CR7mtxuTL14e4TqxGWsO1fBRdRztHF/Fhe5pn7252zY/fZYHlspD6VKMxM0l6qMAb55YnkfZtEflQiMTiG2w2/zORnjo9fIIxtksdumGGP3z0JN72stQdXdA9z1ybw6c3Ac3fsNHJ3fkkzlMtFF4PyNz8Xu4kWGVxWVw8DxYsa+xdFzCznIVr/vjTIe+7gifPXksS2GimiXHjlqYMUJEJirBTh6vsEObUxuZbu3eiW9MKsOqUOK631FPvexfX4sFtyfk5q64t2wMPITLhZ1vzKtzhseo3t+g5HAwMzPr3lZBZdXCRn12aPcYJbW4Jceic+S451Pjc+PAq3lT8RVvy+EKPALdixcO/eKHo16O82F5EqCncil98WMxL2f5sPD781k+LE1nGIxtzyNMN7+a5cOqeK79woPTviZzjzq8H+TDUbjfGORj8HMBgTh9jXVzjtSrQT7sMYRhYVyBNWqO1OtBPuTZcKvLEjScMo5olc7RMp8N8iGa5KJyCBETH6/UXg3y4cFvDPI5f97OH+8H+eAk5yzAQ+FeUz8b53KQj0W/784gn1ngyOlvjQntjwb5GBcQC3fTzuVfjtiLGDO5x1G6DjFzgSLziXBSwTBxUuB1kJndLcq9eqzl9JOnFkHmE+m6sXUQuARmj/sYodN9r81i66BOpxlSl3Lw+64G+exdyh8N8uFuMQYp2GrTfc3X9SCfc728X/rFIJ+jFTjkb65dqRumw9maEWYKLm0Nj3AeRhZoRd+icDHIR78quQAumAOKszMvpvhoXPlwI0E0a30F7vicTR9k9/0QH85VZLE/Tmmv3ju4HOJzIg13hvhQAIX7Ujj4NQyLuhziw5Jq4ba30VL2I5ivh/iwKS7GbJYd53xXXNwxmztCU9/lEB/GkHTGHxOcgE8m+MyTQR6WE3zOH/hgkKvxPfNXDpob1eLzmZfje06u9c74nvki+Q/OI42VAu+n98zVcJyH0xhjcoReTe85A0Y3pveci0e+emC5kMhy+InvhvecKIA7w3vOVc7ud7yf3HOu5fbE+/vJPUeVel9xr/Xwq+K2w1C6W24INMEz5fjNA8tlZcaW/FG5RzEOoFpsKsNZTv1lXQZnfbgLv9pUNmM97sJvbCozbirjuJZmjHU4Yq82lRG8FU4qaczVxTV27zeV2fc2lTEgBc+XK6MBeTy6v9pUZtxURo+Kf+2jMZebyux7m8qMrccmw7gKKQzov9pURpDbSuf8/eRH/VxuKbPvbSmbc1G47YG+ZkhxX20pM24pU9ayAqyEifBXxU72nS1lOPQsT7gnufHAdaiYQTYLBy5RIO9A5m7Nyp26oajpar+Fza2VMPOVDQrBCrxfU2bfW1NmTFkody0loJKwiXuxqIzsVb5GD9vO0Yeip7eLysjRcVzWcgYVRahxcxO+VXqoIL7cU2YceGRf1RmhUuByT5l9b08ZVVNnLbOxQD1Ot3m/p4y6kEnTTqfKaabLNWVUv47QG1vKSGjhSHbOkW7+Tq/WlM33QUBrjAb5cTFXO8rsOzvKHs7zzUSSfbqkjMuWXPPZakmZcUkZ3Qd2jz/f1Q2Xz+ZeMEJvLnDQsPL1Yk2ZfW9NmTF3WWgl4BGVUGx5uahsjucCbwArZl8PdLmn7AiVdvd9sacs4qvViwuQ7+MDK8OxPoB/+ceffv/l6z/+8te//e2fv//263/9fPz7v/z628//+duv//r7n59/9M9f/vSPn/Ff/x8=);strokeColor=none;spacingTop=-3;spacingBottom=-3;spacingLeft=-3;spacingRight=-3;points=[];labelBackgroundColor=none;rounded=0;html=1;whiteSpace=wrap;" parent="1" vertex="1">
          <mxGeometry x="429.5" y="1030" width="77" height="30" as="geometry" />
        </mxCell>
        <mxCell id="QWRjxhVPjkHXVvezQv8i-27" style="edgeStyle=orthogonalEdgeStyle;rounded=0;orthogonalLoop=1;jettySize=auto;html=1;" parent="1" edge="1">
          <mxGeometry relative="1" as="geometry">
            <mxPoint x="464" y="1073" as="sourcePoint" />
            <mxPoint x="464" y="1139" as="targetPoint" />
          </mxGeometry>
        </mxCell>
        <mxCell id="QWRjxhVPjkHXVvezQv8i-28" value="TCP" style="edgeLabel;html=1;align=center;verticalAlign=middle;resizable=0;points=[];container=0;" parent="QWRjxhVPjkHXVvezQv8i-27" vertex="1" connectable="0">
          <mxGeometry x="-0.0566" y="2" relative="1" as="geometry">
            <mxPoint as="offset" />
          </mxGeometry>
        </mxCell>
        <mxCell id="QWRjxhVPjkHXVvezQv8i-29" value="&lt;div style=&quot;font-size: 1px&quot;&gt;&lt;font style=&quot;font-size:22.58px;font-family:Arial;color:#000000;direction:ltr;letter-spacing:0px;line-height:120%;opacity:1&quot;&gt;Зона доступности 2&lt;br&gt;&lt;/font&gt;&lt;/div&gt;" style="verticalAlign=bottom;align=center;overflow=width;vsdxID=5;fillColor=#e3ebff;gradientColor=none;shape=stencil(vVNBDsIgEHwNRwxCjHqu+g9iaUtEaBa09fdSwdpi9dBDb8vOwOwsGcQyW/FaIEqsA3MRjcxdhdgBUSp1JUA6XyF2RCwrDIgSzE3n4VzzjtlVV3PvXmjDPdLdoOQRTrvtavNqnAKXw9mDELkBIhDJaxrJZIy/YRLfbjFvpcVgHHfS6JGu4lAK7GVwoXg5gmwjRP3VjoMpqQcm9tPKs0z0Y6crWcBHqt0PN8tJspXFfmNKdpaBH8tYwML/VPjiE6dCKhXSOMTT+PlWiC47PgE=);strokeColor=none;spacingTop=-3;spacingBottom=-3;spacingLeft=-3;spacingRight=-3;points=[];labelBackgroundColor=none;rounded=0;html=1;whiteSpace=wrap;container=0;" parent="1" vertex="1">
          <mxGeometry x="670" y="760" width="390.22" height="680" as="geometry" />
        </mxCell>
        <mxCell id="QWRjxhVPjkHXVvezQv8i-30" style="edgeStyle=orthogonalEdgeStyle;rounded=0;orthogonalLoop=1;jettySize=auto;html=1;" parent="1" source="QWRjxhVPjkHXVvezQv8i-34" edge="1">
          <mxGeometry relative="1" as="geometry">
            <mxPoint x="935" y="980" as="targetPoint" />
          </mxGeometry>
        </mxCell>
        <mxCell id="QWRjxhVPjkHXVvezQv8i-31" value="TCP" style="edgeLabel;html=1;align=center;verticalAlign=middle;resizable=0;points=[];container=0;" parent="QWRjxhVPjkHXVvezQv8i-30" vertex="1" connectable="0">
          <mxGeometry x="-0.0566" y="2" relative="1" as="geometry">
            <mxPoint as="offset" />
          </mxGeometry>
        </mxCell>
        <mxCell id="QWRjxhVPjkHXVvezQv8i-32" value="" style="shape=image;verticalLabelPosition=bottom;verticalAlign=top;imageAspect=0;aspect=fixed;image=data:image/svg+xml,PHN2ZyB4bWxucz0iaHR0cDovL3d3dy53My5vcmcvMjAwMC9zdmciIHdpZHRoPSIzMiIgaGVpZ2h0PSIzMiIgdmlld0JveD0iMCAwIDMyIDMyIiBmaWxsPSJub25lIj4mI3hhOzxwYXRoIGQ9Ik0wIDE2QzAgNy4xNjM0NCA3LjE2MzQ0IDAgMTYgMFYwQzI0LjgzNjYgMCAzMiA3LjE2MzQ0IDMyIDE2VjE2QzMyIDI0LjgzNjYgMjQuODM2NiAzMiAxNiAzMlYzMkM3LjE2MzQ0IDMyIDAgMjQuODM2NiAwIDE2VjE2WiIgZmlsbD0iIzUyODJGRiIvPiYjeGE7PHBhdGggZD0iTTExLjk5NSAyNEw3LjAwMDk4IDE3LjczOEw4Ljc4MTk4IDkuOTI3TDE2IDYuNDUzTDIzLjIxOCA5LjkyOEwyNC45OTkgMTcuNzM5TDIwLjAwNSAyNEgxMS45OTVaTTIwIDEzLjE5NkwxNS45OTkgMTAuODk5TDEyIDEzLjE5NlYxOC4xTDE2IDIwLjQwMUwyMCAxOC4xVjEzLjE5NlpNMTguNzggMTMuODk2SDE4Ljc4N0wxNiAxNS40OTlMMTMuMjE0IDEzLjg5NUgxMy4yMTlMMTUuOTk5IDEyLjI5OUwxOC43OCAxMy44OTZaIiBmaWxsPSJ3aGl0ZSIvPiYjeGE7PC9zdmc+;container=0;" parent="1" vertex="1">
          <mxGeometry x="935" y="830" width="28.571428571428573" height="28.571428571428573" as="geometry" />
        </mxCell>
        <mxCell id="QWRjxhVPjkHXVvezQv8i-33" style="vsdxID=5;fillColor=none;gradientColor=none;shape=stencil(vVPLEoIgFP0aljgEVuPa6j+YRGUica6U9vdhUKk4LWzG3X0cOPdcOIilTclrgShpDOiLaGVmSsQOiFJZlQKksRFiR8TSXIMoQN+qzOU175F9dNX3/obOnSP9CUoeLktIFL8KJ4flcLZN8NhtRJiDwxsf7VwhQHjAhniCDvNONhi04UbqakSuOBQCWy6cK16MWk0rRB2U/XRKVgMlSRwl+1nyhWI+s0+Xs4KYgNvPtlBKuJvVniX4En+9yfxWVpDx2yc2+Bosl0o5fw77U0PakjMzOz4B);strokeColor=#ff5958;spacingTop=-3;spacingBottom=-3;spacingLeft=-3;spacingRight=-3;points=[];labelBackgroundColor=none;rounded=0;html=1;whiteSpace=wrap;container=0;" parent="1" vertex="1">
          <mxGeometry x="870" y="820" width="130" height="100" as="geometry" />
        </mxCell>
        <mxCell id="QWRjxhVPjkHXVvezQv8i-34" value="&lt;div style=&quot;font-size: 1px&quot;&gt;&lt;font style=&quot;font-size:22.58px;font-family:Arial;color:#000000;direction:ltr;letter-spacing:0px;line-height:120%;opacity:1&quot;&gt;InsureTech&lt;/font&gt;&lt;/div&gt;&lt;div style=&quot;font-size: 1px&quot;&gt;&lt;font style=&quot;font-size:22.58px;font-family:Arial;color:#000000;direction:ltr;letter-spacing:0px;line-height:120%;opacity:1&quot;&gt;namespace&lt;/font&gt;&lt;/div&gt;" style="verticalAlign=bottom;align=center;overflow=width;vsdxID=6;fillColor=none;gradientColor=none;strokeColor=none;spacingTop=-3;spacingBottom=-3;spacingLeft=-3;spacingRight=-3;points=[];labelBackgroundColor=none;rounded=0;html=1;whiteSpace=wrap;container=0;" parent="1" vertex="1">
          <mxGeometry x="870" y="860" width="130" height="54" as="geometry" />
        </mxCell>
        <mxCell id="QWRjxhVPjkHXVvezQv8i-35" style="vsdxID=5;fillColor=none;gradientColor=none;shape=stencil(vVPLEoIgFP0aljgEVuPa6j+YRGUica6U9vdhUKk4LWzG3X0cOPdcOIilTclrgShpDOiLaGVmSsQOiFJZlQKksRFiR8TSXIMoQN+qzOU175F9dNX3/obOnSP9CUoeLktIFL8KJ4flcLZN8NhtRJiDwxsf7VwhQHjAhniCDvNONhi04UbqakSuOBQCWy6cK16MWk0rRB2U/XRKVgMlSRwl+1nyhWI+s0+Xs4KYgNvPtlBKuJvVniX4En+9yfxWVpDx2yc2+Bosl0o5fw77U0PakjMzOz4B);strokeColor=#ff5958;spacingTop=-3;spacingBottom=-3;spacingLeft=-3;spacingRight=-3;points=[];labelBackgroundColor=none;rounded=0;html=1;whiteSpace=wrap;container=0;" parent="1" vertex="1">
          <mxGeometry x="870" y="1147.1100000000001" width="130" height="105.5" as="geometry" />
        </mxCell>
        <mxCell id="QWRjxhVPjkHXVvezQv8i-36" value="&lt;div style=&quot;font-size: 1px&quot;&gt;&lt;font style=&quot;font-size:22.58px;font-family:Arial;color:#000000;direction:ltr;letter-spacing:0px;line-height:120%;opacity:1&quot;&gt;PosrgreSQL&lt;br&gt;&lt;/font&gt;&lt;/div&gt;&lt;div style=&quot;font-size: 1px&quot;&gt;&lt;font style=&quot;font-size:22.58px;font-family:Arial;color:#000000;direction:ltr;letter-spacing:0px;line-height:120%;opacity:1&quot;&gt;(master)&lt;/font&gt;&lt;/div&gt;" style="verticalAlign=bottom;align=center;overflow=width;vsdxID=6;fillColor=none;gradientColor=none;strokeColor=none;spacingTop=-3;spacingBottom=-3;spacingLeft=-3;spacingRight=-3;points=[];labelBackgroundColor=none;rounded=0;html=1;whiteSpace=wrap;container=0;" parent="1" vertex="1">
          <mxGeometry x="870" y="1192.1100000000001" width="130" height="53.21" as="geometry" />
        </mxCell>
        <mxCell id="QWRjxhVPjkHXVvezQv8i-37" value="" style="shape=image;verticalLabelPosition=bottom;verticalAlign=top;imageAspect=0;aspect=fixed;image=data:image/svg+xml,PHN2ZyB4bWxucz0iaHR0cDovL3d3dy53My5vcmcvMjAwMC9zdmciIHdpZHRoPSIzMiIgaGVpZ2h0PSIzMiIgdmlld0JveD0iMCAwIDMyIDMyIiBmaWxsPSJub25lIj4mI3hhOzxwYXRoIGQ9Ik0wIDE2QzAgNy4xNjM0NCA3LjE2MzQ0IDAgMTYgMFYwQzI0LjgzNjYgMCAzMiA3LjE2MzQ0IDMyIDE2VjE2QzMyIDI0LjgzNjYgMjQuODM2NiAzMiAxNiAzMlYzMkM3LjE2MzQ0IDMyIDAgMjQuODM2NiAwIDE2VjE2WiIgZmlsbD0iIzUyODJGRiIvPiYjeGE7PHBhdGggZmlsbC1ydWxlPSJldmVub2RkIiBjbGlwLXJ1bGU9ImV2ZW5vZGQiIGQ9Ik0xMyA4SDE4QzIxLjMgOCAyNCAxMC43IDI0IDE0VjI0SDIwVjIwSDIyVjE5SDE4LjZDMTUuNSAxOSAxMyAxNi41IDEzIDEzLjRWOFpNMTkgMTdIMjFWMTVIMTlWMTdaTTEyIDkuMDk5OThWMTMuNEMxMiAxNi44IDE0LjYgMTkuNyAxOCAyMC4xVjIwLjZDMTggMjIgMTUuOCAyMy4xIDEzIDIzLjFDMTAuMiAyMy4xIDggMjIgOCAyMC42VjExLjZDOCAxMC4zIDkuNyA5LjI5OTk4IDEyIDkuMDk5OThaIiBmaWxsPSJ3aGl0ZSIvPiYjeGE7PC9zdmc+;container=0;" parent="1" vertex="1">
          <mxGeometry x="914.5" y="1151.1100000000001" width="36.26923076923077" height="36.26923076923077" as="geometry" />
        </mxCell>
        <mxCell id="QWRjxhVPjkHXVvezQv8i-38" value="" style="group" parent="1" vertex="1" connectable="0">
          <mxGeometry x="713" y="800" width="336" height="133.71" as="geometry" />
        </mxCell>
        <mxCell id="QWRjxhVPjkHXVvezQv8i-39" value="" style="shape=image;verticalLabelPosition=bottom;verticalAlign=top;imageAspect=0;aspect=fixed;image=data:image/svg+xml,PHN2ZyB4bWxucz0iaHR0cDovL3d3dy53My5vcmcvMjAwMC9zdmciIHdpZHRoPSIzMiIgaGVpZ2h0PSIzMiIgdmlld0JveD0iMCAwIDMyIDMyIiBmaWxsPSJub25lIj4mI3hhOzxwYXRoIGQ9Ik0wIDE2QzAgNy4xNjM0NCA3LjE2MzQ0IDAgMTYgMFYwQzI0LjgzNjYgMCAzMiA3LjE2MzQ0IDMyIDE2VjE2QzMyIDI0LjgzNjYgMjQuODM2NiAzMiAxNiAzMlYzMkM3LjE2MzQ0IDMyIDAgMjQuODM2NiAwIDE2VjE2WiIgZmlsbD0iIzUyODJGRiIvPiYjeGE7PHBhdGggZD0iTTExLjk5NSAyNEw3LjAwMDk4IDE3LjczOEw4Ljc4MTk4IDkuOTI3TDE2IDYuNDUzTDIzLjIxOCA5LjkyOEwyNC45OTkgMTcuNzM5TDIwLjAwNSAyNEgxMS45OTVaTTIwIDEzLjE5NkwxNS45OTkgMTAuODk5TDEyIDEzLjE5NlYxOC4xTDE2IDIwLjQwMUwyMCAxOC4xVjEzLjE5NlpNMTguNzggMTMuODk2SDE4Ljc4N0wxNiAxNS40OTlMMTMuMjE0IDEzLjg5NUgxMy4yMTlMMTUuOTk5IDEyLjI5OUwxOC43OCAxMy44OTZaIiBmaWxsPSJ3aGl0ZSIvPiYjeGE7PC9zdmc+;container=0;" parent="QWRjxhVPjkHXVvezQv8i-38" vertex="1">
          <mxGeometry x="24.99515151515152" y="86.14999999999996" width="27.69545454545455" height="27.69545454545455" as="geometry" />
        </mxCell>
        <mxCell id="QWRjxhVPjkHXVvezQv8i-40" value="&lt;div style=&quot;font-size: 1px&quot;&gt;&lt;font style=&quot;font-size:22.58px;font-family:Arial;color:#000000;direction:ltr;letter-spacing:0px;line-height:120%;opacity:1&quot;&gt;Kubernetes&lt;br&gt;&lt;/font&gt;&lt;/div&gt;&lt;div style=&quot;font-size: 1px&quot;&gt;&lt;font style=&quot;font-size:22.58px;font-family:Arial;color:#000000;direction:ltr;letter-spacing:0px;line-height:120%;opacity:1&quot;&gt;cluster 2&lt;/font&gt;&lt;/div&gt;" style="verticalAlign=middle;align=center;overflow=width;vsdxID=7;fillColor=none;gradientColor=none;shape=stencil(nZBLDoAgDERP0z3SIyjew0SURgSD+Lu9kMZoXLhwN9O+tukAlrNpJg1SzDH4QW/URgNYgZTkjA4UkwJUgGXng+6DX1zLfmoymdXo17xh5zmRJ6Q42BWCfc2oJfdAr+Yv+AP9Cb7OJ3H/2JG1HNGz/84klThPVCc=);strokeColor=none;points=[];labelBackgroundColor=none;rounded=0;html=1;whiteSpace=wrap;container=0;" parent="QWRjxhVPjkHXVvezQv8i-38" vertex="1">
          <mxGeometry x="-13.303030303030303" width="116.36363636363637" height="86.13999999999999" as="geometry" />
        </mxCell>
        <mxCell id="QWRjxhVPjkHXVvezQv8i-42" style="vsdxID=6;fillColor=none;gradientColor=none;shape=stencil(vVNdD4IgFP01POIQms1nq//BEpVF4q6U9u/DoFJxPdjm2/04cO65cBDL2oo3AlHSGtAX0cncVIgdEKWyrgRIYyPEjohlhQZRgr7VucsbPiCH6Krvww29O0eGE5Q8XJaSaPcqnByWw9k2wWNZRFMHhzc+SlwhQHhATDxBj3kvWwzacCN1PSFXHEqBLRcuFC8nrbYTognKfjol65GSNIn28SL5SjGf2efL2UBMwO1nWykl3M1mzxJ8ib/eZHkrG8j47RMbfA1WSKWcP8f9uSFtyZmZHZ8=);strokeColor=#5282ff;spacingTop=-3;spacingBottom=-3;spacingLeft=-3;spacingRight=-3;points=[];labelBackgroundColor=none;rounded=0;html=1;whiteSpace=wrap;container=0;" parent="QWRjxhVPjkHXVvezQv8i-38" vertex="1">
          <mxGeometry x="-34" width="370" height="130" as="geometry" />
        </mxCell>
        <mxCell id="QWRjxhVPjkHXVvezQv8i-43" value="" style="vsdxID=5;fillColor=none;gradientColor=none;shape=stencil(vVPLEoIgFP0aljgEVuPa6j+YRGUica6U9vdhUKk4LWzG3X0cOPdcOIilTclrgShpDOiLaGVmSsQOiFJZlQKksRFiR8TSXIMoQN+qzOU175F9dNX3/obOnSP9CUoeLktIFL8KJ4flcLZN8NhtRJiDwxsf7VwhQHjAhniCDvNONhi04UbqakSuOBQCWy6cK16MWk0rRB2U/XRKVgMlSRwl+1nyhWI+s0+Xs4KYgNvPtlBKuJvVniX4En+9yfxWVpDx2yc2+Bosl0o5fw77U0PakjMzOz4B);strokeColor=#ff5958;spacingTop=-3;spacingBottom=-3;spacingLeft=-3;spacingRight=-3;points=[];labelBackgroundColor=none;rounded=0;html=1;whiteSpace=wrap;container=0;" parent="1" vertex="1">
          <mxGeometry x="870" y="985" width="126" height="86" as="geometry" />
        </mxCell>
        <mxCell id="QWRjxhVPjkHXVvezQv8i-44" value="" style="shape=image;verticalLabelPosition=bottom;verticalAlign=top;imageAspect=0;aspect=fixed;image=data:image/svg+xml,PHN2ZyB4bWxucz0iaHR0cDovL3d3dy53My5vcmcvMjAwMC9zdmciIHdpZHRoPSIzMiIgaGVpZ2h0PSIzMiIgdmlld0JveD0iMCAwIDMyIDMyIiBmaWxsPSJub25lIj4mI3hhOzxwYXRoIGQ9Ik0wIDE2QzAgNy4xNjM0NCA3LjE2MzQ0IDAgMTYgMFYwQzI0LjgzNjYgMCAzMiA3LjE2MzQ0IDMyIDE2VjE2QzMyIDI0LjgzNjYgMjQuODM2NiAzMiAxNiAzMlYzMkM3LjE2MzQ0IDMyIDAgMjQuODM2NiAwIDE2VjE2WiIgZmlsbD0iIzUyODJGRiIvPiYjeGE7PHBhdGggZD0iTTE3IDE3SDE5LjNDMTkuNyAxNy42IDIwLjMgMTggMjEgMThDMjIuMSAxOCAyMyAxNy4xIDIzIDE2QzIzIDE0LjkgMjIuMSAxNCAyMSAxNEMyMC4zIDE0IDE5LjYgMTQuNCAxOS4zIDE1SDE3VjExSDE5LjNDMTkuNyAxMS42IDIwLjMgMTIgMjEgMTJDMjIuMSAxMiAyMyAxMS4xIDIzIDEwQzIzIDguOSAyMi4xIDggMjEgOEMyMC4zIDggMTkuNiA4LjQgMTkuMyA5SDE3QzE1LjkgOSAxNSA5LjkgMTUgMTFWMTUuM0wxMCAxMlYxNUg3VjE3SDEwVjIwTDE1IDE2LjdWMjFDMTUgMjIuMSAxNS45IDIzIDE3IDIzSDE5LjNDMTkuNyAyMy42IDIwLjMgMjQgMjEgMjRDMjIuMSAyNCAyMyAyMy4xIDIzIDIyQzIzIDIwLjkgMjIuMSAyMCAyMSAyMEMyMC4zIDIwIDE5LjYgMjAuNCAxOS4zIDIxSDE3VjE3WiIgZmlsbD0id2hpdGUiLz4mI3hhOzwvc3ZnPg==;" parent="1" vertex="1">
          <mxGeometry x="919" y="990" width="32" height="32" as="geometry" />
        </mxCell>
        <mxCell id="QWRjxhVPjkHXVvezQv8i-45" value="&lt;div&gt;&lt;p style=&quot;text-align: left; margin: 0px; text-indent: 0px; vertical-align: middle; direction: ltr;&quot;&gt;&lt;font style=&quot;font-family: Arial; color: rgb(0, 0, 0); direction: ltr; letter-spacing: 0px; line-height: 120%; opacity: 1;&quot;&gt;&lt;font style=&quot;font-size: 18px;&quot;&gt;HAProxy&lt;/font&gt;&lt;br&gt;&lt;/font&gt;&lt;/p&gt;&lt;/div&gt;" style="verticalAlign=middle;align=left;overflow=width;vsdxID=6;fillColor=none;gradientColor=none;fillOpacity=85;shape=stencil(pX3bsiPHsd3X8LWjrlmZj45j+z8UFnWoOLKooChb/nuvVXuAbmQ2uhqbehDJGRQ6UZ2Xlfef6n/885c//ePnn0r65++//fpfP//fv/75919+qv/9p1L++vdffv7tr7/j336q/+On+h9/+fW3n//zt1//9fc/f/33P/7ET/Lf/vev/4ff8O+vc2nTykMl/b8ffzD/639+ffZvf/374bO6jfztz1bdynj/+bFV/UOfb1sv7z9etix/5OMLasItfvr5i5u8/uzr28xpG+X1d+pm7787fh5/0vvFgbxp+4MH2pZfDvyvf/329Rvyjw+ULZmptlFzaQ8u2v9yVJNkKm10S+nHl/+7PP++mmb8r7dRHhdXnsSIyqjaTK39eMP/rodv/vH5+vxtdri99N/OqK1bkmIpg9hh3VGbwAZilkYuUrIjtW5NutYMmqTiJ9srtbZZSTm3YvieYebprZu1V3p5YkUuGL9rH1Yk5YT7c/f77qEPmvuWU7OhqVSr3V0vWKFYw/neUzdHbt+6uuvN2+gremVLvaQEeq33EZjBcIPDtEjF/Zk6amVryVrNFe9HsqO2gRl0jIGL0FqeN/EkWDbpjmC5ccGyKa6wgs/KeLL+4y9tAyNYbpbxc0ZK/nrHlsBGZCTwTEqpvNJcMt5e6wb2LmZt5/56OP9KMzTdkuR3T/3x91C2qYpmqVmlxDtW/E7wjNYk8nwHT5Jt69aLmuHwD537cseO3gqFoes7rq2LQgng3dZXaiv0Sx2CVyoQ9XbGwtahPfgOwDqv1NaOXzP4atoQSfGC+9YcU9Sx5bXQgQtBUM2tFne7NBUGVZXByVK8Omtby0nAMPgCUOtvF4fVRscX4wX80MNHDaGe2Bdz8E6htZY0NWk9ib/c0+ftCg2Kzow/R9IIlHYRbQJBxPfHm4X6beFmbXm1ZYPCUUulayviqB1baQ2iVvE2zVMLIw9ZAiOZtn7QhA+CqTzI2k0UghsJzpv52wV3OHqDNXye+Z59/qOfd3ghe3BBYPQCXMKF4wikGeLVMpSC0xQK2astNzAH7HdKNdx5ylQzyit39w3aqT7wFjVRH3tuLpvnD/zJUlWArQbUgXTIe+lBt1FbaC5ZR6/goRRtNCSzNhlGwoOySLXaMKmQzCh8Y/zk2ePHhVyqippJ5oAJaQ5OnD9wVxUDOno0ge5KFlUFcRftMjR9eWrxXa9lT20JzByIhU2XBFmvA3ZfA5jAK5VCy4oXKuINR4f1x9E0tFpzwgeTowqQ16jCoYy8bcZZeSUXjJvHmt6TRz54F8QCLYATKtRw3vmvHH4sfqSUVLS3oC9gRfFOuvQMrUHIEk1H9gBItrK847ZBF0NPjaSQuMDAtBC4+UEVhn+mwMFgqA6B/NLKHrHVTajIWwHrPwzp0XwURzA+vzYfgCZCJTAmSnEq4vyRu37Q2qHGMn5rrgESE702Yv+k0PfFPMYEy3oIDy2+xD/QSgU2AiYWsMA7HDDPWiBVHQB+eCxxqgzLk6HMCCZyF2iXYD3UkepU77n5WKlrp991S80faPl4IFwGj9CFImI5wa+4ipEEN1WSRP2u+PYBFQWGpSLy+JXwaQAcw6Y2wMX9fH1+f3ZynZca06D3INCEjql56cA7AL0Z/hf+PrqLeEe9KbhtFPzTuYsLBwxg3GPBGw5YAY+C921kKOlUgjwvHLAC8erQttZr6eJuN0MF1qLQFBMrmlPyOKvmb3eTlQmdsZKaVCvYOOUo0YKXprjK2nuBGrLiSIYGA0fQKwfLeJoNHgAQnGjP1AjJX3Lb4wf7H6XlLZ8+c/dn4ALjl4xGww4hDQQLZHoMAlYwledimLUKDIPv0ZEfHHcg+MmEB0u68nNpvqpCawJtFHU3XKnjOzxVvGKIZTBNeLEDLyhD09BORNMPJ1ogB/Ai8HscUMHh7LiCuHnNxvCPYJ/x4ro5vxxYv9aMZ8EflJyi1EHhDmAC/lQYJ0fslUtzInM3XBpIOeRJ4XvBcGcPUi5dGrAnpRBKCyBmRFYYm/QKqYOfAG/SaTNQ5iw+EFxeWlDcXu8KJxUKwIc8wEuQQpDSpFrUvieqe/fDoW/AQTZUvd08mIkDG3vfyxmjtW1xxsgAbT80RjiCnzogEVK0BdUDSbYJaKFMhX8/wusDHAMeg7AXHw08R6e7JXrosQ8AMRgNnktveH/JhvdGTwH4bohgEDt1O/RAeVrGW77GmVTc8DUohp1uTwZLFO/pX/kaOAk4ZFUA4VJ2nMbf2aSAdU2sOBSMkxYdjbpC7lBSlbiiJrryI7pxsOMGZF8LFLpGm9kHwMiAdzTSziUvzgZel+YGhV4DKuF5J8eMqi1V+rvH7syCW4f6gFYHUwQwNX8zkABYSSx4G4ClNUmGQutiI16yh1HAwctLxlvttMYDGLw5fmC4lGoSOgl3JBGYkJkS9WhTRje9DaI3AVEk2MqZ/+YvOfLwPLKWuHO5yYvHliuJvRsijkqC97yMaZ9qpYO/QX8PuroZ/bmo0s5V4kGRAN3A7sqA+Jl5N/Sghe/r+rXqftX1NW9PEf1xQLdcjgdenwAlUKo/MF4O+GuszBONbFBBxcQrhLwxJ1NbAmoiuzpQWpl7YMQC4pPpzXvD3phHGuAsKJ3Hlz/uEIeLD1vL44/ev3caHMgQFEGG9xojq6CGMWsgFa9vcZIhIcZOhWHZYB0uMZNFam9gJvBhHgZhToDBn2AmqNOWVQFDIJVOooiXJBukFX6COXEq8pD3F7y0pJRXD3rhBIJezwdlo/s3+DjJxUdHSt8sw61vEKjmWAD3Rl0IEYOzJRb9v/4IT7+48EuNdfbIx99lnAdutkzPcERXCkC+MWqNC+45pgOIOOFCtWaw61m8vsLxGB6RFR7FqQ4fCq8T5rG6kORXggIQAVIGto5QX4DQGA3AB4J6LdNtKVLV8JN8NId8FDOGsvRMIEi5Q/LHKCNo10RPSqffMuj7eXIVOAK2oNXWnzD5bjwAcuaswY14wBRtSLQxsZd2LrsZD6BOaVbghcGVbT1GXPD3sAbWcwP/5xATgCrL3uyWx++4oBov4ovaXMczkr/b3AE3E6quKp0Nc0JH3Qy93XtW2ihHcCcY+8qUJT7B696yZSd14HrxSsJZl7Qb6qdFO4D509eiicaj19ayE9M8Nv4xwGbvRVOAx3wpiRi44f+H09UMlwCnjlFxMXDXwg9MwUDnG1qQfITLaUXhUycfoiFcrczpFctwLYNegZs7mCBhiMfjeb5OrVDozOdANwW0aY9alyNyG8uwEt7ahDnAv0kc17995i6nEAmF4wLArzFEQ+QGpw56UDvAbAyFjZBAmEnlFc1jq0JACMqgv2MoDLoHLkoGbCfzB7uYB5AqlDcwf4puSNoGc7110I/RE3Xo8wcwN3V5ze+eekjZJUY/pXbA5OdTy+EXZ6sNwKOfBMI0V1is0fe89vGKY8Ju6TSRHMWLmyFbOc/XMawHLi/5THvjjRNnGG/Qx8EunWjbnPa+5UNTcmC9lNFET+uVC015VXhZoBaXdxKzg2EVJTCFPXek4mzzQKmuuZcZVt4KUygjndwtFH+CdgCj9HywxzvFVkHvaJrovwQQmljPNNO3ADht91x2U5PcDTun4Exzrx0J53mUTV4PLCrUWJiQ/+ABvKt2cUB2yf3mgUU9IZjF1RV8fGBFUrzWjw8srnV9wL1p255FJk99eB1P5BEBA8P4Zmm+mmyR3MLhRmQOlxDMHWHLZWarpRBlX2a2GjEIpFVBc45A9jKx1eBJwGfpkNQ6mgPeCyDbytacQb8BZBvLGQF48OOfquMmiG2AJwNIgAZKT4o2L7NaOOzdsDtZrdY3+CWARCxX9AB2kdHCWYUzSb9FNQDYRUZrHnZq8EZG6/yZNzNaODyIpifj5lh48z6dhZPtpOxmZcYb8xzwawbx70kg/DKdhTdKxKIs3ZTqo8tXuSwykjfi61xWI7uULgVIRtQ5uKtcFg4TVMGhAUIKofCruMyJmN2IyzTGSfFdMLG+2vgyKtOY7TCGt2t/xpdupbFackTeyGFBV1a8YNwJZKz593+RwzrX0DdyWEdrcDuuecOEvNoc3GINFRjXNodHoPdYENx6+zCBhcN4L0ovE7BLntx3K4fVUqgQv5HDAoNVFucYoB5s4f7IO2ksHCb8hq8Bh8NXgF6h7zNhuAG/KX1j8OdneLY+SnmFvxuTOrCgYKpchif1KoWFk+YT5jdSWI0RZUguU22pOAV+mb/CyW5wOotB7IGuPROs8lc4Hw3OMn319qk301fz9xbwrMG7YRTI155dZbB4x7FYbpnB4kuFcw5bKHBVfCXXIoM1eakAxbGSPXlqF+mrE/69k746lZebqau3gnoze3WiHu5kr96qpJsJrHN9eDN7ddS/t7X8DaXttPzw6a6F79LgEn7UFhUPMKJ6UdndQ+X44gm97lG5bx5Y+JC9+AKQjw9kgDO5vCWpnzwhvriPD6xe3PrAKy/hxfVXXz5t6eo1lL1+7PzzXiBxojZjCgyQ0Cc8GMtnWT1A+Iw4O3uNsyyzhRcENCkeXABOArxZrn0UCY4XftlwdhAGd4UMcaq1ypAXzWA3D2KFVgFKvLKLLFqVDqUFOwcwnqT4qnHmD6sw+iRS9/jWk+DkOwjkhoa2bZYVABPAQmRP7PkDy/NsZSwt1dR8wIC/E+aR9VrqFXO81aVXAEnpBJBVWVb9SiVsKRyywayDKR1oD4UUrwQm3lpmO12w1OAhpqYaK2/gpvtrxfHqbPUry56p5EOu7B6X8wRznoX9RepNOy6z02PPDDDAeHsnzZilbAlW1LJPyEAEAODgqRqgTIk/zwJ6eilMeMc1cFGANfCNTy91fx9FAU86/orA1MdZwaaJ3WIDL3LQl/NS2QcsK2wvoCtuwwERnK6O3mf50oVUJqZi4eFaU8U/zYP+Nw99kJy3lLRBiwjE0uf8N7wwSHsuuA72PHqKsw+8P1vBLtUIEAQ7C4XNfl7pQR5ZFE6Pium5FsjtUHtsW7QWstIwGKlZZuBsFv+2QK6vBluy+9oIuK78l8+O/OhEPbcYe1X3Nz/fH2DkPDC7PQvNv/d5sxfvKDbb1/aHPr+gJ/2BD1/f5OLDsdfuFV9ZekHboeiqbtldTF4oSTZEw5zDGVAVX8FnsOe0Dglu6KjV15WxpFPpjBW27rzKhMmWKCxwiBkQdRqS/TMOlNt4uYvzMrjMMCDMB4CHdKcjjUVLbNxMig9q6J2HvjJ4ITDKVNyOWtvs+D8XgLXQtwkpX9Cq9LBt0EJYVh/dfvO88jjLZmJgmSLSsw/F6zZYdJlEARXcxY7QSoAXUVZOsGyzeRcf7i37eh0wAfxB2PEG0yTiSIX7Zx100ltk+YMzPWBYuAk2Erznnn0ETjZ3rdrX/f3vnvi497xNBqDdGI/W1p1aZhoBn0BUftZ3/PjLgcuTzHZSeJM13KsDgqM9lOIVDySOa+iVkSEvXANaCQiDdWasg/IcAKPKhpJEDnIu72CGs/QO8J7Mt4nZps7WjLzOFWR60cA0wDop+YT/+fP2ZIu0JrDWyuBeaHLEzwRm7Ww3hEm3kwa8IvFmbzRxK5yTQljfx6HtLz/fZWVBkfKxwxlzqkmwABRBLypOcWmizoMRL+xL9zX+NVRUgGXbjQ7HkwfmnefrgBbtANxZI6kDeqQpW3zd1aowrlor2AtA3Fft1tCfi8+P67jH2DuQT4/EnzYYcVJhdCZ39T8NmLaDfAis7dNTdiVXgfzgH7fINQYDoZyCMqOF1TGNBmmkklrxDGSqCat/E4uwvEbuGxE9/DL8EEnuNdArg4x0+l/D98kYy7OkZZAqLDwKtsPxNz+/7OFNHCXAZBbcl6CRzx94y9D1TZgUFYGe78Ozdw6VctbWdVk0y/DADWwALeeQNTEEBDQNYG+mT6P20DoH2gCTOz1nDGwYm7nhqD2Ds8d+WJ9zTjEYGfthF5DqFYMN3z+r5TEi4xyC5V3/vjnw0XwEqCMgALxL/m3OoVc7swxvlmvV4YutBpCCjMJYL9t1wvV5qACludRkNAWDTY6lCjs7vd6FMjPgBNaVyvAvm7+F8xoSAGF1sIZaX2HUO5PnJQpRtBEr62s0AQz5cFpD7x4onD9wt7+d3XTCKE1z7j9+JBsZobVw68XlITRE9XGtwdk7QQqcTAMRGUQD4VrxrcYupi49eQgGFh2NOQpgRSWcCAaNUiTUG+JHWI3QU+7Y9dRIrETCuTFtk1eRWDhJ+VAm/80DWh9x4HdCJ1sF+CIss9mm6dDZ/IIMxAL/B659kDuZaaNBvdWbi34pK+tw4RnKO4njD5z0Q8O0PMzuheBdDYnCF2Rjjh48W8PUjLF9QQ9OPhoeQnAAVwccZmF7dsyBk344wnhWwV6QCjUyGGttLadSXkkdcyYGu/1hE4JHCdYCj7LIRrKvpYe8ZqaJGvVd8bNTNFQKjnpjjoMy7mMw+5y34IoOBqN2c04YS7v8rbLIA45baqyPjLNTCHvxMtowOCHeS8uHXE59fj4tQa/OKvnEqTTmq04gImMAopAiE494DR5l58y4Dj3g8AuFqwHA0YRXn1Zl1Xv0J4KnHpq/3FChlQDHA9dBF7aXaTiw6gzmD+xsncg+wDpPw3eE012eQ+MO7xrOEYAjbGx50nkwBhS8WdKTPKDSUDQ+ZJ3xYHuC0N8aTIZ7uyVMh7DgOUFOatBMrDUFKdBKAE1OMw1WfVVl0hr+b2w+fzDqk1i7MS+JE5wGXVxjKDfUCMMhB8iCd0DvJgxfHIDHAu/RCrjTyRDUWp/Zjp7qsy/soJx86xf07no4DsNMQqjac02OC/AFVpmWgcf6TL8cSG2cREUBMh/uUk5VyXgvg3XkkdTk8AucvryMdg1W6mhWoPbhKSWO7wR+LYlvG+AbAephgu+rDsPhFwUXAEcwCkLfOXCBH2IIiBx8ABdgfY1rLsKxx0fcOzB8Ot6RdD6hEL8RZo1ZOA+qWTI2p6lIjGfIbA82plKGz2vh5gx/2WeJvXe4ZU891+fH63J4HscNGTAzay6KN+wkplov4MYSIppwAyFYStDXxMFpnOz8H1jy4DXs3UG+AJaf92ppBbJWby3gvo8PrMzG+sArFC3dDxlWe2ldC4wtvg1M7THj6g3n4chQAK0GY1M9poA3nMhYDIwnfYCjQ+tjI8DhsNXaawAV8N77LIqejevP4GZ9/jinZexZenDRjtK32hmehDUZvsUYL4ytmgzUwMcIw0c59gZqRucQUGcXFyF1pphfiV2H1DmkAABwusLqG4wXIXVm+GC/8Usl20lEHU4eAHDnyCLfApt9lJoh9RsDZFh2nefkuONwg0NYhDUUdPyZaXfUsrhP2aAsJSghxtQbOyHV8AXeo+NQumBr1i2wpw/c3QthzSCnm6rXl2W2CEGRDqgi85aGraqcM0RbFS42harIO+4F060cV1g7ixc+wXElz3l9lW/c8wC8BZ3zVnEHfs5ECZHUcSOhX2YfOfMNSRlg8BwwmOFlS1qXIaEvjRn/xKAZY6Q+/nAV/4+CdSf+PwdYsQcawEdPXIv38X/qj0qFpV/d3B5s0C9RDlKCfmndQU5mlr0jVB8o9IJaOO91tMF5XeZbMRjXYdeCMM1fQ3i0cEizwi9rg4DNEQt1b2zEgDOkYSoCjLGj1R71TG+BUd9eM9t0uC+tR9/al78JJj+plRwscBPCV0hU8Uqug2tYDYx3qb5QErIFo8J+DXgHPhNXnIobj77/S5ahGRPCeuFkRZ81+jIsUKpFY5N/Y5Noq3Bz2Bkb3eeraCBZ3NN7Ix7I6TgwHawg5jzhKJBXAUFIs3LiY4FTBomNbM4sjrEPVVsOvcMlpg/HSy/c59OWwHuZFT8NOuY5GuSg6WAggV8ZMWTyxXtWmWVo8ISFX+4HLuXQbsQk1/J63z1zB92Fc4mmljkZDzX1g3JIt6+ttwzkCUQu7DiR4cWyxJz3eugotTNcQPqt+9SLQzIIDmlhHXVhzOBEN5fKBD08hY+SQSyQdDrkTjZoSgvtc+Oo8TjU7DohREEFVgCEA77x0xQJKdknx9BRsRbUQvBcrd1gXLBLhk9ic8ZsZAW8H+jXylrGGqvZqDMZ6QQvAVL4+2WXIs0iM+PdF3sf8X3d2c7bk6CjV06B8yJCRe/CT6n1Wa/2zc8v6qfSLrHfPLCqoLJN2h87sCDp5FI/PnB9qzcOuHbhuo3XOIWugozzCLULs1++PQO2vxJ0wC1kl+0r17OBiJCVmwQK12z40B0zDvANMwNUXgfisM+FMly+EFMOnzeBH1kZv/SgjxqZQ3ZgIZKv/+Xsqi4zc8+qoEjsFULl+gNvvm9A1Ko4NkOwHK70CURlj6TAkOL/cLfecJeNXVulQr3OGVOO2FDLO25kxFuaQ+A5bY0F0o7WwXpR4UQroJDk1R+7ZRrnhTCC5wGqcuKHwFkdPUxLaM+2gpcw4+pez5/3YFnATdbQ8JG99EBpA8zOA0a9WFTUzbQyADkrAwKtzxE5u9E+dkW8axJVbsCBDI3Ro9Vmq1xmwGvsJfLlefR9L75x5AmLP9SGz4I9O2x3SnUJjtkDLISD7MLyMSBS0hqQhQDudN/LDPGgfYNnD6ea0Nhb7OvAyol0rSMrHB9RWXDGUemjBXqvIivQIkyz1wHvuXjkdlWrWNsm/mZvFCviWBKWKcL5f8ZEj8WKAziJAxl2DnmSeqqd97BKZnB3NsDVoLQOtmAXrjC6LdjxlQFxFqf72SVri9M5vIxNnJnddU58LwLdOMi+RRYJ0aEMzYAQ4MGLVOjMnn1Oo/Z99sZBgNd8llhBRQvWqnPcibph4gwE46d4amH+WLfUv5wER+ol6D6RiDugm3IotTeAJShyL8OXiHu2kHEYUWckype24Wey65brqYjLg7YR7yHUdRsr29LxLIXugwx7AWajIDuXMwt3fBC3sk2GQYHSWGdkXpHDBNAfhrPYIMt+GBwPB7GoN/T4+TP3nCHXjVmCKm++SmC24LOFlUWOvgNtsOqHKZrWgF28xsHlxuKcZasLXyfsnzLQPbw2nxVPNuc50EOLupztUYBK1Wc3B6eQsJadSziCeJ1gpLbebXQuJfnqgeVKMg/BjVjV9V4T8FKXLPBO/ezxDbCqGmuxR/M28lTp7cENzt2oXC7Wa6TWF4rc0ONrtezagV8/vXBMWvMbD8OBs1k0c20SW6x8yeV5QccDtHE9XmIxg+Kd9qD2ByskO6d0Azf428Ph6qPL5ZGbvYCYwhyBZBYkjBNHA3qWI3WyhOmabWyca8pBNCPUrbDFjE3tLPQezl63cVZXvkwu4FiHQ5Qae15CxX5nrwwAPSD9c2/IgVL+isa5ssmnbFiO3geriea43tBXP0LqGOy/rAc6f+TB2awV3p3C2EgOxDL1n6b71h2xSuSeGefkQJZ4r36QnN5YqtWmz8N8V+5eLynsW+fuPNWw3ofvn80+EPIGCBm4VTkHqnNGcufSxsCtfqGWtscEg0taWWkLlrLBeJufr0oDh3dIimWvmdsJruzUZJuupBIJnkl7ONRtr4U5cIFXTTcKCHBMGzQBh3GG1A2MN6MGfJe9SGRZQBBr9ImShymAjsAMmYpkL+w/kBqq2m8M2uUxWKAKKeDOiVdSrREXZdYCsVo3MoKwJgrgnktLXmklGjNO/IIJgycS77V4qDpuTAYh9zDH0pjXlOT1Fn0bYAJuegPfPsK6BzXLJqPZMTVOXDi4Sz2xv0FG9t1xUO5+PKqLtp31R7+anEV47kMDtfi0M37VD2bX15zeif1zoy3CgRP7B+s+OGwb/loN6IFfkLk6UllZ4yMsfWt4rZnzSKov7mYRWeYUXoNdCTOHItbB59eKum+aWYfFZrBQacxMhLC0rEnKPsQCk2McfjI4pLc4UjlDSIXje+rIYfwrWdC7rDf259LGJ1bsjem9OGIzh62ydAzIO/TM4yRFEP5z20cr7ZErdjHgVktL4u9VwkAAlh7eITU+cA+zsYErwytKWcOY2sZNepUQUg5LwA554NHY1QQZ9rP8+U68FyHrIVmd5QDGLQ65eJMCZKFFgGhb58CEwAO4N2417JLFU0ogyFFOZIIwL66FxnMXVD9TJEF8F4H4z+V9fWClUczj74io+/WB0+mOg1P0WQLqVD3rrsBMnV1T2ddqEFEXNulwInKTMAyDDn9inIDQx6o3pRI8aGvL9CVOdVZCcVTiPoVlD4IZgwvsJqrZ993hqEwJhvlp1Wk/K5tS4XB+Njg1AqoQscs3EAqPNa4Y0OQLr9l+ZVxTUVkL4I0+lz3jdTBM2kIofM5RFs4ELNwiHbWfb8RhJOOGqwLDQUDFOevllVhlu8Csu2CyINAKpQiDwoHJ7HONpaMs20jUgfVswqcPo4xlNI3WqKUfGM0vtcb5ol9uYIloiqE2FjN0jj6pIcasnBwOL6hXcpm/2bYX69fD5z/UKu7M+sBK5tcH3Jwl8VXFqzEYI8y1+PTAApZFkj4+sCJpfcDpXtu3LN17QvqwijcecB7lycCr0q4PhOEvXILJfQbWcAXO85in65wKCRTmB9U09ilDxqjCQh0NOw5SZhNZjXN1ovXVtsZfvXPbg8Axy2yZD+kjZe4V1gg+LwNojtrOvmFLbA0IJeHs78imHJOnYUZND349VLOtnKTT5+1mCM/JjOHVEgKO/JmDY7AYxK0+FwP9JKxExbXX4WM7PSogk/W4aRxjMxcDHzn2f+usl+fw/CLq47hgn17nOKLeamhTvvbmwK3dBXdueHNB6lYO3adieuOAU5dBTBcKmQMIx/WBk8F0o8+5aQk2SsNQ8Esc1llVxLW+ytRBrHPKTAnAHYdPEOa81b1a5VDntPLrcMzYEUaL33MscmLbOpfZNHWQvs/drX0kDoTgymtPLTufyuwE4EYSZ4B52lP7rKW+5P/zh+7JQvYusWwLGPhEDXKeRm10RNtZlmgwNcPCP/HZjB432+tYV1FQ6hjebW32hwU1qHPvIMBaL+Lb4MBJpnOdWzU/BAFHidIyl6/7ShqON3R3Oz9+Ka0nFkyuzfbHsrQ+4KT10Ld5Sx9I8lVwHx+w8lIOHQ60vebj3hMOk+S/eWChNUFSyX/swNDH9Lx3t/RRD1R8bx8fWMGt9YFXVpJQxSD5pXvx5JKeRflvDoShTtwYnlIbrFD3G4yFhduQZY7XluxUKU5W6HOWb1VfhgZ+YOooSaqt+3YpqSGGLfLo9HivlHAM1keHQst1H3MSNiqCHJM5BNtRWnEJHCnAvaG+UkYYGheu7eAGMwd4BObA6U9+fgV4cOvGGqTBDJCP5J0/sDxPdm5E6oBurJbyk0jxMwH4EvddZN8HyXftiZX1NjIKCqcxwObBT3bOLF/krJnrmYsVHbGcaJ8yEA2I8W43eQdfyRRZztmzQKyYc5x6ouwl7znQu9zNDQxdu5KBHaYR5k+V2x33rSLH18CZ2eyske5fAuA1kBCDDfsIisNL8BYXn9c7HMMthjJLxT1zczz7xOxZRh3e4uKHEMpzlwSXEzhi2yZDwfadVSgu/SkRIUtb72MRtgN+rShjFCQQe/LAgyQytTdw65lNSxKobXOLHMGQBzPkqJOrXcV/heWNYpXyWLqL2PFdCjsOuMKu9rB6gEpHW2Ve4rC4dr94FsXCucwltMlLrFu7weJrje+mJO2T/J6SlS+gAAtEzB8oLzHmMGiMGxQ7kw/cIx4GDwn7O+GhcfbF3pq9p98bGUFZNpi7HzbGNzp3w3BMiq+qHbGQgEBmFUfk0B/Dw+BqcoxDYE62yqSR2ixZdmKP21QgcVgJgt9g0uZUo8LlcT4ti4M+PSUn8f5AK8BqpybhGmE/ng5fMBhf5HyY5mfLMG/R2JoylxRHUhXaes5X6S0UPeBs0kBsmD0UiGX5JzNisGxnxJ4+cq8Ygd6CpCSm2rwYCQefGzcXcrNCINdrKHnsm7igtWyMa7NnWbKvzYQRHXByG/COVT/CgVU1ULJtrjzYpyY+aVVYf+6g5hvLoWidNe2v1I60LnObFf94yUxlhOmq/Er8BFrZZL72ZdBsdP4k5suKpxavDH+I3ygsqPCTNXPYKTFuBHNIT+M2UOJFX7U+uG+osa9h4A69dBVO7wKWBEGj10AsdHlPymHzaslfbI1jhsoNPqgbJ4MIeI+dp+Fmk80N3kweOMWPk5YYXJyNArHL4v3gHlx6mO92MrgnkMrilhl6MRm+QveysGxwBRrXwRIBhwpC2moObCAY7w4x4qRfCzD6OvpCrU4kzcht1xrmuw3utiLPsozDMwGFL09gpaX7qC4HejNwAMRZs9cDI2Y/7ujY0wfueaVBOZ/r2n19Lg2fcF1oygxev5LKLovCmVljprhLoNU39t4o0qb4VSaje+JQx1dS3/QLHpqUpnXWfOjNv9FkQebxQdJ1lwXrUhMDVwBN1e8MW7RZUEdwSyDjVT10GV73WIwWyhXWPRYsV8yNGUvx5c6LDgsIj3KBO0wWtw0FUpl8nluTcmreGxsloFUb6yQEq0A52WNwWk/25LJ0gvMK+6yS8aaLviPwWGVnt9+cYLg5BsoBiaAmfHnpyLHwKT+89EtiORON+RLui3SyZVD3nK/DDfc+rj847LcXqnsNTECxLhQB4LThN27wpNdZFpeKB1JPH7hbAsY4OC63hzJ93g0BLF6HteALEuAqN+Cxla2HW1XvAtxolwc1PQlHLQMueUtAn6NxZCuYLhSskNNT53jFIX51JByJNL2uNNiRHOQqUJofKPFSDYhx1BNMU/ZY4PyBR5vFcAOuVr3LypZCzl3i2DJfUzhi1YakG6iF9dNz5TEbo73Lyt3YPUN3CpS5f/2y4b7TrEcNNWuMYwwuvwFrDJ9/GmHKunPOzkZ8Lv254P+5wKv2xZJDHqkcfAIvu/jcCSe/cVM7MUNkLyZA4bsbp86ouwpN7BJVbiuo0JgnToeXWl3PSJoFUJzD3IVV3GE6K98NbHvWOZQj2BkAOJi8VOYARj8e/ap+i3YmAqM11qhfa+EF9i+4SOcP3CU3c0cKYBNsiR+RI9yB0gEJWGzoL7Y8okvHm11ORh+cjGFM48ydDY4LuLS8EKsDNPjaIDoAHCRaWBPndyTMoszKYVEVdsgLRBw5rzf6Ds8fuFsZrsGhN1ZCESd/pMxIVMG1hvADTRywfyKMw8/0OL7EMdd1k+XFzuR7T5b7YbDiDuIA8IwBJXtu7jjwwCAjDzEJvTU0/TiRGjRizr6M8wQXzQMrWhvgD8gBwBlhPP6bJ+7i09hfPObG65jzZRc29/Am9ngHVeDHnLBiYXmxBD/gyDQLvx3H4lWWOa0cznmvftj5ucrbE6jcBqzK5uXmnWQJA2T0xEMKSnyllJ0WN79EfpFK0vbhIqF4YJHd0ierf/vAonp1Kpk/dkDtpePxZLo3G+U7V20r2NEXNcw1OgIF0Dnr36m5OTOCS6mEsNEz+JzaxeHFnBHpISqPOpVsfT23DMeK2NxbXVrxDA5XHc5UJdSWHWocjG9WjkAdchg7eXAAoeGUteyzedvxuEVFpzeiAEDdhd6vcomRJ9e4CR7mtxuTL14e4TqxGWsO1fBRdRztHF/Fhe5pn7252zY/fZYHlspD6VKMxM0l6qMAb55YnkfZtEflQiMTiG2w2/zORnjo9fIIxtksdumGGP3z0JN72stQdXdA9z1ybw6c3Ac3fsNHJ3fkkzlMtFF4PyNz8Xu4kWGVxWVw8DxYsa+xdFzCznIVr/vjTIe+7gifPXksS2GimiXHjlqYMUJEJirBTh6vsEObUxuZbu3eiW9MKsOqUOK631FPvexfX4sFtyfk5q64t2wMPITLhZ1vzKtzhseo3t+g5HAwMzPr3lZBZdXCRn12aPcYJbW4Jceic+S451Pjc+PAq3lT8RVvy+EKPALdixcO/eKHo16O82F5EqCncil98WMxL2f5sPD781k+LE1nGIxtzyNMN7+a5cOqeK79woPTviZzjzq8H+TDUbjfGORj8HMBgTh9jXVzjtSrQT7sMYRhYVyBNWqO1OtBPuTZcKvLEjScMo5olc7RMp8N8iGa5KJyCBETH6/UXg3y4cFvDPI5f97OH+8H+eAk5yzAQ+FeUz8b53KQj0W/784gn1ngyOlvjQntjwb5GBcQC3fTzuVfjtiLGDO5x1G6DjFzgSLziXBSwTBxUuB1kJndLcq9eqzl9JOnFkHmE+m6sXUQuARmj/sYodN9r81i66BOpxlSl3Lw+64G+exdyh8N8uFuMQYp2GrTfc3X9SCfc728X/rFIJ+jFTjkb65dqRumw9maEWYKLm0Nj3AeRhZoRd+icDHIR78quQAumAOKszMvpvhoXPlwI0E0a30F7vicTR9k9/0QH85VZLE/Tmmv3ju4HOJzIg13hvhQAIX7Ujj4NQyLuhziw5Jq4ba30VL2I5ivh/iwKS7GbJYd53xXXNwxmztCU9/lEB/GkHTGHxOcgE8m+MyTQR6WE3zOH/hgkKvxPfNXDpob1eLzmZfje06u9c74nvki+Q/OI42VAu+n98zVcJyH0xhjcoReTe85A0Y3pveci0e+emC5kMhy+InvhvecKIA7w3vOVc7ud7yf3HOu5fbE+/vJPUeVel9xr/Xwq+K2w1C6W24INMEz5fjNA8tlZcaW/FG5RzEOoFpsKsNZTv1lXQZnfbgLv9pUNmM97sJvbCozbirjuJZmjHU4Yq82lRG8FU4qaczVxTV27zeV2fc2lTEgBc+XK6MBeTy6v9pUZtxURo+Kf+2jMZebyux7m8qMrccmw7gKKQzov9pURpDbSuf8/eRH/VxuKbPvbSmbc1G47YG+ZkhxX20pM24pU9ayAqyEifBXxU72nS1lOPQsT7gnufHAdaiYQTYLBy5RIO9A5m7Nyp26oajpar+Fza2VMPOVDQrBCrxfU2bfW1NmTFkody0loJKwiXuxqIzsVb5GD9vO0Yeip7eLysjRcVzWcgYVRahxcxO+VXqoIL7cU2YceGRf1RmhUuByT5l9b08ZVVNnLbOxQD1Ot3m/p4y6kEnTTqfKaabLNWVUv47QG1vKSGjhSHbOkW7+Tq/WlM33QUBrjAb5cTFXO8rsOzvKHs7zzUSSfbqkjMuWXPPZakmZcUkZ3Qd2jz/f1Q2Xz+ZeMEJvLnDQsPL1Yk2ZfW9NmTF3WWgl4BGVUGx5uahsjucCbwArZl8PdLmn7AiVdvd9sacs4qvViwuQ7+MDK8OxPoB/+ceffv/l6z/+8te//e2fv//263/9fPz7v/z628//+duv//r7n59/9M9f/vSPn/Ff/x8=);strokeColor=none;spacingTop=-3;spacingBottom=-3;spacingLeft=-3;spacingRight=-3;points=[];labelBackgroundColor=none;rounded=0;html=1;whiteSpace=wrap;" parent="1" vertex="1">
          <mxGeometry x="899.5" y="1030" width="77" height="30" as="geometry" />
        </mxCell>
        <mxCell id="QWRjxhVPjkHXVvezQv8i-48" value="" style="group" parent="1" vertex="1" connectable="0">
          <mxGeometry x="100" y="960" width="960" height="400" as="geometry" />
        </mxCell>
        <mxCell id="QWRjxhVPjkHXVvezQv8i-50" value="" style="group;fontColor=#FFFFFF;" parent="QWRjxhVPjkHXVvezQv8i-48" vertex="1" connectable="0">
          <mxGeometry width="960" height="400" as="geometry" />
        </mxCell>
        <mxCell id="QWRjxhVPjkHXVvezQv8i-51" style="vsdxID=6;fillColor=none;gradientColor=none;shape=stencil(vVNdD4IgFP01POIQms1nq//BEpVF4q6U9u/DoFJxPdjm2/04cO65cBDL2oo3AlHSGtAX0cncVIgdEKWyrgRIYyPEjohlhQZRgr7VucsbPiCH6Krvww29O0eGE5Q8XJaSaPcqnByWw9k2wWNZRFMHhzc+SlwhQHhATDxBj3kvWwzacCN1PSFXHEqBLRcuFC8nrbYTognKfjol65GSNIn28SL5SjGf2efL2UBMwO1nWykl3M1mzxJ8ib/eZHkrG8j47RMbfA1WSKWcP8f9uSFtyZmZHZ8=);strokeColor=#5282ff;spacingTop=-3;spacingBottom=-3;spacingLeft=-3;spacingRight=-3;points=[];labelBackgroundColor=none;rounded=0;html=1;whiteSpace=wrap;container=0;" parent="QWRjxhVPjkHXVvezQv8i-50" vertex="1">
          <mxGeometry width="960" height="400" as="geometry" />
        </mxCell>
        <mxCell id="QWRjxhVPjkHXVvezQv8i-52" value="&lt;div style=&quot;font-size: 1px&quot;&gt;&lt;font style=&quot;font-size:22.58px;font-family:Arial;color:#000000;direction:ltr;letter-spacing:0px;line-height:120%;opacity:1&quot;&gt;Patroni cluster&lt;br&gt;&lt;/font&gt;&lt;/div&gt;" style="verticalAlign=middle;align=center;overflow=width;vsdxID=7;fillColor=none;gradientColor=none;shape=stencil(nZBLDoAgDERP0z3SIyjew0SURgSD+Lu9kMZoXLhwN9O+tukAlrNpJg1SzDH4QW/URgNYgZTkjA4UkwJUgGXng+6DX1zLfmoymdXo17xh5zmRJ6Q42BWCfc2oJfdAr+Yv+AP9Cb7OJ3H/2JG1HNGz/84klThPVCc=);strokeColor=none;points=[];labelBackgroundColor=none;rounded=0;html=1;whiteSpace=wrap;container=0;" parent="QWRjxhVPjkHXVvezQv8i-50" vertex="1">
          <mxGeometry y="180" width="106.6212765957447" height="47.97473684210526" as="geometry" />
        </mxCell>
        <mxCell id="QWRjxhVPjkHXVvezQv8i-53" value="" style="shape=image;verticalLabelPosition=bottom;verticalAlign=top;imageAspect=0;aspect=fixed;image=data:image/svg+xml,PHN2ZyB4bWxucz0iaHR0cDovL3d3dy53My5vcmcvMjAwMC9zdmciIHdpZHRoPSIzMiIgaGVpZ2h0PSIzMiIgdmlld0JveD0iMCAwIDMyIDMyIiBmaWxsPSJub25lIj4mI3hhOzxwYXRoIGQ9Ik0wIDE2QzAgNy4xNjM0NCA3LjE2MzQ0IDAgMTYgMFYwQzI0LjgzNjYgMCAzMiA3LjE2MzQ0IDMyIDE2VjE2QzMyIDI0LjgzNjYgMjQuODM2NiAzMiAxNiAzMlYzMkM3LjE2MzQ0IDMyIDAgMjQuODM2NiAwIDE2VjE2WiIgZmlsbD0iIzUyODJGRiIvPiYjeGE7PHBhdGggZmlsbC1ydWxlPSJldmVub2RkIiBjbGlwLXJ1bGU9ImV2ZW5vZGQiIGQ9Ik0xMyA4SDE4QzIxLjMgOCAyNCAxMC43IDI0IDE0VjI0SDIwVjIwSDIyVjE5SDE4LjZDMTUuNSAxOSAxMyAxNi41IDEzIDEzLjRWOFpNMTkgMTdIMjFWMTVIMTlWMTdaTTEyIDkuMDk5OThWMTMuNEMxMiAxNi44IDE0LjYgMTkuNyAxOCAyMC4xVjIwLjZDMTggMjIgMTUuOCAyMy4xIDEzIDIzLjFDMTAuMiAyMy4xIDggMjIgOCAyMC42VjExLjZDOCAxMC4zIDkuNyA5LjI5OTk4IDEyIDkuMDk5OThaIiBmaWxsPSJ3aGl0ZSIvPiYjeGE7PC9zdmc+;" parent="QWRjxhVPjkHXVvezQv8i-50" vertex="1">
          <mxGeometry x="20.425531914893618" y="236.8421052631579" width="44.47876447876448" height="44.47876447876448" as="geometry" />
        </mxCell>
        <mxCell id="QWRjxhVPjkHXVvezQv8i-54" value="" style="endArrow=classic;html=1;rounded=0;startArrow=classic;startFill=1;exitX=0.448;exitY=0.54;exitDx=0;exitDy=0;exitPerimeter=0;dashed=1;" parent="QWRjxhVPjkHXVvezQv8i-50" source="QWRjxhVPjkHXVvezQv8i-51" edge="1">
          <mxGeometry width="50" height="50" relative="1" as="geometry">
            <mxPoint x="430.0000000000001" y="265" as="sourcePoint" />
            <mxPoint x="770" y="216" as="targetPoint" />
            <Array as="points" />
          </mxGeometry>
        </mxCell>
        <mxCell id="QWRjxhVPjkHXVvezQv8i-55" value="Репликация" style="edgeLabel;html=1;align=center;verticalAlign=middle;resizable=0;points=[];" parent="QWRjxhVPjkHXVvezQv8i-54" vertex="1" connectable="0">
          <mxGeometry x="-0.3233" y="-1" relative="1" as="geometry">
            <mxPoint as="offset" />
          </mxGeometry>
        </mxCell>
        <mxCell id="-xfvqT3o1xn0HTC6BI_B-2" value="&lt;font style=&quot;font-size: 14px;&quot;&gt;Patroni&lt;/font&gt;" style="rounded=1;whiteSpace=wrap;html=1;fillColor=#5282FF;strokeColor=#0000FF;fontColor=#FFFFFF;" parent="QWRjxhVPjkHXVvezQv8i-50" vertex="1">
          <mxGeometry x="122.55319148936172" y="190.0763157894737" width="91.91489361702128" height="37.89473684210527" as="geometry" />
        </mxCell>
        <mxCell id="-xfvqT3o1xn0HTC6BI_B-1" value="ETCD" style="aspect=fixed;sketch=0;html=1;dashed=0;whitespace=wrap;verticalLabelPosition=bottom;verticalAlign=top;fillColor=#2875E2;strokeColor=#ffffff;points=[[0.005,0.63,0],[0.1,0.2,0],[0.9,0.2,0],[0.5,0,0],[0.995,0.63,0],[0.72,0.99,0],[0.5,1,0],[0.28,0.99,0]];shape=mxgraph.kubernetes.icon2;prIcon=etcd" parent="QWRjxhVPjkHXVvezQv8i-50" vertex="1">
          <mxGeometry x="132.76595744680853" y="346.99947368421056" width="30.883088803088807" height="29.65250965250966" as="geometry" />
        </mxCell>
        <mxCell id="WRWCaNQaI8eCV_dkMZPi-1" style="edgeStyle=orthogonalEdgeStyle;rounded=0;orthogonalLoop=1;jettySize=auto;html=1;fillColor=#ffe6cc;strokeColor=#d79b00;startArrow=classic;startFill=1;" parent="QWRjxhVPjkHXVvezQv8i-50" edge="1">
          <mxGeometry relative="1" as="geometry">
            <mxPoint x="214.46808510638303" y="209.0999999999999" as="sourcePoint" />
            <mxPoint x="300" y="210" as="targetPoint" />
            <Array as="points">
              <mxPoint x="234.89361702127664" y="209" />
              <mxPoint x="306.3829787234043" y="210" />
            </Array>
          </mxGeometry>
        </mxCell>
        <mxCell id="WRWCaNQaI8eCV_dkMZPi-3" style="edgeStyle=orthogonalEdgeStyle;rounded=0;orthogonalLoop=1;jettySize=auto;html=1;entryX=0.5;entryY=0;entryDx=0;entryDy=0;entryPerimeter=0;fillColor=#ffe6cc;strokeColor=#d79b00;startArrow=classic;startFill=1;" parent="QWRjxhVPjkHXVvezQv8i-50" source="-xfvqT3o1xn0HTC6BI_B-2" target="-xfvqT3o1xn0HTC6BI_B-1" edge="1">
          <mxGeometry relative="1" as="geometry">
            <Array as="points">
              <mxPoint x="149.10638297872342" y="239.99999999999997" />
              <mxPoint x="149.10638297872342" y="239.99999999999997" />
            </Array>
          </mxGeometry>
        </mxCell>
        <mxCell id="WRWCaNQaI8eCV_dkMZPi-4" value="&lt;font style=&quot;color: rgb(255, 255, 255);&quot;&gt;PMM&lt;/font&gt;&lt;div&gt;&lt;font style=&quot;color: rgb(255, 255, 255);&quot;&gt;Client&lt;/font&gt;&lt;/div&gt;" style="ellipse;whiteSpace=wrap;html=1;strokeColor=#5282FF;fillColor=#5282FF;" parent="QWRjxhVPjkHXVvezQv8i-50" vertex="1">
          <mxGeometry x="392.9953191489363" y="299.99999999999994" width="91.91489361702128" height="59.99999999999999" as="geometry" />
        </mxCell>
        <mxCell id="WRWCaNQaI8eCV_dkMZPi-5" value="&lt;font style=&quot;font-size: 14px;&quot;&gt;Patroni&lt;/font&gt;" style="rounded=1;whiteSpace=wrap;html=1;fillColor=#5282FF;strokeColor=#0000FF;fontColor=#FFFFFF;" parent="QWRjxhVPjkHXVvezQv8i-50" vertex="1">
          <mxGeometry x="590.0031914893618" y="227.53631578947375" width="91.91489361702128" height="37.89473684210527" as="geometry" />
        </mxCell>
        <mxCell id="WRWCaNQaI8eCV_dkMZPi-6" value="ETCD" style="aspect=fixed;sketch=0;html=1;dashed=0;whitespace=wrap;verticalLabelPosition=bottom;verticalAlign=top;fillColor=#2875E2;strokeColor=#ffffff;points=[[0.005,0.63,0],[0.1,0.2,0],[0.9,0.2,0],[0.5,0,0],[0.995,0.63,0],[0.72,0.99,0],[0.5,1,0],[0.28,0.99,0]];shape=mxgraph.kubernetes.icon2;prIcon=etcd" parent="QWRjxhVPjkHXVvezQv8i-50" vertex="1">
          <mxGeometry x="600.2159574468086" y="349.99947368421044" width="30.883088803088807" height="29.65250965250966" as="geometry" />
        </mxCell>
        <mxCell id="WRWCaNQaI8eCV_dkMZPi-7" style="edgeStyle=orthogonalEdgeStyle;rounded=0;orthogonalLoop=1;jettySize=auto;html=1;fillColor=#ffe6cc;strokeColor=#d79b00;startArrow=classic;startFill=1;" parent="QWRjxhVPjkHXVvezQv8i-50" edge="1">
          <mxGeometry relative="1" as="geometry">
            <mxPoint x="681.918085106383" y="246.55999999999995" as="sourcePoint" />
            <mxPoint x="770" y="247" as="targetPoint" />
            <Array as="points">
              <mxPoint x="702.3436170212766" y="246.46000000000004" />
              <mxPoint x="773.8329787234045" y="247.46000000000004" />
            </Array>
          </mxGeometry>
        </mxCell>
        <mxCell id="WRWCaNQaI8eCV_dkMZPi-8" style="edgeStyle=orthogonalEdgeStyle;rounded=0;orthogonalLoop=1;jettySize=auto;html=1;entryX=0.5;entryY=0;entryDx=0;entryDy=0;entryPerimeter=0;fillColor=#ffe6cc;strokeColor=#d79b00;startArrow=classic;startFill=1;" parent="QWRjxhVPjkHXVvezQv8i-50" source="WRWCaNQaI8eCV_dkMZPi-5" target="WRWCaNQaI8eCV_dkMZPi-6" edge="1">
          <mxGeometry relative="1" as="geometry">
            <Array as="points">
              <mxPoint x="616.5563829787235" y="277.46000000000004" />
              <mxPoint x="616.5563829787235" y="277.46000000000004" />
            </Array>
          </mxGeometry>
        </mxCell>
        <mxCell id="WRWCaNQaI8eCV_dkMZPi-9" style="edgeStyle=orthogonalEdgeStyle;rounded=0;orthogonalLoop=1;jettySize=auto;html=1;startArrow=classic;startFill=0;endArrow=none;dashed=1;" parent="QWRjxhVPjkHXVvezQv8i-50" edge="1">
          <mxGeometry relative="1" as="geometry">
            <mxPoint x="449" y="300" as="sourcePoint" />
            <mxPoint x="430" y="240" as="targetPoint" />
            <Array as="points">
              <mxPoint x="449" y="290" />
              <mxPoint x="450" y="290" />
              <mxPoint x="450" y="240" />
            </Array>
          </mxGeometry>
        </mxCell>
        <mxCell id="WRWCaNQaI8eCV_dkMZPi-10" value="&lt;font style=&quot;color: rgb(255, 255, 255);&quot;&gt;PMM&lt;/font&gt;&lt;div&gt;&lt;font style=&quot;color: rgb(255, 255, 255);&quot;&gt;Client&lt;/font&gt;&lt;/div&gt;" style="ellipse;whiteSpace=wrap;html=1;strokeColor=#5282FF;fillColor=#5282FF;" parent="QWRjxhVPjkHXVvezQv8i-50" vertex="1">
          <mxGeometry x="859.9953191489362" y="300" width="91.91489361702128" height="59.99999999999999" as="geometry" />
        </mxCell>
        <mxCell id="WRWCaNQaI8eCV_dkMZPi-11" style="edgeStyle=orthogonalEdgeStyle;rounded=0;orthogonalLoop=1;jettySize=auto;html=1;entryX=0.448;entryY=0.649;entryDx=0;entryDy=0;entryPerimeter=0;startArrow=classic;startFill=0;endArrow=none;dashed=1;" parent="QWRjxhVPjkHXVvezQv8i-50" edge="1">
          <mxGeometry relative="1" as="geometry">
            <mxPoint x="916" y="300" as="sourcePoint" />
            <mxPoint x="897" y="240" as="targetPoint" />
            <Array as="points">
              <mxPoint x="916" y="290" />
              <mxPoint x="917" y="290" />
              <mxPoint x="917" y="240" />
            </Array>
          </mxGeometry>
        </mxCell>
        <mxCell id="WRWCaNQaI8eCV_dkMZPi-25" style="edgeStyle=orthogonalEdgeStyle;rounded=0;orthogonalLoop=1;jettySize=auto;html=1;entryX=0.995;entryY=0.63;entryDx=0;entryDy=0;entryPerimeter=0;fillColor=#ffe6cc;strokeColor=#d79b00;startArrow=classic;startFill=1;" parent="QWRjxhVPjkHXVvezQv8i-50" source="WRWCaNQaI8eCV_dkMZPi-6" target="-xfvqT3o1xn0HTC6BI_B-1" edge="1">
          <mxGeometry relative="1" as="geometry" />
        </mxCell>
        <mxCell id="QWRjxhVPjkHXVvezQv8i-46" style="edgeStyle=orthogonalEdgeStyle;rounded=0;orthogonalLoop=1;jettySize=auto;html=1;" parent="1" edge="1">
          <mxGeometry relative="1" as="geometry">
            <mxPoint x="934" y="1073" as="sourcePoint" />
            <mxPoint x="934" y="1139" as="targetPoint" />
          </mxGeometry>
        </mxCell>
        <mxCell id="QWRjxhVPjkHXVvezQv8i-47" value="TCP" style="edgeLabel;html=1;align=center;verticalAlign=middle;resizable=0;points=[];container=0;" parent="QWRjxhVPjkHXVvezQv8i-46" vertex="1" connectable="0">
          <mxGeometry x="-0.0566" y="2" relative="1" as="geometry">
            <mxPoint as="offset" />
          </mxGeometry>
        </mxCell>
        <mxCell id="QWRjxhVPjkHXVvezQv8i-56" style="edgeStyle=orthogonalEdgeStyle;rounded=1;orthogonalLoop=1;jettySize=auto;html=1;curved=0;" parent="1" edge="1">
          <mxGeometry relative="1" as="geometry">
            <mxPoint x="870" y="1050" as="sourcePoint" />
            <Array as="points">
              <mxPoint x="620" y="1050" />
              <mxPoint x="620" y="1160" />
            </Array>
            <mxPoint x="530" y="1160" as="targetPoint" />
          </mxGeometry>
        </mxCell>
        <mxCell id="QWRjxhVPjkHXVvezQv8i-57" style="edgeStyle=orthogonalEdgeStyle;rounded=1;orthogonalLoop=1;jettySize=auto;html=1;curved=0;" parent="1" source="QWRjxhVPjkHXVvezQv8i-24" edge="1">
          <mxGeometry relative="1" as="geometry">
            <Array as="points">
              <mxPoint x="770" y="1010" />
              <mxPoint x="770" y="1160" />
            </Array>
            <mxPoint x="870" y="1160" as="targetPoint" />
          </mxGeometry>
        </mxCell>
        <mxCell id="QWRjxhVPjkHXVvezQv8i-58" style="rounded=1;orthogonalLoop=1;jettySize=auto;html=1;entryX=0.246;entryY=-0.012;entryDx=0;entryDy=0;entryPerimeter=0;curved=0;exitX=0.5;exitY=1.002;exitDx=0;exitDy=0;exitPerimeter=0;" parent="1" source="QWRjxhVPjkHXVvezQv8i-13" target="QWRjxhVPjkHXVvezQv8i-42" edge="1">
          <mxGeometry relative="1" as="geometry">
            <Array as="points">
              <mxPoint x="626" y="720" />
              <mxPoint x="770" y="720" />
            </Array>
            <mxPoint x="627" y="630" as="sourcePoint" />
            <mxPoint x="451" y="808" as="targetPoint" />
          </mxGeometry>
        </mxCell>
        <mxCell id="QWRjxhVPjkHXVvezQv8i-59" value="Active failover" style="edgeLabel;html=1;align=center;verticalAlign=middle;resizable=0;points=[];" parent="QWRjxhVPjkHXVvezQv8i-58" vertex="1" connectable="0">
          <mxGeometry x="0.1832" y="-1" relative="1" as="geometry">
            <mxPoint as="offset" />
          </mxGeometry>
        </mxCell>
        <mxCell id="QWRjxhVPjkHXVvezQv8i-60" style="edgeStyle=orthogonalEdgeStyle;rounded=0;orthogonalLoop=1;jettySize=auto;html=1;" parent="1" source="QWRjxhVPjkHXVvezQv8i-21" edge="1">
          <mxGeometry relative="1" as="geometry">
            <mxPoint x="900" y="800" as="targetPoint" />
          </mxGeometry>
        </mxCell>
        <mxCell id="QWRjxhVPjkHXVvezQv8i-61" value="health check" style="edgeLabel;html=1;align=center;verticalAlign=middle;resizable=0;points=[];" parent="QWRjxhVPjkHXVvezQv8i-60" vertex="1" connectable="0">
          <mxGeometry x="-0.2225" y="2" relative="1" as="geometry">
            <mxPoint y="-1" as="offset" />
          </mxGeometry>
        </mxCell>
        <mxCell id="QWRjxhVPjkHXVvezQv8i-62" style="edgeStyle=orthogonalEdgeStyle;rounded=1;orthogonalLoop=1;jettySize=auto;html=1;entryX=0.104;entryY=-0.016;entryDx=0;entryDy=0;entryPerimeter=0;curved=0;" parent="1" source="QWRjxhVPjkHXVvezQv8i-21" target="QWRjxhVPjkHXVvezQv8i-18" edge="1">
          <mxGeometry relative="1" as="geometry">
            <Array as="points">
              <mxPoint x="900" y="450" />
              <mxPoint x="248" y="450" />
              <mxPoint x="248" y="798" />
            </Array>
          </mxGeometry>
        </mxCell>
        <mxCell id="QWRjxhVPjkHXVvezQv8i-63" value="health check" style="edgeLabel;html=1;align=center;verticalAlign=middle;resizable=0;points=[];" parent="QWRjxhVPjkHXVvezQv8i-62" vertex="1" connectable="0">
          <mxGeometry x="0.7774" relative="1" as="geometry">
            <mxPoint y="-16" as="offset" />
          </mxGeometry>
        </mxCell>
        <mxCell id="WRWCaNQaI8eCV_dkMZPi-12" style="vsdxID=5;fillColor=#fad7ac;strokeColor=#b46504;spacingTop=-3;spacingBottom=-3;spacingLeft=-3;spacingRight=-3;points=[];labelBackgroundColor=none;rounded=0;html=1;whiteSpace=wrap;" parent="1" vertex="1">
          <mxGeometry x="570" y="1470" width="250" height="70" as="geometry" />
        </mxCell>
        <mxCell id="WRWCaNQaI8eCV_dkMZPi-13" style="vsdxID=6;fillColor=none;gradientColor=none;shape=stencil(vVNdD4IgFP01POIQms1nq//BEpVF4q6U9u/DoFJxPdjm2/04cO65cBDL2oo3AlHSGtAX0cncVIgdEKWyrgRIYyPEjohlhQZRgr7VucsbPiCH6Krvww29O0eGE5Q8XJaSaPcqnByWw9k2wWNZRFMHhzc+SlwhQHhATDxBj3kvWwzacCN1PSFXHEqBLRcuFC8nrbYTognKfjol65GSNIn28SL5SjGf2efL2UBMwO1nWykl3M1mzxJ8ib/eZHkrG8j47RMbfA1WSKWcP8f9uSFtyZmZHZ8=);strokeColor=#5282ff;spacingTop=-3;spacingBottom=-3;spacingLeft=-3;spacingRight=-3;points=[];labelBackgroundColor=none;rounded=0;html=1;whiteSpace=wrap;" parent="WRWCaNQaI8eCV_dkMZPi-12" vertex="1">
          <mxGeometry width="250" height="70" as="geometry" />
        </mxCell>
        <mxCell id="WRWCaNQaI8eCV_dkMZPi-14" value="&lt;div style=&quot;&quot;&gt;&lt;font style=&quot;font-family: Arial; color: rgb(0, 0, 0); direction: ltr; letter-spacing: 0px; line-height: 120%; opacity: 1;&quot;&gt;&lt;font style=&quot;font-size: 14px;&quot;&gt;Percona Management and Monitoring (PMM)&lt;/font&gt;&lt;br&gt;&lt;/font&gt;&lt;/div&gt;" style="verticalAlign=middle;align=center;overflow=width;vsdxID=7;fillColor=none;gradientColor=none;shape=stencil(nZBLDoAgDERP0z3SIyjew0SURgSD+Lu9kMZoXLhwN9O+tukAlrNpJg1SzDH4QW/URgNYgZTkjA4UkwJUgGXng+6DX1zLfmoymdXo17xh5zmRJ6Q42BWCfc2oJfdAr+Yv+AP9Cb7OJ3H/2JG1HNGz/84klThPVCc=);strokeColor=none;points=[];labelBackgroundColor=none;rounded=0;html=1;whiteSpace=wrap;" parent="WRWCaNQaI8eCV_dkMZPi-12" vertex="1">
          <mxGeometry x="32.78688524590164" y="8.076923076923077" width="175.40983606557378" height="53.846153846153854" as="geometry" />
        </mxCell>
        <mxCell id="WRWCaNQaI8eCV_dkMZPi-16" style="vsdxID=5;fillColor=none;gradientColor=none;strokeColor=none;spacingTop=-3;spacingBottom=-3;spacingLeft=-3;spacingRight=-3;points=[];labelBackgroundColor=none;rounded=0;html=1;whiteSpace=wrap;" parent="1" vertex="1">
          <mxGeometry x="312" y="1540" width="181" height="80" as="geometry" />
        </mxCell>
        <mxCell id="WRWCaNQaI8eCV_dkMZPi-17" style="vsdxID=6;fillColor=none;gradientColor=none;strokeColor=none;spacingTop=-3;spacingBottom=-3;spacingLeft=-3;spacingRight=-3;points=[];labelBackgroundColor=none;rounded=0;html=1;whiteSpace=wrap;" parent="WRWCaNQaI8eCV_dkMZPi-16" vertex="1">
          <mxGeometry width="181" height="80" as="geometry" />
        </mxCell>
        <mxCell id="WRWCaNQaI8eCV_dkMZPi-18" style="vsdxID=7;fillColor=#ffcccc;shape=stencil(vVNdD4IgFP01PMpIms1ns//BEpVF4K6U9u/DoFJxPdjm2/04cO65cBDN2po1HMWkNaAvvBOFqRE9ojgWquYgjI0QzRHNSg28An1ThcsbNiCH6Krvww29O0eGEzF5uCwleP8qnByWwdk2wWMpTg8ODm88TlwhQHjAjniCPmK9aCPQhhmh1YRcMqh4ZLmiUrJq0mo7zpug7KeTQo2UpAkmdJF8pZjP7PPlbCAm4PazrZQS7mazZwm+xF9vsryVDWT89okNvgYrhZTOn+P+3JC25MxM8yc=);strokeColor=#36393d;spacingTop=-3;spacingBottom=-3;spacingLeft=-3;spacingRight=-3;points=[];labelBackgroundColor=none;rounded=0;html=1;whiteSpace=wrap;" parent="WRWCaNQaI8eCV_dkMZPi-17" vertex="1">
          <mxGeometry width="181" height="80" as="geometry" />
        </mxCell>
        <mxCell id="WRWCaNQaI8eCV_dkMZPi-19" value="&lt;div style=&quot;&quot;&gt;&lt;font style=&quot;font-family: Arial; color: rgb(0, 0, 0); direction: ltr; letter-spacing: 0px; line-height: 120%; opacity: 1;&quot;&gt;&lt;font style=&quot;font-size: 14px;&quot;&gt;pg-Back (backup сервер)&lt;/font&gt;&lt;br&gt;&lt;/font&gt;&lt;/div&gt;" style="verticalAlign=middle;align=center;overflow=width;vsdxID=8;fillColor=none;gradientColor=none;shape=stencil(nZBLDoAgDERP0z3SIyjew0SURgSD+Lu9kMZoXLhwN9O+tukAlrNpJg1SzDH4QW/URgNYgZTkjA4UkwJUgGXng+6DX1zLfmoymdXo17xh5zmRJ6Q42BWCfc2oJfdAr+Yv+AP9Cb7OJ3H/2JG1HNGz/84klThPVCc=);strokeColor=none;points=[];labelBackgroundColor=none;rounded=0;html=1;whiteSpace=wrap;" parent="WRWCaNQaI8eCV_dkMZPi-17" vertex="1">
          <mxGeometry x="13.645064516129032" y="18.46153846153846" width="153.70403225806453" height="43.07692307692307" as="geometry" />
        </mxCell>
        <mxCell id="WRWCaNQaI8eCV_dkMZPi-20" style="edgeStyle=orthogonalEdgeStyle;rounded=0;orthogonalLoop=1;jettySize=auto;html=1;entryX=0.315;entryY=0.162;entryDx=0;entryDy=0;entryPerimeter=0;strokeWidth=4;fillColor=#ffcccc;strokeColor=#ffcccc;startArrow=classic;startFill=1;endArrow=none;endFill=0;" parent="1" source="WRWCaNQaI8eCV_dkMZPi-17" target="QWRjxhVPjkHXVvezQv8i-51" edge="1">
          <mxGeometry relative="1" as="geometry">
            <mxPoint x="121" y="1597" as="targetPoint" />
            <Array as="points">
              <mxPoint x="40" y="1580" />
              <mxPoint x="40" y="1020" />
            </Array>
          </mxGeometry>
        </mxCell>
        <mxCell id="WRWCaNQaI8eCV_dkMZPi-21" style="edgeStyle=orthogonalEdgeStyle;rounded=0;orthogonalLoop=1;jettySize=auto;html=1;strokeWidth=4;fillColor=#ffcccc;strokeColor=#ffcccc;startArrow=classic;startFill=1;endArrow=none;endFill=0;exitX=1.005;exitY=0.461;exitDx=0;exitDy=0;exitPerimeter=0;" parent="1" source="WRWCaNQaI8eCV_dkMZPi-17" edge="1">
          <mxGeometry relative="1" as="geometry">
            <mxPoint x="1000" y="1030" as="targetPoint" />
            <mxPoint x="322" y="1590" as="sourcePoint" />
            <Array as="points">
              <mxPoint x="1110" y="1577" />
              <mxPoint x="1110" y="1030" />
            </Array>
          </mxGeometry>
        </mxCell>
        <mxCell id="WRWCaNQaI8eCV_dkMZPi-23" style="edgeStyle=orthogonalEdgeStyle;rounded=0;orthogonalLoop=1;jettySize=auto;html=1;entryX=0.5;entryY=1;entryDx=0;entryDy=0;startArrow=classic;startFill=0;endArrow=none;dashed=1;exitX=-0.001;exitY=0.526;exitDx=0;exitDy=0;exitPerimeter=0;" parent="1" source="WRWCaNQaI8eCV_dkMZPi-13" target="WRWCaNQaI8eCV_dkMZPi-4" edge="1">
          <mxGeometry relative="1" as="geometry">
            <mxPoint x="633" y="1410" as="sourcePoint" />
            <mxPoint x="614" y="1350" as="targetPoint" />
            <Array as="points">
              <mxPoint x="539" y="1507" />
            </Array>
          </mxGeometry>
        </mxCell>
        <mxCell id="WRWCaNQaI8eCV_dkMZPi-24" style="edgeStyle=orthogonalEdgeStyle;rounded=0;orthogonalLoop=1;jettySize=auto;html=1;entryX=0.5;entryY=1;entryDx=0;entryDy=0;startArrow=classic;startFill=0;endArrow=none;dashed=1;exitX=1;exitY=0.489;exitDx=0;exitDy=0;exitPerimeter=0;" parent="1" source="WRWCaNQaI8eCV_dkMZPi-13" target="WRWCaNQaI8eCV_dkMZPi-10" edge="1">
          <mxGeometry relative="1" as="geometry">
            <mxPoint x="1019" y="1520" as="sourcePoint" />
            <mxPoint x="1000" y="1460" as="targetPoint" />
            <Array as="points">
              <mxPoint x="1006" y="1504" />
            </Array>
          </mxGeometry>
        </mxCell>
      </root>
    </mxGraphModel>
  </diagram>
  <diagram name="as-is" id="-FQbQIRzEgXYEJ3rUFKh">
    <mxGraphModel grid="1" page="1" gridSize="10" guides="1" tooltips="1" connect="1" arrows="1" fold="1" pageScale="1" pageWidth="827" pageHeight="1169" math="0" shadow="0">
      <root>
        <mxCell id="0" />
        <mxCell id="1" parent="0" />
        <mxCell id="Zcm5tQwCMB2YyKj0-IPv-7" value="&lt;div style=&quot;font-size: 1px&quot;&gt;&lt;font style=&quot;font-size:22.58px;font-family:Arial;color:#000000;direction:ltr;letter-spacing:0px;line-height:120%;opacity:1&quot;&gt;Зона доступности 1&lt;br&gt;&lt;/font&gt;&lt;/div&gt;" style="verticalAlign=bottom;align=center;overflow=width;vsdxID=5;fillColor=#e3ebff;gradientColor=none;shape=stencil(vVNBDsIgEHwNRwxCjHqu+g9iaUtEaBa09fdSwdpi9dBDb8vOwOwsGcQyW/FaIEqsA3MRjcxdhdgBUSp1JUA6XyF2RCwrDIgSzE3n4VzzjtlVV3PvXmjDPdLdoOQRTrvtavNqnAKXw9mDELkBIhDJaxrJZIy/YRLfbjFvpcVgHHfS6JGu4lAK7GVwoXg5gmwjRP3VjoMpqQcm9tPKs0z0Y6crWcBHqt0PN8tJspXFfmNKdpaBH8tYwML/VPjiE6dCKhXSOMTT+PlWiC47PgE=);strokeColor=none;spacingTop=-3;spacingBottom=-3;spacingLeft=-3;spacingRight=-3;points=[];labelBackgroundColor=none;rounded=0;html=1;whiteSpace=wrap;container=0;" vertex="1" parent="1">
          <mxGeometry x="160" y="360" width="390.22" height="430" as="geometry" />
        </mxCell>
        <mxCell id="Zcm5tQwCMB2YyKj0-IPv-33" style="edgeStyle=orthogonalEdgeStyle;rounded=0;orthogonalLoop=1;jettySize=auto;html=1;" edge="1" parent="1" source="Zcm5tQwCMB2YyKj0-IPv-16" target="Zcm5tQwCMB2YyKj0-IPv-27">
          <mxGeometry relative="1" as="geometry" />
        </mxCell>
        <mxCell id="Zcm5tQwCMB2YyKj0-IPv-34" value="TCP" style="edgeLabel;html=1;align=center;verticalAlign=middle;resizable=0;points=[];container=0;" vertex="1" connectable="0" parent="Zcm5tQwCMB2YyKj0-IPv-33">
          <mxGeometry x="-0.0566" y="2" relative="1" as="geometry">
            <mxPoint as="offset" />
          </mxGeometry>
        </mxCell>
        <mxCell id="Zcm5tQwCMB2YyKj0-IPv-42" style="edgeStyle=orthogonalEdgeStyle;rounded=0;orthogonalLoop=1;jettySize=auto;html=1;" edge="1" parent="1" source="Zcm5tQwCMB2YyKj0-IPv-39" target="Zcm5tQwCMB2YyKj0-IPv-15">
          <mxGeometry relative="1" as="geometry">
            <Array as="points">
              <mxPoint x="425" y="320" />
              <mxPoint x="425" y="320" />
            </Array>
          </mxGeometry>
        </mxCell>
        <mxCell id="Zcm5tQwCMB2YyKj0-IPv-14" value="" style="shape=image;verticalLabelPosition=bottom;verticalAlign=top;imageAspect=0;aspect=fixed;image=data:image/svg+xml,PHN2ZyB4bWxucz0iaHR0cDovL3d3dy53My5vcmcvMjAwMC9zdmciIHdpZHRoPSIzMiIgaGVpZ2h0PSIzMiIgdmlld0JveD0iMCAwIDMyIDMyIiBmaWxsPSJub25lIj4mI3hhOzxwYXRoIGQ9Ik0wIDE2QzAgNy4xNjM0NCA3LjE2MzQ0IDAgMTYgMFYwQzI0LjgzNjYgMCAzMiA3LjE2MzQ0IDMyIDE2VjE2QzMyIDI0LjgzNjYgMjQuODM2NiAzMiAxNiAzMlYzMkM3LjE2MzQ0IDMyIDAgMjQuODM2NiAwIDE2VjE2WiIgZmlsbD0iIzUyODJGRiIvPiYjeGE7PHBhdGggZD0iTTExLjk5NSAyNEw3LjAwMDk4IDE3LjczOEw4Ljc4MTk4IDkuOTI3TDE2IDYuNDUzTDIzLjIxOCA5LjkyOEwyNC45OTkgMTcuNzM5TDIwLjAwNSAyNEgxMS45OTVaTTIwIDEzLjE5NkwxNS45OTkgMTAuODk5TDEyIDEzLjE5NlYxOC4xTDE2IDIwLjQwMUwyMCAxOC4xVjEzLjE5NlpNMTguNzggMTMuODk2SDE4Ljc4N0wxNiAxNS40OTlMMTMuMjE0IDEzLjg5NUgxMy4yMTlMMTUuOTk5IDEyLjI5OUwxOC43OCAxMy44OTZaIiBmaWxsPSJ3aGl0ZSIvPiYjeGE7PC9zdmc+;container=0;" vertex="1" parent="1">
          <mxGeometry x="425" y="430" width="28.571428571428573" height="28.571428571428573" as="geometry" />
        </mxCell>
        <mxCell id="Zcm5tQwCMB2YyKj0-IPv-15" style="vsdxID=5;fillColor=none;gradientColor=none;shape=stencil(vVPLEoIgFP0aljgEVuPa6j+YRGUica6U9vdhUKk4LWzG3X0cOPdcOIilTclrgShpDOiLaGVmSsQOiFJZlQKksRFiR8TSXIMoQN+qzOU175F9dNX3/obOnSP9CUoeLktIFL8KJ4flcLZN8NhtRJiDwxsf7VwhQHjAhniCDvNONhi04UbqakSuOBQCWy6cK16MWk0rRB2U/XRKVgMlSRwl+1nyhWI+s0+Xs4KYgNvPtlBKuJvVniX4En+9yfxWVpDx2yc2+Bosl0o5fw77U0PakjMzOz4B);strokeColor=#ff5958;spacingTop=-3;spacingBottom=-3;spacingLeft=-3;spacingRight=-3;points=[];labelBackgroundColor=none;rounded=0;html=1;whiteSpace=wrap;container=0;" vertex="1" parent="1">
          <mxGeometry x="360" y="420" width="130" height="100" as="geometry" />
        </mxCell>
        <mxCell id="Zcm5tQwCMB2YyKj0-IPv-16" value="&lt;div style=&quot;font-size: 1px&quot;&gt;&lt;font style=&quot;font-size:22.58px;font-family:Arial;color:#000000;direction:ltr;letter-spacing:0px;line-height:120%;opacity:1&quot;&gt;InsureTech&lt;/font&gt;&lt;/div&gt;&lt;div style=&quot;font-size: 1px&quot;&gt;&lt;font style=&quot;font-size:22.58px;font-family:Arial;color:#000000;direction:ltr;letter-spacing:0px;line-height:120%;opacity:1&quot;&gt;namespace&lt;/font&gt;&lt;/div&gt;" style="verticalAlign=bottom;align=center;overflow=width;vsdxID=6;fillColor=none;gradientColor=none;strokeColor=none;spacingTop=-3;spacingBottom=-3;spacingLeft=-3;spacingRight=-3;points=[];labelBackgroundColor=none;rounded=0;html=1;whiteSpace=wrap;container=0;" vertex="1" parent="1">
          <mxGeometry x="360" y="460" width="130" height="54" as="geometry" />
        </mxCell>
        <mxCell id="Zcm5tQwCMB2YyKj0-IPv-27" style="vsdxID=5;fillColor=none;gradientColor=none;shape=stencil(vVPLEoIgFP0aljgEVuPa6j+YRGUica6U9vdhUKk4LWzG3X0cOPdcOIilTclrgShpDOiLaGVmSsQOiFJZlQKksRFiR8TSXIMoQN+qzOU175F9dNX3/obOnSP9CUoeLktIFL8KJ4flcLZN8NhtRJiDwxsf7VwhQHjAhniCDvNONhi04UbqakSuOBQCWy6cK16MWk0rRB2U/XRKVgMlSRwl+1nyhWI+s0+Xs4KYgNvPtlBKuJvVniX4En+9yfxWVpDx2yc2+Bosl0o5fw77U0PakjMzOz4B);strokeColor=#ff5958;spacingTop=-3;spacingBottom=-3;spacingLeft=-3;spacingRight=-3;points=[];labelBackgroundColor=none;rounded=0;html=1;whiteSpace=wrap;container=0;" vertex="1" parent="1">
          <mxGeometry x="360" y="594.11" width="130" height="105.5" as="geometry" />
        </mxCell>
        <mxCell id="Zcm5tQwCMB2YyKj0-IPv-28" value="&lt;div style=&quot;font-size: 1px&quot;&gt;&lt;font style=&quot;font-size:22.58px;font-family:Arial;color:#000000;direction:ltr;letter-spacing:0px;line-height:120%;opacity:1&quot;&gt;PosrgreSQL&lt;br&gt;&lt;/font&gt;&lt;/div&gt;&lt;div style=&quot;font-size: 1px&quot;&gt;&lt;font style=&quot;font-size:22.58px;font-family:Arial;color:#000000;direction:ltr;letter-spacing:0px;line-height:120%;opacity:1&quot;&gt;(master)&lt;/font&gt;&lt;/div&gt;" style="verticalAlign=bottom;align=center;overflow=width;vsdxID=6;fillColor=none;gradientColor=none;strokeColor=none;spacingTop=-3;spacingBottom=-3;spacingLeft=-3;spacingRight=-3;points=[];labelBackgroundColor=none;rounded=0;html=1;whiteSpace=wrap;container=0;" vertex="1" parent="1">
          <mxGeometry x="360" y="639.11" width="130" height="53.21" as="geometry" />
        </mxCell>
        <mxCell id="Zcm5tQwCMB2YyKj0-IPv-30" value="" style="shape=image;verticalLabelPosition=bottom;verticalAlign=top;imageAspect=0;aspect=fixed;image=data:image/svg+xml,PHN2ZyB4bWxucz0iaHR0cDovL3d3dy53My5vcmcvMjAwMC9zdmciIHdpZHRoPSIzMiIgaGVpZ2h0PSIzMiIgdmlld0JveD0iMCAwIDMyIDMyIiBmaWxsPSJub25lIj4mI3hhOzxwYXRoIGQ9Ik0wIDE2QzAgNy4xNjM0NCA3LjE2MzQ0IDAgMTYgMFYwQzI0LjgzNjYgMCAzMiA3LjE2MzQ0IDMyIDE2VjE2QzMyIDI0LjgzNjYgMjQuODM2NiAzMiAxNiAzMlYzMkM3LjE2MzQ0IDMyIDAgMjQuODM2NiAwIDE2VjE2WiIgZmlsbD0iIzUyODJGRiIvPiYjeGE7PHBhdGggZmlsbC1ydWxlPSJldmVub2RkIiBjbGlwLXJ1bGU9ImV2ZW5vZGQiIGQ9Ik0xMyA4SDE4QzIxLjMgOCAyNCAxMC43IDI0IDE0VjI0SDIwVjIwSDIyVjE5SDE4LjZDMTUuNSAxOSAxMyAxNi41IDEzIDEzLjRWOFpNMTkgMTdIMjFWMTVIMTlWMTdaTTEyIDkuMDk5OThWMTMuNEMxMiAxNi44IDE0LjYgMTkuNyAxOCAyMC4xVjIwLjZDMTggMjIgMTUuOCAyMy4xIDEzIDIzLjFDMTAuMiAyMy4xIDggMjIgOCAyMC42VjExLjZDOCAxMC4zIDkuNyA5LjI5OTk4IDEyIDkuMDk5OThaIiBmaWxsPSJ3aGl0ZSIvPiYjeGE7PC9zdmc+;container=0;" vertex="1" parent="1">
          <mxGeometry x="404.5" y="598.11" width="36.26923076923077" height="36.26923076923077" as="geometry" />
        </mxCell>
        <mxCell id="Zcm5tQwCMB2YyKj0-IPv-38" value="" style="aspect=fixed;sketch=0;html=1;dashed=0;whitespace=wrap;verticalLabelPosition=bottom;verticalAlign=top;fillColor=#2875E2;strokeColor=#ffffff;points=[[0.005,0.63,0],[0.1,0.2,0],[0.9,0.2,0],[0.5,0,0],[0.995,0.63,0],[0.72,0.99,0],[0.5,1,0],[0.28,0.99,0]];shape=mxgraph.kubernetes.icon2;prIcon=group;container=0;" vertex="1" parent="1">
          <mxGeometry x="430.63" y="140" width="50" height="48" as="geometry" />
        </mxCell>
        <mxCell id="Zcm5tQwCMB2YyKj0-IPv-39" style="vsdxID=5;fillColor=none;gradientColor=none;shape=stencil(vVPLEoIgFP0aljgEVuPa6j+YRGUica6U9vdhUKk4LWzG3X0cOPdcOIilTclrgShpDOiLaGVmSsQOiFJZlQKksRFiR8TSXIMoQN+qzOU175F9dNX3/obOnSP9CUoeLktIFL8KJ4flcLZN8NhtRJiDwxsf7VwhQHjAhniCDvNONhi04UbqakSuOBQCWy6cK16MWk0rRB2U/XRKVgMlSRwl+1nyhWI+s0+Xs4KYgNvPtlBKuJvVniX4En+9yfxWVpDx2yc2+Bosl0o5fw77U0PakjMzOz4B);strokeColor=#ff5958;spacingTop=-3;spacingBottom=-3;spacingLeft=-3;spacingRight=-3;points=[];labelBackgroundColor=none;rounded=0;html=1;whiteSpace=wrap;container=0;" vertex="1" parent="1">
          <mxGeometry x="346.63" y="130" width="152" height="130" as="geometry" />
        </mxCell>
        <mxCell id="Zcm5tQwCMB2YyKj0-IPv-40" value="&lt;div style=&quot;font-size: 1px&quot;&gt;&lt;font style=&quot;font-size:22.58px;font-family:Arial;color:#000000;direction:ltr;letter-spacing:0px;line-height:120%;opacity:1&quot;&gt;Браузер&amp;nbsp;&lt;/font&gt;&lt;/div&gt;&lt;div style=&quot;font-size: 1px&quot;&gt;&lt;font style=&quot;font-size:22.58px;font-family:Arial;color:#000000;direction:ltr;letter-spacing:0px;line-height:120%;opacity:1&quot;&gt;пользователя&lt;/font&gt;&lt;/div&gt;" style="verticalAlign=bottom;align=center;overflow=width;vsdxID=6;fillColor=none;gradientColor=none;strokeColor=none;spacingTop=-3;spacingBottom=-3;spacingLeft=-3;spacingRight=-3;points=[];labelBackgroundColor=none;rounded=0;html=1;whiteSpace=wrap;container=0;" vertex="1" parent="1">
          <mxGeometry x="346.63" y="197" width="152" height="53" as="geometry" />
        </mxCell>
        <mxCell id="Zcm5tQwCMB2YyKj0-IPv-56" value="" style="group" vertex="1" connectable="0" parent="1">
          <mxGeometry x="190" y="580" width="320" height="133.71" as="geometry" />
        </mxCell>
        <mxCell id="Zcm5tQwCMB2YyKj0-IPv-18" style="vsdxID=6;fillColor=none;gradientColor=none;shape=stencil(vVNdD4IgFP01POIQms1nq//BEpVF4q6U9u/DoFJxPdjm2/04cO65cBDL2oo3AlHSGtAX0cncVIgdEKWyrgRIYyPEjohlhQZRgr7VucsbPiCH6Krvww29O0eGE5Q8XJaSaPcqnByWw9k2wWNZRFMHhzc+SlwhQHhATDxBj3kvWwzacCN1PSFXHEqBLRcuFC8nrbYTognKfjol65GSNIn28SL5SjGf2efL2UBMwO1nWykl3M1mzxJ8ib/eZHkrG8j47RMbfA1WSKWcP8f9uSFtyZmZHZ8=);strokeColor=#5282ff;spacingTop=-3;spacingBottom=-3;spacingLeft=-3;spacingRight=-3;points=[];labelBackgroundColor=none;rounded=0;html=1;whiteSpace=wrap;container=0;" vertex="1" parent="Zcm5tQwCMB2YyKj0-IPv-56">
          <mxGeometry width="320" height="133.70999999999998" as="geometry" />
        </mxCell>
        <mxCell id="Zcm5tQwCMB2YyKj0-IPv-29" value="" style="shape=image;verticalLabelPosition=bottom;verticalAlign=top;imageAspect=0;aspect=fixed;image=data:image/svg+xml,PHN2ZyB4bWxucz0iaHR0cDovL3d3dy53My5vcmcvMjAwMC9zdmciIHdpZHRoPSIzMiIgaGVpZ2h0PSIzMiIgdmlld0JveD0iMCAwIDMyIDMyIiBmaWxsPSJub25lIj4mI3hhOzxwYXRoIGQ9Ik0wIDE2QzAgNy4xNjM0NCA3LjE2MzQ0IDAgMTYgMFYwQzI0LjgzNjYgMCAzMiA3LjE2MzQ0IDMyIDE2VjE2QzMyIDI0LjgzNjYgMjQuODM2NiAzMiAxNiAzMlYzMkM3LjE2MzQ0IDMyIDAgMjQuODM2NiAwIDE2VjE2WiIgZmlsbD0iIzUyODJGRiIvPiYjeGE7PHBhdGggZD0iTTI0IDE1VjEzSDIyVjExQzIyIDEwLjQgMjEuNiAxMCAyMSAxMEgxOVY4SDE3VjEwSDE1VjhIMTNWMTBIMTFDMTAuNCAxMCAxMCAxMC40IDEwIDExVjEzSDhWMTVIMTBWMTdIOFYxOUgxMFYyMUMxMCAyMS42IDEwLjQgMjIgMTEgMjJIMTNWMjRIMTVWMjJIMTdWMjRIMTlWMjJIMjFDMjEuNiAyMiAyMiAyMS42IDIyIDIxVjE5SDI0VjE3SDIyVjE1SDI0Wk0xOSAxOUgxM1YxM0gxOVYxOVoiIGZpbGw9IndoaXRlIi8+JiN4YTs8L3N2Zz4=;container=0;" vertex="1" parent="Zcm5tQwCMB2YyKj0-IPv-56">
          <mxGeometry x="38.55515151515151" y="85.11" width="25.09090909090909" height="25.09090909090909" as="geometry" />
        </mxCell>
        <mxCell id="Zcm5tQwCMB2YyKj0-IPv-20" value="&lt;div style=&quot;font-size: 1px&quot;&gt;&lt;font style=&quot;font-size:22.58px;font-family:Arial;color:#000000;direction:ltr;letter-spacing:0px;line-height:120%;opacity:1&quot;&gt;VM 1&lt;br&gt;&lt;/font&gt;&lt;/div&gt;" style="verticalAlign=middle;align=center;overflow=width;vsdxID=7;fillColor=none;gradientColor=none;shape=stencil(nZBLDoAgDERP0z3SIyjew0SURgSD+Lu9kMZoXLhwN9O+tukAlrNpJg1SzDH4QW/URgNYgZTkjA4UkwJUgGXng+6DX1zLfmoymdXo17xh5zmRJ6Q42BWCfc2oJfdAr+Yv+AP9Cb7OJ3H/2JG1HNGz/84klThPVCc=);strokeColor=none;points=[];labelBackgroundColor=none;rounded=0;html=1;whiteSpace=wrap;container=0;" vertex="1" parent="Zcm5tQwCMB2YyKj0-IPv-56">
          <mxGeometry x="8.630303030303008" y="19.999999999999996" width="93.29454545454544" height="45.88999999999999" as="geometry" />
        </mxCell>
        <mxCell id="Zcm5tQwCMB2YyKj0-IPv-57" value="" style="group" vertex="1" connectable="0" parent="1">
          <mxGeometry x="190" y="400" width="320" height="133.71" as="geometry" />
        </mxCell>
        <mxCell id="Zcm5tQwCMB2YyKj0-IPv-8" value="" style="shape=image;verticalLabelPosition=bottom;verticalAlign=top;imageAspect=0;aspect=fixed;image=data:image/svg+xml,PHN2ZyB4bWxucz0iaHR0cDovL3d3dy53My5vcmcvMjAwMC9zdmciIHdpZHRoPSIzMiIgaGVpZ2h0PSIzMiIgdmlld0JveD0iMCAwIDMyIDMyIiBmaWxsPSJub25lIj4mI3hhOzxwYXRoIGQ9Ik0wIDE2QzAgNy4xNjM0NCA3LjE2MzQ0IDAgMTYgMFYwQzI0LjgzNjYgMCAzMiA3LjE2MzQ0IDMyIDE2VjE2QzMyIDI0LjgzNjYgMjQuODM2NiAzMiAxNiAzMlYzMkM3LjE2MzQ0IDMyIDAgMjQuODM2NiAwIDE2VjE2WiIgZmlsbD0iIzUyODJGRiIvPiYjeGE7PHBhdGggZD0iTTExLjk5NSAyNEw3LjAwMDk4IDE3LjczOEw4Ljc4MTk4IDkuOTI3TDE2IDYuNDUzTDIzLjIxOCA5LjkyOEwyNC45OTkgMTcuNzM5TDIwLjAwNSAyNEgxMS45OTVaTTIwIDEzLjE5NkwxNS45OTkgMTAuODk5TDEyIDEzLjE5NlYxOC4xTDE2IDIwLjQwMUwyMCAxOC4xVjEzLjE5NlpNMTguNzggMTMuODk2SDE4Ljc4N0wxNiAxNS40OTlMMTMuMjE0IDEzLjg5NUgxMy4yMTlMMTUuOTk5IDEyLjI5OUwxOC43OCAxMy44OTZaIiBmaWxsPSJ3aGl0ZSIvPiYjeGE7PC9zdmc+;container=0;" vertex="1" parent="Zcm5tQwCMB2YyKj0-IPv-57">
          <mxGeometry x="43.99515151515152" y="86.14999999999996" width="27.69545454545455" height="27.69545454545455" as="geometry" />
        </mxCell>
        <mxCell id="Zcm5tQwCMB2YyKj0-IPv-6" value="&lt;div style=&quot;font-size: 1px&quot;&gt;&lt;font style=&quot;font-size:22.58px;font-family:Arial;color:#000000;direction:ltr;letter-spacing:0px;line-height:120%;opacity:1&quot;&gt;Kubernetes&lt;br&gt;&lt;/font&gt;&lt;/div&gt;&lt;div style=&quot;font-size: 1px&quot;&gt;&lt;font style=&quot;font-size:22.58px;font-family:Arial;color:#000000;direction:ltr;letter-spacing:0px;line-height:120%;opacity:1&quot;&gt;cluster 1&lt;/font&gt;&lt;/div&gt;" style="verticalAlign=middle;align=center;overflow=width;vsdxID=7;fillColor=none;gradientColor=none;shape=stencil(nZBLDoAgDERP0z3SIyjew0SURgSD+Lu9kMZoXLhwN9O+tukAlrNpJg1SzDH4QW/URgNYgZTkjA4UkwJUgGXng+6DX1zLfmoymdXo17xh5zmRJ6Q42BWCfc2oJfdAr+Yv+AP9Cb7OJ3H/2JG1HNGz/84klThPVCc=);strokeColor=none;points=[];labelBackgroundColor=none;rounded=0;html=1;whiteSpace=wrap;container=0;" vertex="1" parent="Zcm5tQwCMB2YyKj0-IPv-57">
          <mxGeometry x="9.696969696969697" width="116.36363636363637" height="86.13999999999999" as="geometry" />
        </mxCell>
        <mxCell id="Zcm5tQwCMB2YyKj0-IPv-5" style="vsdxID=6;fillColor=none;gradientColor=none;shape=stencil(vVNdD4IgFP01POIQms1nq//BEpVF4q6U9u/DoFJxPdjm2/04cO65cBDL2oo3AlHSGtAX0cncVIgdEKWyrgRIYyPEjohlhQZRgr7VucsbPiCH6Krvww29O0eGE5Q8XJaSaPcqnByWw9k2wWNZRFMHhzc+SlwhQHhATDxBj3kvWwzacCN1PSFXHEqBLRcuFC8nrbYTognKfjol65GSNIn28SL5SjGf2efL2UBMwO1nWykl3M1mzxJ8ib/eZHkrG8j47RMbfA1WSKWcP8f9uSFtyZmZHZ8=);strokeColor=#5282ff;spacingTop=-3;spacingBottom=-3;spacingLeft=-3;spacingRight=-3;points=[];labelBackgroundColor=none;rounded=0;html=1;whiteSpace=wrap;container=0;" vertex="1" parent="1">
          <mxGeometry x="190" y="400" width="320" height="133.70999999999998" as="geometry" />
        </mxCell>
      </root>
    </mxGraphModel>
  </diagram>
</mxfile>
